<svg xmlns="http://www.w3.org/2000/svg" viewBox="0 0 800 600" width="800" height="600">
  <rect width="800" height="600" fill="#1C1E35"/>
  <text x="400" y="24" font-family="Barlow,sans-serif" font-size="12" font-weight="700"
        fill="#6B6B7C" text-anchor="middle" letter-spacing="0.14em">AWW DNA HELIX SPEC v4 — rungs aligned to strand positions</text>
  <text x="140" y="44" font-family="Barlow,sans-serif" font-size="11" fill="#A8A8B5" text-anchor="middle">Standard</text>
  <text x="380" y="44" font-family="Barlow,sans-serif" font-size="11" fill="#A8A8B5" text-anchor="middle">Highlighted region</text>
  <text x="620" y="44" font-family="Barlow,sans-serif" font-size="11" fill="#A8A8B5" text-anchor="middle">CRISPR cut site</text>
  <line x1="260" y1="40" x2="260" y2="580" stroke="#3D3D52" stroke-width="1"/>
  <line x1="500" y1="40" x2="500" y2="580" stroke="#3D3D52" stroke-width="1"/>

    <line x1="124.7" y1="55.0" x2="140.0" y2="55.0" stroke="#8BA0D6" stroke-width="1.8" stroke-linecap="round" opacity="1.00"/>
  <line x1="115.3" y1="65.0" x2="155.3" y2="65.0" stroke="#8BA0D6" stroke-width="1.8" stroke-linecap="round" opacity="0.81"/>
  <line x1="115.3" y1="75.0" x2="164.7" y2="75.0" stroke="#8BA0D6" stroke-width="1.8" stroke-linecap="round" opacity="0.31"/>
  <line x1="124.7" y1="85.0" x2="164.7" y2="85.0" stroke="#8BA0D6" stroke-width="1.8" stroke-linecap="round" opacity="0.13"/>
  <line x1="140.0" y1="95.0" x2="155.3" y2="95.0" stroke="#8BA0D6" stroke-width="1.8" stroke-linecap="round" opacity="0.13"/>
  <line x1="140.0" y1="105.0" x2="155.3" y2="105.0" stroke="#8BA0D6" stroke-width="1.8" stroke-linecap="round" opacity="0.13"/>
  <line x1="124.7" y1="115.0" x2="164.7" y2="115.0" stroke="#8BA0D6" stroke-width="1.8" stroke-linecap="round" opacity="0.13"/>
  <line x1="115.3" y1="125.0" x2="164.7" y2="125.0" stroke="#8BA0D6" stroke-width="1.8" stroke-linecap="round" opacity="0.13"/>
  <line x1="115.3" y1="135.0" x2="155.3" y2="135.0" stroke="#8BA0D6" stroke-width="1.8" stroke-linecap="round" opacity="0.31"/>
  <line x1="124.7" y1="145.0" x2="140.0" y2="145.0" stroke="#8BA0D6" stroke-width="1.8" stroke-linecap="round" opacity="0.81"/>
  <line x1="124.7" y1="155.0" x2="140.0" y2="155.0" stroke="#8BA0D6" stroke-width="1.8" stroke-linecap="round" opacity="1.00"/>
  <line x1="115.3" y1="165.0" x2="155.3" y2="165.0" stroke="#8BA0D6" stroke-width="1.8" stroke-linecap="round" opacity="0.81"/>
  <line x1="115.3" y1="175.0" x2="164.7" y2="175.0" stroke="#8BA0D6" stroke-width="1.8" stroke-linecap="round" opacity="0.31"/>
  <line x1="124.7" y1="185.0" x2="164.7" y2="185.0" stroke="#8BA0D6" stroke-width="1.8" stroke-linecap="round" opacity="0.13"/>
  <line x1="140.0" y1="195.0" x2="155.3" y2="195.0" stroke="#8BA0D6" stroke-width="1.8" stroke-linecap="round" opacity="0.13"/>
  <line x1="140.0" y1="205.0" x2="155.3" y2="205.0" stroke="#8BA0D6" stroke-width="1.8" stroke-linecap="round" opacity="0.13"/>
  <line x1="124.7" y1="215.0" x2="164.7" y2="215.0" stroke="#8BA0D6" stroke-width="1.8" stroke-linecap="round" opacity="0.13"/>
  <line x1="115.3" y1="225.0" x2="164.7" y2="225.0" stroke="#8BA0D6" stroke-width="1.8" stroke-linecap="round" opacity="0.13"/>
  <line x1="115.3" y1="235.0" x2="155.3" y2="235.0" stroke="#8BA0D6" stroke-width="1.8" stroke-linecap="round" opacity="0.31"/>
  <line x1="124.7" y1="245.0" x2="140.0" y2="245.0" stroke="#8BA0D6" stroke-width="1.8" stroke-linecap="round" opacity="0.81"/>
  <line x1="124.7" y1="255.0" x2="140.0" y2="255.0" stroke="#8BA0D6" stroke-width="1.8" stroke-linecap="round" opacity="1.00"/>
  <line x1="115.3" y1="265.0" x2="155.3" y2="265.0" stroke="#8BA0D6" stroke-width="1.8" stroke-linecap="round" opacity="0.81"/>
  <line x1="115.3" y1="275.0" x2="164.7" y2="275.0" stroke="#8BA0D6" stroke-width="1.8" stroke-linecap="round" opacity="0.31"/>
  <line x1="124.7" y1="285.0" x2="164.7" y2="285.0" stroke="#8BA0D6" stroke-width="1.8" stroke-linecap="round" opacity="0.13"/>
  <line x1="140.0" y1="295.0" x2="155.3" y2="295.0" stroke="#8BA0D6" stroke-width="1.8" stroke-linecap="round" opacity="0.13"/>
  <line x1="140.0" y1="305.0" x2="155.3" y2="305.0" stroke="#8BA0D6" stroke-width="1.8" stroke-linecap="round" opacity="0.13"/>
  <line x1="124.7" y1="315.0" x2="164.7" y2="315.0" stroke="#8BA0D6" stroke-width="1.8" stroke-linecap="round" opacity="0.13"/>
  <line x1="115.3" y1="325.0" x2="164.7" y2="325.0" stroke="#8BA0D6" stroke-width="1.8" stroke-linecap="round" opacity="0.13"/>
  <line x1="115.3" y1="335.0" x2="155.3" y2="335.0" stroke="#8BA0D6" stroke-width="1.8" stroke-linecap="round" opacity="0.31"/>
  <line x1="124.7" y1="345.0" x2="140.0" y2="345.0" stroke="#8BA0D6" stroke-width="1.8" stroke-linecap="round" opacity="0.81"/>
  <line x1="124.7" y1="355.0" x2="140.0" y2="355.0" stroke="#8BA0D6" stroke-width="1.8" stroke-linecap="round" opacity="1.00"/>
  <line x1="115.3" y1="365.0" x2="155.3" y2="365.0" stroke="#8BA0D6" stroke-width="1.8" stroke-linecap="round" opacity="0.81"/>
  <line x1="115.3" y1="375.0" x2="164.7" y2="375.0" stroke="#8BA0D6" stroke-width="1.8" stroke-linecap="round" opacity="0.31"/>
  <line x1="124.7" y1="385.0" x2="164.7" y2="385.0" stroke="#8BA0D6" stroke-width="1.8" stroke-linecap="round" opacity="0.13"/>
  <line x1="140.0" y1="395.0" x2="155.3" y2="395.0" stroke="#8BA0D6" stroke-width="1.8" stroke-linecap="round" opacity="0.13"/>
  <line x1="140.0" y1="405.0" x2="155.3" y2="405.0" stroke="#8BA0D6" stroke-width="1.8" stroke-linecap="round" opacity="0.13"/>
  <line x1="124.7" y1="415.0" x2="164.7" y2="415.0" stroke="#8BA0D6" stroke-width="1.8" stroke-linecap="round" opacity="0.13"/>
  <line x1="115.3" y1="425.0" x2="164.7" y2="425.0" stroke="#8BA0D6" stroke-width="1.8" stroke-linecap="round" opacity="0.13"/>
  <line x1="115.3" y1="435.0" x2="155.3" y2="435.0" stroke="#8BA0D6" stroke-width="1.8" stroke-linecap="round" opacity="0.31"/>
  <line x1="124.7" y1="445.0" x2="140.0" y2="445.0" stroke="#8BA0D6" stroke-width="1.8" stroke-linecap="round" opacity="0.81"/>
  <line x1="124.7" y1="455.0" x2="140.0" y2="455.0" stroke="#8BA0D6" stroke-width="1.8" stroke-linecap="round" opacity="1.00"/>
  <line x1="115.3" y1="465.0" x2="155.3" y2="465.0" stroke="#8BA0D6" stroke-width="1.8" stroke-linecap="round" opacity="0.81"/>
  <line x1="115.3" y1="475.0" x2="164.7" y2="475.0" stroke="#8BA0D6" stroke-width="1.8" stroke-linecap="round" opacity="0.31"/>
  <line x1="124.7" y1="485.0" x2="164.7" y2="485.0" stroke="#8BA0D6" stroke-width="1.8" stroke-linecap="round" opacity="0.13"/>
  <line x1="140.0" y1="495.0" x2="155.3" y2="495.0" stroke="#8BA0D6" stroke-width="1.8" stroke-linecap="round" opacity="0.13"/>
  <line x1="140.0" y1="505.0" x2="155.3" y2="505.0" stroke="#8BA0D6" stroke-width="1.8" stroke-linecap="round" opacity="0.13"/>
  <line x1="124.7" y1="515.0" x2="164.7" y2="515.0" stroke="#8BA0D6" stroke-width="1.8" stroke-linecap="round" opacity="0.13"/>
  <line x1="115.3" y1="525.0" x2="164.7" y2="525.0" stroke="#8BA0D6" stroke-width="1.8" stroke-linecap="round" opacity="0.13"/>
  <line x1="115.3" y1="535.0" x2="155.3" y2="535.0" stroke="#8BA0D6" stroke-width="1.8" stroke-linecap="round" opacity="0.31"/>
  <line x1="124.7" y1="545.0" x2="140.0" y2="545.0" stroke="#8BA0D6" stroke-width="1.8" stroke-linecap="round" opacity="0.81"/>
  <line x1="124.7" y1="555.0" x2="140.0" y2="555.0" stroke="#8BA0D6" stroke-width="1.8" stroke-linecap="round" opacity="1.00"/>
  <line x1="115.3" y1="565.0" x2="155.3" y2="565.0" stroke="#8BA0D6" stroke-width="1.8" stroke-linecap="round" opacity="0.81"/>
  <path d="M 124.72,55.0 L 121.05,58.0 L 118.05,61.0 L 115.83,64.0 L 114.46,67.0 L 114.00,70.0 L 114.46,73.0 L 115.83,76.0 L 118.05,79.0 L 121.05,82.0 L 124.72,85.0 L 128.93,88.0 L 133.53,91.0 L 138.37,94.0 L 143.26,97.0 L 148.03,100.0 L 148.03,100.0"  fill="none" stroke="#5B6FA8" stroke-width="3.0" stroke-linecap="round" stroke-linejoin="round" opacity="1.0"/>
  <path d="M 140.00,55.0 L 144.87,58.0 L 149.57,61.0 L 153.93,64.0 L 157.80,67.0 L 161.03,70.0 L 163.53,73.0 L 165.18,76.0 L 165.95,79.0 L 165.79,82.0 L 164.73,85.0 L 162.78,88.0 L 160.03,91.0 L 156.57,94.0 L 152.53,97.0 L 148.03,100.0 L 148.03,100.0" fill="none" stroke="#2D3E6B" stroke-width="3.0" stroke-linecap="round" stroke-linejoin="round" opacity="1.0"/>
  <path d="M 148.03,100.0 L 143.26,103.0 L 138.37,106.0 L 133.53,109.0 L 128.93,112.0 L 124.72,115.0 L 121.05,118.0 L 118.05,121.0 L 115.83,124.0 L 114.46,127.0 L 114.00,130.0 L 114.46,133.0 L 115.83,136.0 L 118.05,139.0 L 121.05,142.0 L 124.72,145.0 L 128.93,148.0 L 131.97,150.0"  fill="none" stroke="#2D3E6B" stroke-width="3.0" stroke-linecap="round" stroke-linejoin="round" opacity="1.0"/>
  <path d="M 148.03,100.0 L 152.53,103.0 L 156.57,106.0 L 160.03,109.0 L 162.78,112.0 L 164.73,115.0 L 165.79,118.0 L 165.95,121.0 L 165.18,124.0 L 163.53,127.0 L 161.03,130.0 L 157.80,133.0 L 153.93,136.0 L 149.57,139.0 L 144.87,142.0 L 140.00,145.0 L 135.13,148.0 L 131.97,150.0" fill="none" stroke="#5B6FA8" stroke-width="3.0" stroke-linecap="round" stroke-linejoin="round" opacity="1.0"/>
  <path d="M 131.97,150.0 L 127.47,153.0 L 123.43,156.0 L 119.97,159.0 L 117.22,162.0 L 115.27,165.0 L 114.21,168.0 L 114.05,171.0 L 114.82,174.0 L 116.47,177.0 L 118.97,180.0 L 122.20,183.0 L 126.07,186.0 L 130.43,189.0 L 135.13,192.0 L 140.00,195.0 L 144.87,198.0 L 148.03,200.0"  fill="none" stroke="#5B6FA8" stroke-width="3.0" stroke-linecap="round" stroke-linejoin="round" opacity="1.0"/>
  <path d="M 131.97,150.0 L 136.74,153.0 L 141.63,156.0 L 146.47,159.0 L 151.07,162.0 L 155.28,165.0 L 158.95,168.0 L 161.95,171.0 L 164.17,174.0 L 165.54,177.0 L 166.00,180.0 L 165.54,183.0 L 164.17,186.0 L 161.95,189.0 L 158.95,192.0 L 155.28,195.0 L 151.07,198.0 L 148.03,200.0" fill="none" stroke="#2D3E6B" stroke-width="3.0" stroke-linecap="round" stroke-linejoin="round" opacity="1.0"/>
  <path d="M 148.03,200.0 L 143.26,203.0 L 138.37,206.0 L 133.53,209.0 L 128.93,212.0 L 124.72,215.0 L 121.05,218.0 L 118.05,221.0 L 115.83,224.0 L 114.46,227.0 L 114.00,230.0 L 114.46,233.0 L 115.83,236.0 L 118.05,239.0 L 121.05,242.0 L 124.72,245.0 L 128.93,248.0 L 131.97,250.0"  fill="none" stroke="#2D3E6B" stroke-width="3.0" stroke-linecap="round" stroke-linejoin="round" opacity="1.0"/>
  <path d="M 148.03,200.0 L 152.53,203.0 L 156.57,206.0 L 160.03,209.0 L 162.78,212.0 L 164.73,215.0 L 165.79,218.0 L 165.95,221.0 L 165.18,224.0 L 163.53,227.0 L 161.03,230.0 L 157.80,233.0 L 153.93,236.0 L 149.57,239.0 L 144.87,242.0 L 140.00,245.0 L 135.13,248.0 L 131.97,250.0" fill="none" stroke="#5B6FA8" stroke-width="3.0" stroke-linecap="round" stroke-linejoin="round" opacity="1.0"/>
  <path d="M 131.97,250.0 L 127.47,253.0 L 123.43,256.0 L 119.97,259.0 L 117.22,262.0 L 115.27,265.0 L 114.21,268.0 L 114.05,271.0 L 114.82,274.0 L 116.47,277.0 L 118.97,280.0 L 122.20,283.0 L 126.07,286.0 L 130.43,289.0 L 135.13,292.0 L 140.00,295.0 L 144.87,298.0 L 148.03,300.0"  fill="none" stroke="#5B6FA8" stroke-width="3.0" stroke-linecap="round" stroke-linejoin="round" opacity="1.0"/>
  <path d="M 131.97,250.0 L 136.74,253.0 L 141.63,256.0 L 146.47,259.0 L 151.07,262.0 L 155.28,265.0 L 158.95,268.0 L 161.95,271.0 L 164.17,274.0 L 165.54,277.0 L 166.00,280.0 L 165.54,283.0 L 164.17,286.0 L 161.95,289.0 L 158.95,292.0 L 155.28,295.0 L 151.07,298.0 L 148.03,300.0" fill="none" stroke="#2D3E6B" stroke-width="3.0" stroke-linecap="round" stroke-linejoin="round" opacity="1.0"/>
  <path d="M 148.03,300.0 L 143.26,303.0 L 138.37,306.0 L 133.53,309.0 L 128.93,312.0 L 124.72,315.0 L 121.05,318.0 L 118.05,321.0 L 115.83,324.0 L 114.46,327.0 L 114.00,330.0 L 114.46,333.0 L 115.83,336.0 L 118.05,339.0 L 121.05,342.0 L 124.72,345.0 L 128.93,348.0 L 131.97,350.0"  fill="none" stroke="#2D3E6B" stroke-width="3.0" stroke-linecap="round" stroke-linejoin="round" opacity="1.0"/>
  <path d="M 148.03,300.0 L 152.53,303.0 L 156.57,306.0 L 160.03,309.0 L 162.78,312.0 L 164.73,315.0 L 165.79,318.0 L 165.95,321.0 L 165.18,324.0 L 163.53,327.0 L 161.03,330.0 L 157.80,333.0 L 153.93,336.0 L 149.57,339.0 L 144.87,342.0 L 140.00,345.0 L 135.13,348.0 L 131.97,350.0" fill="none" stroke="#5B6FA8" stroke-width="3.0" stroke-linecap="round" stroke-linejoin="round" opacity="1.0"/>
  <path d="M 131.97,350.0 L 127.47,353.0 L 123.43,356.0 L 119.97,359.0 L 117.22,362.0 L 115.27,365.0 L 114.21,368.0 L 114.05,371.0 L 114.82,374.0 L 116.47,377.0 L 118.97,380.0 L 122.20,383.0 L 126.07,386.0 L 130.43,389.0 L 135.13,392.0 L 140.00,395.0 L 144.87,398.0 L 148.03,400.0"  fill="none" stroke="#5B6FA8" stroke-width="3.0" stroke-linecap="round" stroke-linejoin="round" opacity="1.0"/>
  <path d="M 131.97,350.0 L 136.74,353.0 L 141.63,356.0 L 146.47,359.0 L 151.07,362.0 L 155.28,365.0 L 158.95,368.0 L 161.95,371.0 L 164.17,374.0 L 165.54,377.0 L 166.00,380.0 L 165.54,383.0 L 164.17,386.0 L 161.95,389.0 L 158.95,392.0 L 155.28,395.0 L 151.07,398.0 L 148.03,400.0" fill="none" stroke="#2D3E6B" stroke-width="3.0" stroke-linecap="round" stroke-linejoin="round" opacity="1.0"/>
  <path d="M 148.03,400.0 L 143.26,403.0 L 138.37,406.0 L 133.53,409.0 L 128.93,412.0 L 124.72,415.0 L 121.05,418.0 L 118.05,421.0 L 115.83,424.0 L 114.46,427.0 L 114.00,430.0 L 114.46,433.0 L 115.83,436.0 L 118.05,439.0 L 121.05,442.0 L 124.72,445.0 L 128.93,448.0 L 131.97,450.0"  fill="none" stroke="#2D3E6B" stroke-width="3.0" stroke-linecap="round" stroke-linejoin="round" opacity="1.0"/>
  <path d="M 148.03,400.0 L 152.53,403.0 L 156.57,406.0 L 160.03,409.0 L 162.78,412.0 L 164.73,415.0 L 165.79,418.0 L 165.95,421.0 L 165.18,424.0 L 163.53,427.0 L 161.03,430.0 L 157.80,433.0 L 153.93,436.0 L 149.57,439.0 L 144.87,442.0 L 140.00,445.0 L 135.13,448.0 L 131.97,450.0" fill="none" stroke="#5B6FA8" stroke-width="3.0" stroke-linecap="round" stroke-linejoin="round" opacity="1.0"/>
  <path d="M 131.97,450.0 L 127.47,453.0 L 123.43,456.0 L 119.97,459.0 L 117.22,462.0 L 115.27,465.0 L 114.21,468.0 L 114.05,471.0 L 114.82,474.0 L 116.47,477.0 L 118.97,480.0 L 122.20,483.0 L 126.07,486.0 L 130.43,489.0 L 135.13,492.0 L 140.00,495.0 L 144.87,498.0 L 148.03,500.0"  fill="none" stroke="#5B6FA8" stroke-width="3.0" stroke-linecap="round" stroke-linejoin="round" opacity="1.0"/>
  <path d="M 131.97,450.0 L 136.74,453.0 L 141.63,456.0 L 146.47,459.0 L 151.07,462.0 L 155.28,465.0 L 158.95,468.0 L 161.95,471.0 L 164.17,474.0 L 165.54,477.0 L 166.00,480.0 L 165.54,483.0 L 164.17,486.0 L 161.95,489.0 L 158.95,492.0 L 155.28,495.0 L 151.07,498.0 L 148.03,500.0" fill="none" stroke="#2D3E6B" stroke-width="3.0" stroke-linecap="round" stroke-linejoin="round" opacity="1.0"/>
  <path d="M 148.03,500.0 L 143.26,503.0 L 138.37,506.0 L 133.53,509.0 L 128.93,512.0 L 124.72,515.0 L 121.05,518.0 L 118.05,521.0 L 115.83,524.0 L 114.46,527.0 L 114.00,530.0 L 114.46,533.0 L 115.83,536.0 L 118.05,539.0 L 121.05,542.0 L 124.72,545.0 L 128.93,548.0 L 131.97,550.0"  fill="none" stroke="#2D3E6B" stroke-width="3.0" stroke-linecap="round" stroke-linejoin="round" opacity="1.0"/>
  <path d="M 148.03,500.0 L 152.53,503.0 L 156.57,506.0 L 160.03,509.0 L 162.78,512.0 L 164.73,515.0 L 165.79,518.0 L 165.95,521.0 L 165.18,524.0 L 163.53,527.0 L 161.03,530.0 L 157.80,533.0 L 153.93,536.0 L 149.57,539.0 L 144.87,542.0 L 140.00,545.0 L 135.13,548.0 L 131.97,550.0" fill="none" stroke="#5B6FA8" stroke-width="3.0" stroke-linecap="round" stroke-linejoin="round" opacity="1.0"/>
  <path d="M 131.97,550.0 L 127.47,553.0 L 123.43,556.0 L 119.97,559.0 L 117.22,562.0 L 115.27,565.0 L 115.27,565.0"  fill="none" stroke="#5B6FA8" stroke-width="3.0" stroke-linecap="round" stroke-linejoin="round" opacity="1.0"/>
  <path d="M 131.97,550.0 L 136.74,553.0 L 141.63,556.0 L 146.47,559.0 L 151.07,562.0 L 155.28,565.0 L 155.28,565.0" fill="none" stroke="#2D3E6B" stroke-width="3.0" stroke-linecap="round" stroke-linejoin="round" opacity="1.0"/>
  <!-- groove labels -->
  <text x="193" y="195" font-family="Inter,sans-serif" font-size="9" fill="#6B6B7C">major</text>
  <text x="193" y="205" font-family="Inter,sans-serif" font-size="9" fill="#6B6B7C">groove</text>
  <line x1="190" y1="155" x2="190" y2="255" stroke="#6B6B7C" stroke-width="1"/>
  <line x1="186" y1="155" x2="190" y2="155" stroke="#6B6B7C" stroke-width="1"/>
  <line x1="186" y1="255" x2="190" y2="255" stroke="#6B6B7C" stroke-width="1"/>
  <text x="193" y="282" font-family="Inter,sans-serif" font-size="9" fill="#6B6B7C">minor</text>
  <text x="193" y="292" font-family="Inter,sans-serif" font-size="9" fill="#6B6B7C">groove</text>
  <line x1="190" y1="257" x2="190" y2="307" stroke="#6B6B7C" stroke-width="1"/>
  <line x1="186" y1="257" x2="190" y2="257" stroke="#6B6B7C" stroke-width="1"/>
  <line x1="186" y1="307" x2="190" y2="307" stroke="#6B6B7C" stroke-width="1"/>
  <line x1="88" y1="55" x2="88" y2="155" stroke="#A8A8B5" stroke-width="1" stroke-dasharray="3 2"/>
  <line x1="84" y1="55" x2="92" y2="55" stroke="#A8A8B5" stroke-width="1"/>
  <line x1="84" y1="155" x2="92" y2="155" stroke="#A8A8B5" stroke-width="1"/>
  <text x="54" y="103" font-family="Inter,sans-serif" font-size="9" fill="#A8A8B5" text-anchor="middle">10 bp</text>
  <text x="54" y="114" font-family="Inter,sans-serif" font-size="9" fill="#A8A8B5" text-anchor="middle">= 1 turn</text>

    <line x1="364.7" y1="55.0" x2="380.0" y2="55.0" stroke="#8BA0D6" stroke-width="1.8" stroke-linecap="round" opacity="1.00"/>
  <line x1="355.3" y1="65.0" x2="395.3" y2="65.0" stroke="#8BA0D6" stroke-width="1.8" stroke-linecap="round" opacity="0.81"/>
  <line x1="355.3" y1="75.0" x2="404.7" y2="75.0" stroke="#8BA0D6" stroke-width="1.8" stroke-linecap="round" opacity="0.31"/>
  <line x1="364.7" y1="85.0" x2="404.7" y2="85.0" stroke="#8BA0D6" stroke-width="1.8" stroke-linecap="round" opacity="0.13"/>
  <line x1="380.0" y1="95.0" x2="395.3" y2="95.0" stroke="#8BA0D6" stroke-width="1.8" stroke-linecap="round" opacity="0.13"/>
  <line x1="380.0" y1="105.0" x2="395.3" y2="105.0" stroke="#8BA0D6" stroke-width="1.8" stroke-linecap="round" opacity="0.13"/>
  <line x1="364.7" y1="115.0" x2="404.7" y2="115.0" stroke="#8BA0D6" stroke-width="1.8" stroke-linecap="round" opacity="0.13"/>
  <line x1="355.3" y1="125.0" x2="404.7" y2="125.0" stroke="#8BA0D6" stroke-width="1.8" stroke-linecap="round" opacity="0.13"/>
  <line x1="355.3" y1="135.0" x2="395.3" y2="135.0" stroke="#8BA0D6" stroke-width="1.8" stroke-linecap="round" opacity="0.31"/>
  <line x1="364.7" y1="145.0" x2="380.0" y2="145.0" stroke="#8BA0D6" stroke-width="1.8" stroke-linecap="round" opacity="0.81"/>
  <line x1="364.7" y1="155.0" x2="380.0" y2="155.0" stroke="#8BA0D6" stroke-width="1.8" stroke-linecap="round" opacity="1.00"/>
  <line x1="355.3" y1="165.0" x2="395.3" y2="165.0" stroke="#8BA0D6" stroke-width="1.8" stroke-linecap="round" opacity="0.81"/>
  <line x1="355.3" y1="175.0" x2="404.7" y2="175.0" stroke="#8BA0D6" stroke-width="1.8" stroke-linecap="round" opacity="0.31"/>
  <line x1="364.7" y1="185.0" x2="404.7" y2="185.0" stroke="#8BA0D6" stroke-width="1.8" stroke-linecap="round" opacity="0.13"/>
  <line x1="380.0" y1="195.0" x2="395.3" y2="195.0" stroke="#8BA0D6" stroke-width="1.8" stroke-linecap="round" opacity="0.13"/>
  <line x1="380.0" y1="205.0" x2="395.3" y2="205.0" stroke="#8BA0D6" stroke-width="1.8" stroke-linecap="round" opacity="0.13"/>
  <line x1="364.7" y1="215.0" x2="404.7" y2="215.0" stroke="#8BA0D6" stroke-width="1.8" stroke-linecap="round" opacity="0.13"/>
  <line x1="355.3" y1="225.0" x2="404.7" y2="225.0" stroke="#8BA0D6" stroke-width="1.8" stroke-linecap="round" opacity="0.13"/>
  <line x1="355.3" y1="235.0" x2="395.3" y2="235.0" stroke="#8BA0D6" stroke-width="1.8" stroke-linecap="round" opacity="0.31"/>
  <line x1="364.7" y1="245.0" x2="380.0" y2="245.0" stroke="#8BA0D6" stroke-width="1.8" stroke-linecap="round" opacity="0.81"/>
  <line x1="364.7" y1="255.0" x2="380.0" y2="255.0" stroke="#8BA0D6" stroke-width="1.8" stroke-linecap="round" opacity="1.00"/>
  <line x1="355.3" y1="265.0" x2="395.3" y2="265.0" stroke="#E6B800" stroke-width="2.4" stroke-linecap="round" opacity="0.81"/>
  <line x1="355.3" y1="275.0" x2="404.7" y2="275.0" stroke="#E6B800" stroke-width="2.4" stroke-linecap="round" opacity="0.31"/>
  <line x1="364.7" y1="285.0" x2="404.7" y2="285.0" stroke="#E6B800" stroke-width="2.4" stroke-linecap="round" opacity="0.13"/>
  <line x1="380.0" y1="295.0" x2="395.3" y2="295.0" stroke="#E6B800" stroke-width="2.4" stroke-linecap="round" opacity="0.13"/>
  <line x1="380.0" y1="305.0" x2="395.3" y2="305.0" stroke="#E6B800" stroke-width="2.4" stroke-linecap="round" opacity="0.13"/>
  <line x1="364.7" y1="315.0" x2="404.7" y2="315.0" stroke="#E6B800" stroke-width="2.4" stroke-linecap="round" opacity="0.13"/>
  <line x1="355.3" y1="325.0" x2="404.7" y2="325.0" stroke="#E6B800" stroke-width="2.4" stroke-linecap="round" opacity="0.13"/>
  <line x1="355.3" y1="335.0" x2="395.3" y2="335.0" stroke="#E6B800" stroke-width="2.4" stroke-linecap="round" opacity="0.31"/>
  <line x1="364.7" y1="345.0" x2="380.0" y2="345.0" stroke="#E6B800" stroke-width="2.4" stroke-linecap="round" opacity="0.81"/>
  <line x1="364.7" y1="355.0" x2="380.0" y2="355.0" stroke="#E6B800" stroke-width="2.4" stroke-linecap="round" opacity="1.00"/>
  <line x1="355.3" y1="365.0" x2="395.3" y2="365.0" stroke="#E6B800" stroke-width="2.4" stroke-linecap="round" opacity="0.81"/>
  <line x1="355.3" y1="375.0" x2="404.7" y2="375.0" stroke="#E6B800" stroke-width="2.4" stroke-linecap="round" opacity="0.31"/>
  <line x1="364.7" y1="385.0" x2="404.7" y2="385.0" stroke="#E6B800" stroke-width="2.4" stroke-linecap="round" opacity="0.13"/>
  <line x1="380.0" y1="395.0" x2="395.3" y2="395.0" stroke="#E6B800" stroke-width="2.4" stroke-linecap="round" opacity="0.13"/>
  <line x1="380.0" y1="405.0" x2="395.3" y2="405.0" stroke="#8BA0D6" stroke-width="1.8" stroke-linecap="round" opacity="0.13"/>
  <line x1="364.7" y1="415.0" x2="404.7" y2="415.0" stroke="#8BA0D6" stroke-width="1.8" stroke-linecap="round" opacity="0.13"/>
  <line x1="355.3" y1="425.0" x2="404.7" y2="425.0" stroke="#8BA0D6" stroke-width="1.8" stroke-linecap="round" opacity="0.13"/>
  <line x1="355.3" y1="435.0" x2="395.3" y2="435.0" stroke="#8BA0D6" stroke-width="1.8" stroke-linecap="round" opacity="0.31"/>
  <line x1="364.7" y1="445.0" x2="380.0" y2="445.0" stroke="#8BA0D6" stroke-width="1.8" stroke-linecap="round" opacity="0.81"/>
  <line x1="364.7" y1="455.0" x2="380.0" y2="455.0" stroke="#8BA0D6" stroke-width="1.8" stroke-linecap="round" opacity="1.00"/>
  <line x1="355.3" y1="465.0" x2="395.3" y2="465.0" stroke="#8BA0D6" stroke-width="1.8" stroke-linecap="round" opacity="0.81"/>
  <line x1="355.3" y1="475.0" x2="404.7" y2="475.0" stroke="#8BA0D6" stroke-width="1.8" stroke-linecap="round" opacity="0.31"/>
  <line x1="364.7" y1="485.0" x2="404.7" y2="485.0" stroke="#8BA0D6" stroke-width="1.8" stroke-linecap="round" opacity="0.13"/>
  <line x1="380.0" y1="495.0" x2="395.3" y2="495.0" stroke="#8BA0D6" stroke-width="1.8" stroke-linecap="round" opacity="0.13"/>
  <line x1="380.0" y1="505.0" x2="395.3" y2="505.0" stroke="#8BA0D6" stroke-width="1.8" stroke-linecap="round" opacity="0.13"/>
  <line x1="364.7" y1="515.0" x2="404.7" y2="515.0" stroke="#8BA0D6" stroke-width="1.8" stroke-linecap="round" opacity="0.13"/>
  <line x1="355.3" y1="525.0" x2="404.7" y2="525.0" stroke="#8BA0D6" stroke-width="1.8" stroke-linecap="round" opacity="0.13"/>
  <line x1="355.3" y1="535.0" x2="395.3" y2="535.0" stroke="#8BA0D6" stroke-width="1.8" stroke-linecap="round" opacity="0.31"/>
  <line x1="364.7" y1="545.0" x2="380.0" y2="545.0" stroke="#8BA0D6" stroke-width="1.8" stroke-linecap="round" opacity="0.81"/>
  <line x1="364.7" y1="555.0" x2="380.0" y2="555.0" stroke="#8BA0D6" stroke-width="1.8" stroke-linecap="round" opacity="1.00"/>
  <line x1="355.3" y1="565.0" x2="395.3" y2="565.0" stroke="#8BA0D6" stroke-width="1.8" stroke-linecap="round" opacity="0.81"/>
  <path d="M 364.72,55.0 L 361.05,58.0 L 358.05,61.0 L 355.83,64.0 L 354.46,67.0 L 354.00,70.0 L 354.46,73.0 L 355.83,76.0 L 358.05,79.0 L 361.05,82.0 L 364.72,85.0 L 368.93,88.0 L 373.53,91.0 L 378.37,94.0 L 383.26,97.0 L 388.03,100.0 L 388.03,100.0"  fill="none" stroke="#5B6FA8" stroke-width="3.0" stroke-linecap="round" stroke-linejoin="round" opacity="1.0"/>
  <path d="M 380.00,55.0 L 384.87,58.0 L 389.57,61.0 L 393.93,64.0 L 397.80,67.0 L 401.03,70.0 L 403.53,73.0 L 405.18,76.0 L 405.95,79.0 L 405.79,82.0 L 404.73,85.0 L 402.78,88.0 L 400.03,91.0 L 396.57,94.0 L 392.53,97.0 L 388.03,100.0 L 388.03,100.0" fill="none" stroke="#2D3E6B" stroke-width="3.0" stroke-linecap="round" stroke-linejoin="round" opacity="1.0"/>
  <path d="M 388.03,100.0 L 383.26,103.0 L 378.37,106.0 L 373.53,109.0 L 368.93,112.0 L 364.72,115.0 L 361.05,118.0 L 358.05,121.0 L 355.83,124.0 L 354.46,127.0 L 354.00,130.0 L 354.46,133.0 L 355.83,136.0 L 358.05,139.0 L 361.05,142.0 L 364.72,145.0 L 368.93,148.0 L 371.97,150.0"  fill="none" stroke="#2D3E6B" stroke-width="3.0" stroke-linecap="round" stroke-linejoin="round" opacity="1.0"/>
  <path d="M 388.03,100.0 L 392.53,103.0 L 396.57,106.0 L 400.03,109.0 L 402.78,112.0 L 404.73,115.0 L 405.79,118.0 L 405.95,121.0 L 405.18,124.0 L 403.53,127.0 L 401.03,130.0 L 397.80,133.0 L 393.93,136.0 L 389.57,139.0 L 384.87,142.0 L 380.00,145.0 L 375.13,148.0 L 371.97,150.0" fill="none" stroke="#5B6FA8" stroke-width="3.0" stroke-linecap="round" stroke-linejoin="round" opacity="1.0"/>
  <path d="M 371.97,150.0 L 367.47,153.0 L 363.43,156.0 L 359.97,159.0 L 357.22,162.0 L 355.27,165.0 L 354.21,168.0 L 354.05,171.0 L 354.82,174.0 L 356.47,177.0 L 358.97,180.0 L 362.20,183.0 L 366.07,186.0 L 370.43,189.0 L 375.13,192.0 L 380.00,195.0 L 384.87,198.0 L 388.03,200.0"  fill="none" stroke="#5B6FA8" stroke-width="3.0" stroke-linecap="round" stroke-linejoin="round" opacity="1.0"/>
  <path d="M 371.97,150.0 L 376.74,153.0 L 381.63,156.0 L 386.47,159.0 L 391.07,162.0 L 395.28,165.0 L 398.95,168.0 L 401.95,171.0 L 404.17,174.0 L 405.54,177.0 L 406.00,180.0 L 405.54,183.0 L 404.17,186.0 L 401.95,189.0 L 398.95,192.0 L 395.28,195.0 L 391.07,198.0 L 388.03,200.0" fill="none" stroke="#2D3E6B" stroke-width="3.0" stroke-linecap="round" stroke-linejoin="round" opacity="1.0"/>
  <path d="M 388.03,200.0 L 383.26,203.0 L 378.37,206.0 L 373.53,209.0 L 368.93,212.0 L 364.72,215.0 L 361.05,218.0 L 358.05,221.0 L 355.83,224.0 L 354.46,227.0 L 354.00,230.0 L 354.46,233.0 L 355.83,236.0 L 358.05,239.0 L 361.05,242.0 L 364.72,245.0 L 368.93,248.0 L 371.97,250.0"  fill="none" stroke="#2D3E6B" stroke-width="3.0" stroke-linecap="round" stroke-linejoin="round" opacity="1.0"/>
  <path d="M 388.03,200.0 L 392.53,203.0 L 396.57,206.0 L 400.03,209.0 L 402.78,212.0 L 404.73,215.0 L 405.79,218.0 L 405.95,221.0 L 405.18,224.0 L 403.53,227.0 L 401.03,230.0 L 397.80,233.0 L 393.93,236.0 L 389.57,239.0 L 384.87,242.0 L 380.00,245.0 L 375.13,248.0 L 371.97,250.0" fill="none" stroke="#5B6FA8" stroke-width="3.0" stroke-linecap="round" stroke-linejoin="round" opacity="1.0"/>
  <path d="M 371.97,250.0 L 367.47,253.0 L 363.43,256.0 L 359.97,259.0 L 357.22,262.0 L 355.27,265.0 L 354.21,268.0 L 354.05,271.0 L 354.82,274.0 L 356.47,277.0 L 358.97,280.0 L 362.20,283.0 L 366.07,286.0 L 370.43,289.0 L 375.13,292.0 L 380.00,295.0 L 384.87,298.0 L 388.03,300.0"  fill="none" stroke="#B8860B" stroke-width="3.2" stroke-linecap="round" stroke-linejoin="round" opacity="1.0"/>
  <path d="M 371.97,250.0 L 376.74,253.0 L 381.63,256.0 L 386.47,259.0 L 391.07,262.0 L 395.28,265.0 L 398.95,268.0 L 401.95,271.0 L 404.17,274.0 L 405.54,277.0 L 406.00,280.0 L 405.54,283.0 L 404.17,286.0 L 401.95,289.0 L 398.95,292.0 L 395.28,295.0 L 391.07,298.0 L 388.03,300.0" fill="none" stroke="#E6B800" stroke-width="3.2" stroke-linecap="round" stroke-linejoin="round" opacity="1.0"/>
  <path d="M 388.03,300.0 L 383.26,303.0 L 378.37,306.0 L 373.53,309.0 L 368.93,312.0 L 364.72,315.0 L 361.05,318.0 L 358.05,321.0 L 355.83,324.0 L 354.46,327.0 L 354.00,330.0 L 354.46,333.0 L 355.83,336.0 L 358.05,339.0 L 361.05,342.0 L 364.72,345.0 L 368.93,348.0 L 371.97,350.0"  fill="none" stroke="#E6B800" stroke-width="3.2" stroke-linecap="round" stroke-linejoin="round" opacity="1.0"/>
  <path d="M 388.03,300.0 L 392.53,303.0 L 396.57,306.0 L 400.03,309.0 L 402.78,312.0 L 404.73,315.0 L 405.79,318.0 L 405.95,321.0 L 405.18,324.0 L 403.53,327.0 L 401.03,330.0 L 397.80,333.0 L 393.93,336.0 L 389.57,339.0 L 384.87,342.0 L 380.00,345.0 L 375.13,348.0 L 371.97,350.0" fill="none" stroke="#B8860B" stroke-width="3.2" stroke-linecap="round" stroke-linejoin="round" opacity="1.0"/>
  <path d="M 371.97,350.0 L 367.47,353.0 L 363.43,356.0 L 359.97,359.0 L 357.22,362.0 L 355.27,365.0 L 354.21,368.0 L 354.05,371.0 L 354.82,374.0 L 356.47,377.0 L 358.97,380.0 L 362.20,383.0 L 366.07,386.0 L 370.43,389.0 L 375.13,392.0 L 380.00,395.0 L 384.87,398.0 L 388.03,400.0"  fill="none" stroke="#B8860B" stroke-width="3.2" stroke-linecap="round" stroke-linejoin="round" opacity="1.0"/>
  <path d="M 371.97,350.0 L 376.74,353.0 L 381.63,356.0 L 386.47,359.0 L 391.07,362.0 L 395.28,365.0 L 398.95,368.0 L 401.95,371.0 L 404.17,374.0 L 405.54,377.0 L 406.00,380.0 L 405.54,383.0 L 404.17,386.0 L 401.95,389.0 L 398.95,392.0 L 395.28,395.0 L 391.07,398.0 L 388.03,400.0" fill="none" stroke="#E6B800" stroke-width="3.2" stroke-linecap="round" stroke-linejoin="round" opacity="1.0"/>
  <path d="M 388.03,400.0 L 383.26,403.0 L 378.37,406.0 L 373.53,409.0 L 368.93,412.0 L 364.72,415.0 L 361.05,418.0 L 358.05,421.0 L 355.83,424.0 L 354.46,427.0 L 354.00,430.0 L 354.46,433.0 L 355.83,436.0 L 358.05,439.0 L 361.05,442.0 L 364.72,445.0 L 368.93,448.0 L 371.97,450.0"  fill="none" stroke="#2D3E6B" stroke-width="3.0" stroke-linecap="round" stroke-linejoin="round" opacity="1.0"/>
  <path d="M 388.03,400.0 L 392.53,403.0 L 396.57,406.0 L 400.03,409.0 L 402.78,412.0 L 404.73,415.0 L 405.79,418.0 L 405.95,421.0 L 405.18,424.0 L 403.53,427.0 L 401.03,430.0 L 397.80,433.0 L 393.93,436.0 L 389.57,439.0 L 384.87,442.0 L 380.00,445.0 L 375.13,448.0 L 371.97,450.0" fill="none" stroke="#5B6FA8" stroke-width="3.0" stroke-linecap="round" stroke-linejoin="round" opacity="1.0"/>
  <path d="M 371.97,450.0 L 367.47,453.0 L 363.43,456.0 L 359.97,459.0 L 357.22,462.0 L 355.27,465.0 L 354.21,468.0 L 354.05,471.0 L 354.82,474.0 L 356.47,477.0 L 358.97,480.0 L 362.20,483.0 L 366.07,486.0 L 370.43,489.0 L 375.13,492.0 L 380.00,495.0 L 384.87,498.0 L 388.03,500.0"  fill="none" stroke="#5B6FA8" stroke-width="3.0" stroke-linecap="round" stroke-linejoin="round" opacity="1.0"/>
  <path d="M 371.97,450.0 L 376.74,453.0 L 381.63,456.0 L 386.47,459.0 L 391.07,462.0 L 395.28,465.0 L 398.95,468.0 L 401.95,471.0 L 404.17,474.0 L 405.54,477.0 L 406.00,480.0 L 405.54,483.0 L 404.17,486.0 L 401.95,489.0 L 398.95,492.0 L 395.28,495.0 L 391.07,498.0 L 388.03,500.0" fill="none" stroke="#2D3E6B" stroke-width="3.0" stroke-linecap="round" stroke-linejoin="round" opacity="1.0"/>
  <path d="M 388.03,500.0 L 383.26,503.0 L 378.37,506.0 L 373.53,509.0 L 368.93,512.0 L 364.72,515.0 L 361.05,518.0 L 358.05,521.0 L 355.83,524.0 L 354.46,527.0 L 354.00,530.0 L 354.46,533.0 L 355.83,536.0 L 358.05,539.0 L 361.05,542.0 L 364.72,545.0 L 368.93,548.0 L 371.97,550.0"  fill="none" stroke="#2D3E6B" stroke-width="3.0" stroke-linecap="round" stroke-linejoin="round" opacity="1.0"/>
  <path d="M 388.03,500.0 L 392.53,503.0 L 396.57,506.0 L 400.03,509.0 L 402.78,512.0 L 404.73,515.0 L 405.79,518.0 L 405.95,521.0 L 405.18,524.0 L 403.53,527.0 L 401.03,530.0 L 397.80,533.0 L 393.93,536.0 L 389.57,539.0 L 384.87,542.0 L 380.00,545.0 L 375.13,548.0 L 371.97,550.0" fill="none" stroke="#5B6FA8" stroke-width="3.0" stroke-linecap="round" stroke-linejoin="round" opacity="1.0"/>
  <path d="M 371.97,550.0 L 367.47,553.0 L 363.43,556.0 L 359.97,559.0 L 357.22,562.0 L 355.27,565.0 L 355.27,565.0"  fill="none" stroke="#5B6FA8" stroke-width="3.0" stroke-linecap="round" stroke-linejoin="round" opacity="1.0"/>
  <path d="M 371.97,550.0 L 376.74,553.0 L 381.63,556.0 L 386.47,559.0 L 391.07,562.0 L 395.28,565.0 L 395.28,565.0" fill="none" stroke="#2D3E6B" stroke-width="3.0" stroke-linecap="round" stroke-linejoin="round" opacity="1.0"/>
  <rect x="347" y="258" width="66" height="144" rx="4" fill="none" stroke="#E6B800" stroke-width="1.5" stroke-dasharray="5 3" opacity="0.75"/>
  <text x="422" y="295" font-family="Barlow,sans-serif" font-size="11" font-weight="700" fill="#E6B800">CCR5</text>
  <text x="422" y="310" font-family="Inter,sans-serif" font-size="9" fill="#E6B800">target</text>

    <line x1="604.7" y1="55.0" x2="620.0" y2="55.0" stroke="#8BA0D6" stroke-width="1.8" stroke-linecap="round" opacity="1.00"/>
  <line x1="595.3" y1="65.0" x2="635.3" y2="65.0" stroke="#8BA0D6" stroke-width="1.8" stroke-linecap="round" opacity="0.81"/>
  <line x1="595.3" y1="75.0" x2="644.7" y2="75.0" stroke="#8BA0D6" stroke-width="1.8" stroke-linecap="round" opacity="0.31"/>
  <line x1="604.7" y1="85.0" x2="644.7" y2="85.0" stroke="#8BA0D6" stroke-width="1.8" stroke-linecap="round" opacity="0.13"/>
  <line x1="620.0" y1="95.0" x2="635.3" y2="95.0" stroke="#8BA0D6" stroke-width="1.8" stroke-linecap="round" opacity="0.13"/>
  <line x1="620.0" y1="105.0" x2="635.3" y2="105.0" stroke="#8BA0D6" stroke-width="1.8" stroke-linecap="round" opacity="0.13"/>
  <line x1="604.7" y1="115.0" x2="644.7" y2="115.0" stroke="#8BA0D6" stroke-width="1.8" stroke-linecap="round" opacity="0.13"/>
  <line x1="595.3" y1="125.0" x2="644.7" y2="125.0" stroke="#8BA0D6" stroke-width="1.8" stroke-linecap="round" opacity="0.13"/>
  <line x1="595.3" y1="135.0" x2="635.3" y2="135.0" stroke="#8BA0D6" stroke-width="1.8" stroke-linecap="round" opacity="0.31"/>
  <line x1="604.7" y1="145.0" x2="620.0" y2="145.0" stroke="#8BA0D6" stroke-width="1.8" stroke-linecap="round" opacity="0.81"/>
  <line x1="604.7" y1="155.0" x2="620.0" y2="155.0" stroke="#8BA0D6" stroke-width="1.8" stroke-linecap="round" opacity="1.00"/>
  <line x1="595.3" y1="165.0" x2="635.3" y2="165.0" stroke="#8BA0D6" stroke-width="1.8" stroke-linecap="round" opacity="0.81"/>
  <line x1="595.3" y1="175.0" x2="644.7" y2="175.0" stroke="#8BA0D6" stroke-width="1.8" stroke-linecap="round" opacity="0.31"/>
  <line x1="604.7" y1="185.0" x2="644.7" y2="185.0" stroke="#8BA0D6" stroke-width="1.8" stroke-linecap="round" opacity="0.13"/>
  <line x1="620.0" y1="195.0" x2="635.3" y2="195.0" stroke="#8BA0D6" stroke-width="1.8" stroke-linecap="round" opacity="0.13"/>
  <line x1="620.0" y1="205.0" x2="635.3" y2="205.0" stroke="#8BA0D6" stroke-width="1.8" stroke-linecap="round" opacity="0.13"/>
  <line x1="604.7" y1="215.0" x2="644.7" y2="215.0" stroke="#8BA0D6" stroke-width="1.8" stroke-linecap="round" opacity="0.13"/>
  <line x1="595.3" y1="225.0" x2="644.7" y2="225.0" stroke="#8BA0D6" stroke-width="1.8" stroke-linecap="round" opacity="0.13"/>
  <line x1="595.3" y1="235.0" x2="635.3" y2="235.0" stroke="#8BA0D6" stroke-width="1.8" stroke-linecap="round" opacity="0.31"/>
  <line x1="604.7" y1="245.0" x2="620.0" y2="245.0" stroke="#8BA0D6" stroke-width="1.8" stroke-linecap="round" opacity="0.81"/>
  <line x1="604.7" y1="255.0" x2="620.0" y2="255.0" stroke="#8BA0D6" stroke-width="1.8" stroke-linecap="round" opacity="1.00"/>
  <line x1="595.3" y1="265.0" x2="635.3" y2="265.0" stroke="#8BA0D6" stroke-width="1.8" stroke-linecap="round" opacity="0.81"/>
  <line x1="595.3" y1="275.0" x2="644.7" y2="275.0" stroke="#8BA0D6" stroke-width="1.8" stroke-linecap="round" opacity="0.31"/>
  <line x1="604.7" y1="385.0" x2="644.7" y2="385.0" stroke="#8BA0D6" stroke-width="1.8" stroke-linecap="round" opacity="0.13"/>
  <line x1="620.0" y1="395.0" x2="635.3" y2="395.0" stroke="#8BA0D6" stroke-width="1.8" stroke-linecap="round" opacity="0.13"/>
  <line x1="620.0" y1="405.0" x2="635.3" y2="405.0" stroke="#8BA0D6" stroke-width="1.8" stroke-linecap="round" opacity="0.13"/>
  <line x1="604.7" y1="415.0" x2="644.7" y2="415.0" stroke="#8BA0D6" stroke-width="1.8" stroke-linecap="round" opacity="0.13"/>
  <line x1="595.3" y1="425.0" x2="644.7" y2="425.0" stroke="#8BA0D6" stroke-width="1.8" stroke-linecap="round" opacity="0.13"/>
  <line x1="595.3" y1="435.0" x2="635.3" y2="435.0" stroke="#8BA0D6" stroke-width="1.8" stroke-linecap="round" opacity="0.31"/>
  <line x1="604.7" y1="445.0" x2="620.0" y2="445.0" stroke="#8BA0D6" stroke-width="1.8" stroke-linecap="round" opacity="0.81"/>
  <line x1="604.7" y1="455.0" x2="620.0" y2="455.0" stroke="#8BA0D6" stroke-width="1.8" stroke-linecap="round" opacity="1.00"/>
  <line x1="595.3" y1="465.0" x2="635.3" y2="465.0" stroke="#8BA0D6" stroke-width="1.8" stroke-linecap="round" opacity="0.81"/>
  <line x1="595.3" y1="475.0" x2="644.7" y2="475.0" stroke="#8BA0D6" stroke-width="1.8" stroke-linecap="round" opacity="0.31"/>
  <line x1="604.7" y1="485.0" x2="644.7" y2="485.0" stroke="#8BA0D6" stroke-width="1.8" stroke-linecap="round" opacity="0.13"/>
  <line x1="620.0" y1="495.0" x2="635.3" y2="495.0" stroke="#8BA0D6" stroke-width="1.8" stroke-linecap="round" opacity="0.13"/>
  <line x1="620.0" y1="505.0" x2="635.3" y2="505.0" stroke="#8BA0D6" stroke-width="1.8" stroke-linecap="round" opacity="0.13"/>
  <line x1="604.7" y1="515.0" x2="644.7" y2="515.0" stroke="#8BA0D6" stroke-width="1.8" stroke-linecap="round" opacity="0.13"/>
  <line x1="595.3" y1="525.0" x2="644.7" y2="525.0" stroke="#8BA0D6" stroke-width="1.8" stroke-linecap="round" opacity="0.13"/>
  <line x1="595.3" y1="535.0" x2="635.3" y2="535.0" stroke="#8BA0D6" stroke-width="1.8" stroke-linecap="round" opacity="0.31"/>
  <line x1="604.7" y1="545.0" x2="620.0" y2="545.0" stroke="#8BA0D6" stroke-width="1.8" stroke-linecap="round" opacity="0.81"/>
  <line x1="604.7" y1="555.0" x2="620.0" y2="555.0" stroke="#8BA0D6" stroke-width="1.8" stroke-linecap="round" opacity="1.00"/>
  <line x1="595.3" y1="565.0" x2="635.3" y2="565.0" stroke="#8BA0D6" stroke-width="1.8" stroke-linecap="round" opacity="0.81"/>
  <path d="M 604.72,55.0 L 601.05,58.0 L 598.05,61.0 L 595.83,64.0 L 594.46,67.0 L 594.00,70.0 L 594.46,73.0 L 595.83,76.0 L 598.05,79.0 L 601.05,82.0 L 604.72,85.0 L 608.93,88.0 L 613.53,91.0 L 618.37,94.0 L 623.26,97.0 L 628.03,100.0 L 628.03,100.0"  fill="none" stroke="#5B6FA8" stroke-width="3.0" stroke-linecap="round" stroke-linejoin="round" opacity="1.0"/>
  <path d="M 620.00,55.0 L 624.87,58.0 L 629.57,61.0 L 633.93,64.0 L 637.80,67.0 L 641.03,70.0 L 643.53,73.0 L 645.18,76.0 L 645.95,79.0 L 645.79,82.0 L 644.73,85.0 L 642.78,88.0 L 640.03,91.0 L 636.57,94.0 L 632.53,97.0 L 628.03,100.0 L 628.03,100.0" fill="none" stroke="#2D3E6B" stroke-width="3.0" stroke-linecap="round" stroke-linejoin="round" opacity="1.0"/>
  <path d="M 628.03,100.0 L 623.26,103.0 L 618.37,106.0 L 613.53,109.0 L 608.93,112.0 L 604.72,115.0 L 601.05,118.0 L 598.05,121.0 L 595.83,124.0 L 594.46,127.0 L 594.00,130.0 L 594.46,133.0 L 595.83,136.0 L 598.05,139.0 L 601.05,142.0 L 604.72,145.0 L 608.93,148.0 L 611.97,150.0"  fill="none" stroke="#2D3E6B" stroke-width="3.0" stroke-linecap="round" stroke-linejoin="round" opacity="1.0"/>
  <path d="M 628.03,100.0 L 632.53,103.0 L 636.57,106.0 L 640.03,109.0 L 642.78,112.0 L 644.73,115.0 L 645.79,118.0 L 645.95,121.0 L 645.18,124.0 L 643.53,127.0 L 641.03,130.0 L 637.80,133.0 L 633.93,136.0 L 629.57,139.0 L 624.87,142.0 L 620.00,145.0 L 615.13,148.0 L 611.97,150.0" fill="none" stroke="#5B6FA8" stroke-width="3.0" stroke-linecap="round" stroke-linejoin="round" opacity="1.0"/>
  <path d="M 611.97,150.0 L 607.47,153.0 L 603.43,156.0 L 599.97,159.0 L 597.22,162.0 L 595.27,165.0 L 594.21,168.0 L 594.05,171.0 L 594.82,174.0 L 596.47,177.0 L 598.97,180.0 L 602.20,183.0 L 606.07,186.0 L 610.43,189.0 L 615.13,192.0 L 620.00,195.0 L 624.87,198.0 L 628.03,200.0"  fill="none" stroke="#5B6FA8" stroke-width="3.0" stroke-linecap="round" stroke-linejoin="round" opacity="1.0"/>
  <path d="M 611.97,150.0 L 616.74,153.0 L 621.63,156.0 L 626.47,159.0 L 631.07,162.0 L 635.28,165.0 L 638.95,168.0 L 641.95,171.0 L 644.17,174.0 L 645.54,177.0 L 646.00,180.0 L 645.54,183.0 L 644.17,186.0 L 641.95,189.0 L 638.95,192.0 L 635.28,195.0 L 631.07,198.0 L 628.03,200.0" fill="none" stroke="#2D3E6B" stroke-width="3.0" stroke-linecap="round" stroke-linejoin="round" opacity="1.0"/>
  <path d="M 628.03,200.0 L 623.26,203.0 L 618.37,206.0 L 613.53,209.0 L 608.93,212.0 L 604.72,215.0 L 601.05,218.0 L 598.05,221.0 L 595.83,224.0 L 594.46,227.0 L 594.00,230.0 L 594.46,233.0 L 595.83,236.0 L 598.05,239.0 L 601.05,242.0 L 604.72,245.0 L 608.93,248.0 L 611.97,250.0"  fill="none" stroke="#2D3E6B" stroke-width="3.0" stroke-linecap="round" stroke-linejoin="round" opacity="1.0"/>
  <path d="M 628.03,200.0 L 632.53,203.0 L 636.57,206.0 L 640.03,209.0 L 642.78,212.0 L 644.73,215.0 L 645.79,218.0 L 645.95,221.0 L 645.18,224.0 L 643.53,227.0 L 641.03,230.0 L 637.80,233.0 L 633.93,236.0 L 629.57,239.0 L 624.87,242.0 L 620.00,245.0 L 615.13,248.0 L 611.97,250.0" fill="none" stroke="#5B6FA8" stroke-width="3.0" stroke-linecap="round" stroke-linejoin="round" opacity="1.0"/>
  <path d="M 611.97,250.0 L 607.47,253.0 L 603.43,256.0 L 599.97,259.0 L 597.22,262.0 L 595.27,265.0 L 594.21,268.0 L 594.05,271.0 L 594.82,274.0 L 596.47,277.0 L 598.97,280.0 L 602.20,283.0 L 604.72,285.0"  fill="none" stroke="#5B6FA8" stroke-width="3.0" stroke-linecap="round" stroke-linejoin="round" opacity="1.0"/>
  <path d="M 611.97,250.0 L 616.74,253.0 L 621.63,256.0 L 626.47,259.0 L 631.07,262.0 L 635.28,265.0 L 638.95,268.0 L 641.95,271.0 L 644.17,274.0 L 645.54,277.0 L 646.00,280.0 L 645.54,283.0 L 644.73,285.0" fill="none" stroke="#2D3E6B" stroke-width="3.0" stroke-linecap="round" stroke-linejoin="round" opacity="1.0"/>
  <path d="M 595.27,375.0 L 597.22,378.0 L 599.97,381.0 L 603.43,384.0 L 607.47,387.0 L 611.97,390.0 L 616.74,393.0 L 621.63,396.0 L 626.47,399.0 L 628.03,400.0"  fill="none" stroke="#5B6FA8" stroke-width="3.0" stroke-linecap="round" stroke-linejoin="round" opacity="1.0"/>
  <path d="M 644.73,375.0 L 645.79,378.0 L 645.95,381.0 L 645.18,384.0 L 643.53,387.0 L 641.03,390.0 L 637.80,393.0 L 633.93,396.0 L 629.57,399.0 L 628.03,400.0" fill="none" stroke="#2D3E6B" stroke-width="3.0" stroke-linecap="round" stroke-linejoin="round" opacity="1.0"/>
  <path d="M 628.03,400.0 L 623.26,403.0 L 618.37,406.0 L 613.53,409.0 L 608.93,412.0 L 604.72,415.0 L 601.05,418.0 L 598.05,421.0 L 595.83,424.0 L 594.46,427.0 L 594.00,430.0 L 594.46,433.0 L 595.83,436.0 L 598.05,439.0 L 601.05,442.0 L 604.72,445.0 L 608.93,448.0 L 611.97,450.0"  fill="none" stroke="#2D3E6B" stroke-width="3.0" stroke-linecap="round" stroke-linejoin="round" opacity="1.0"/>
  <path d="M 628.03,400.0 L 632.53,403.0 L 636.57,406.0 L 640.03,409.0 L 642.78,412.0 L 644.73,415.0 L 645.79,418.0 L 645.95,421.0 L 645.18,424.0 L 643.53,427.0 L 641.03,430.0 L 637.80,433.0 L 633.93,436.0 L 629.57,439.0 L 624.87,442.0 L 620.00,445.0 L 615.13,448.0 L 611.97,450.0" fill="none" stroke="#5B6FA8" stroke-width="3.0" stroke-linecap="round" stroke-linejoin="round" opacity="1.0"/>
  <path d="M 611.97,450.0 L 607.47,453.0 L 603.43,456.0 L 599.97,459.0 L 597.22,462.0 L 595.27,465.0 L 594.21,468.0 L 594.05,471.0 L 594.82,474.0 L 596.47,477.0 L 598.97,480.0 L 602.20,483.0 L 606.07,486.0 L 610.43,489.0 L 615.13,492.0 L 620.00,495.0 L 624.87,498.0 L 628.03,500.0"  fill="none" stroke="#5B6FA8" stroke-width="3.0" stroke-linecap="round" stroke-linejoin="round" opacity="1.0"/>
  <path d="M 611.97,450.0 L 616.74,453.0 L 621.63,456.0 L 626.47,459.0 L 631.07,462.0 L 635.28,465.0 L 638.95,468.0 L 641.95,471.0 L 644.17,474.0 L 645.54,477.0 L 646.00,480.0 L 645.54,483.0 L 644.17,486.0 L 641.95,489.0 L 638.95,492.0 L 635.28,495.0 L 631.07,498.0 L 628.03,500.0" fill="none" stroke="#2D3E6B" stroke-width="3.0" stroke-linecap="round" stroke-linejoin="round" opacity="1.0"/>
  <path d="M 628.03,500.0 L 623.26,503.0 L 618.37,506.0 L 613.53,509.0 L 608.93,512.0 L 604.72,515.0 L 601.05,518.0 L 598.05,521.0 L 595.83,524.0 L 594.46,527.0 L 594.00,530.0 L 594.46,533.0 L 595.83,536.0 L 598.05,539.0 L 601.05,542.0 L 604.72,545.0 L 608.93,548.0 L 611.97,550.0"  fill="none" stroke="#2D3E6B" stroke-width="3.0" stroke-linecap="round" stroke-linejoin="round" opacity="1.0"/>
  <path d="M 628.03,500.0 L 632.53,503.0 L 636.57,506.0 L 640.03,509.0 L 642.78,512.0 L 644.73,515.0 L 645.79,518.0 L 645.95,521.0 L 645.18,524.0 L 643.53,527.0 L 641.03,530.0 L 637.80,533.0 L 633.93,536.0 L 629.57,539.0 L 624.87,542.0 L 620.00,545.0 L 615.13,548.0 L 611.97,550.0" fill="none" stroke="#5B6FA8" stroke-width="3.0" stroke-linecap="round" stroke-linejoin="round" opacity="1.0"/>
  <path d="M 611.97,550.0 L 607.47,553.0 L 603.43,556.0 L 599.97,559.0 L 597.22,562.0 L 595.27,565.0 L 595.27,565.0"  fill="none" stroke="#5B6FA8" stroke-width="3.0" stroke-linecap="round" stroke-linejoin="round" opacity="1.0"/>
  <path d="M 611.97,550.0 L 616.74,553.0 L 621.63,556.0 L 626.47,559.0 L 631.07,562.0 L 635.28,565.0 L 635.28,565.0" fill="none" stroke="#2D3E6B" stroke-width="3.0" stroke-linecap="round" stroke-linejoin="round" opacity="1.0"/>
  <path d="M 620 285 Q 606 292 599 288" fill="none" stroke="#CA1E08" stroke-width="2.5" stroke-linecap="round"/>
  <path d="M 620 285 Q 634 292 641 288" fill="none" stroke="#CA1E08" stroke-width="2.5" stroke-linecap="round"/>
  <path d="M 599 378 Q 606 372 620 375" fill="none" stroke="#CA1E08" stroke-width="2.5" stroke-linecap="round"/>
  <path d="M 641 378 Q 634 372 620 375" fill="none" stroke="#CA1E08" stroke-width="2.5" stroke-linecap="round"/>
  <line x1="608" y1="328" x2="632" y2="328" stroke="#CA1E08" stroke-width="1.5" stroke-dasharray="4 3" opacity="0.7"/>
  <text x="620" y="344" font-family="Inter,sans-serif" font-size="11" fill="#CA1E08" text-anchor="middle">Δ32 bp</text>

  <line x1="536" y1="556" x2="550" y2="556" stroke="#2D3E6B" stroke-width="3.5" stroke-linecap="round"/>
  <text x="555" y="560" font-family="Inter,sans-serif" font-size="10" fill="#A8A8B5">Strand A — Navy Vintage</text>
  <line x1="536" y1="572" x2="550" y2="572" stroke="#5B6FA8" stroke-width="3.5" stroke-linecap="round"/>
  <text x="555" y="576" font-family="Inter,sans-serif" font-size="10" fill="#A8A8B5">Strand B — Slate Blue</text>
  <line x1="536" y1="588" x2="550" y2="588" stroke="#8BA0D6" stroke-width="2" stroke-linecap="round" opacity="0.7"/>
  <text x="555" y="592" font-family="Inter,sans-serif" font-size="10" fill="#A8A8B5">Base pairs — Periwinkle, variable opacity</text>
</svg>
