<svg xmlns="http://www.w3.org/2000/svg" viewBox="0 0 800 600" width="800" height="600">
<!--
  AWW DNA HELIX SPEC v3  —  B-DNA accurate
  ==========================================
  hw=26px  P=100px/turn  10 bp/turn  (10px/bp)
  Strand B phase offset = 216 deg  (major groove = 6 bp, minor groove = 4 bp)
  Strands drawn as polyline (step=3px) — perfectly smooth.
  Rungs connect exact strand x-positions at each bp, fade on back face.
-->
  <rect width="800" height="600" fill="#1C1E35"/>

  <text x="400" y="24" font-family="Barlow,sans-serif" font-size="12" font-weight="700"
        fill="#6B6B7C" text-anchor="middle" letter-spacing="0.14em">AWW DNA HELIX SPEC v3 — B-DNA · 10 bp/turn · major + minor groove</text>

  <!-- ═══ PANEL LABELS ═══ -->
  <text x="140" y="44" font-family="Barlow,sans-serif" font-size="11" fill="#A8A8B5" text-anchor="middle">Standard</text>
  <text x="380" y="44" font-family="Barlow,sans-serif" font-size="11" fill="#A8A8B5" text-anchor="middle">Highlighted region</text>
  <text x="620" y="44" font-family="Barlow,sans-serif" font-size="11" fill="#A8A8B5" text-anchor="middle">CRISPR cut site</text>

  <!-- panel dividers -->
  <line x1="260" y1="40" x2="260" y2="580" stroke="#3D3D52" stroke-width="1"/>
  <line x1="500" y1="40" x2="500" y2="580" stroke="#3D3D52" stroke-width="1"/>

  <!-- ═══ PANEL 1 ═══ -->
  <line x1="124.7" y1="55.0" x2="140.0" y2="55.0" stroke="#8BA0D6" stroke-width="1.8" stroke-linecap="round" opacity="1.00"/>
  <line x1="115.3" y1="65.0" x2="155.3" y2="65.0" stroke="#8BA0D6" stroke-width="1.8" stroke-linecap="round" opacity="0.81"/>
  <line x1="115.3" y1="75.0" x2="164.7" y2="75.0" stroke="#8BA0D6" stroke-width="1.8" stroke-linecap="round" opacity="0.31"/>
  <line x1="124.7" y1="85.0" x2="164.7" y2="85.0" stroke="#8BA0D6" stroke-width="1.8" stroke-linecap="round" opacity="0.13"/>
  <line x1="140.0" y1="95.0" x2="155.3" y2="95.0" stroke="#8BA0D6" stroke-width="1.8" stroke-linecap="round" opacity="0.13"/>
  <line x1="140.0" y1="105.0" x2="155.3" y2="105.0" stroke="#8BA0D6" stroke-width="1.8" stroke-linecap="round" opacity="0.13"/>
  <line x1="124.7" y1="115.0" x2="164.7" y2="115.0" stroke="#8BA0D6" stroke-width="1.8" stroke-linecap="round" opacity="0.13"/>
  <line x1="115.3" y1="125.0" x2="164.7" y2="125.0" stroke="#8BA0D6" stroke-width="1.8" stroke-linecap="round" opacity="0.13"/>
  <line x1="115.3" y1="135.0" x2="155.3" y2="135.0" stroke="#8BA0D6" stroke-width="1.8" stroke-linecap="round" opacity="0.31"/>
  <line x1="124.7" y1="145.0" x2="140.0" y2="145.0" stroke="#8BA0D6" stroke-width="1.8" stroke-linecap="round" opacity="0.81"/>
  <line x1="124.7" y1="155.0" x2="140.0" y2="155.0" stroke="#8BA0D6" stroke-width="1.8" stroke-linecap="round" opacity="1.00"/>
  <line x1="115.3" y1="165.0" x2="155.3" y2="165.0" stroke="#8BA0D6" stroke-width="1.8" stroke-linecap="round" opacity="0.81"/>
  <line x1="115.3" y1="175.0" x2="164.7" y2="175.0" stroke="#8BA0D6" stroke-width="1.8" stroke-linecap="round" opacity="0.31"/>
  <line x1="124.7" y1="185.0" x2="164.7" y2="185.0" stroke="#8BA0D6" stroke-width="1.8" stroke-linecap="round" opacity="0.13"/>
  <line x1="140.0" y1="195.0" x2="155.3" y2="195.0" stroke="#8BA0D6" stroke-width="1.8" stroke-linecap="round" opacity="0.13"/>
  <line x1="140.0" y1="205.0" x2="155.3" y2="205.0" stroke="#8BA0D6" stroke-width="1.8" stroke-linecap="round" opacity="0.13"/>
  <line x1="124.7" y1="215.0" x2="164.7" y2="215.0" stroke="#8BA0D6" stroke-width="1.8" stroke-linecap="round" opacity="0.13"/>
  <line x1="115.3" y1="225.0" x2="164.7" y2="225.0" stroke="#8BA0D6" stroke-width="1.8" stroke-linecap="round" opacity="0.13"/>
  <line x1="115.3" y1="235.0" x2="155.3" y2="235.0" stroke="#8BA0D6" stroke-width="1.8" stroke-linecap="round" opacity="0.31"/>
  <line x1="124.7" y1="245.0" x2="140.0" y2="245.0" stroke="#8BA0D6" stroke-width="1.8" stroke-linecap="round" opacity="0.81"/>
  <line x1="124.7" y1="255.0" x2="140.0" y2="255.0" stroke="#8BA0D6" stroke-width="1.8" stroke-linecap="round" opacity="1.00"/>
  <line x1="115.3" y1="265.0" x2="155.3" y2="265.0" stroke="#8BA0D6" stroke-width="1.8" stroke-linecap="round" opacity="0.81"/>
  <line x1="115.3" y1="275.0" x2="164.7" y2="275.0" stroke="#8BA0D6" stroke-width="1.8" stroke-linecap="round" opacity="0.31"/>
  <line x1="124.7" y1="285.0" x2="164.7" y2="285.0" stroke="#8BA0D6" stroke-width="1.8" stroke-linecap="round" opacity="0.13"/>
  <line x1="140.0" y1="295.0" x2="155.3" y2="295.0" stroke="#8BA0D6" stroke-width="1.8" stroke-linecap="round" opacity="0.13"/>
  <line x1="140.0" y1="305.0" x2="155.3" y2="305.0" stroke="#8BA0D6" stroke-width="1.8" stroke-linecap="round" opacity="0.13"/>
  <line x1="124.7" y1="315.0" x2="164.7" y2="315.0" stroke="#8BA0D6" stroke-width="1.8" stroke-linecap="round" opacity="0.13"/>
  <line x1="115.3" y1="325.0" x2="164.7" y2="325.0" stroke="#8BA0D6" stroke-width="1.8" stroke-linecap="round" opacity="0.13"/>
  <line x1="115.3" y1="335.0" x2="155.3" y2="335.0" stroke="#8BA0D6" stroke-width="1.8" stroke-linecap="round" opacity="0.31"/>
  <line x1="124.7" y1="345.0" x2="140.0" y2="345.0" stroke="#8BA0D6" stroke-width="1.8" stroke-linecap="round" opacity="0.81"/>
  <line x1="124.7" y1="355.0" x2="140.0" y2="355.0" stroke="#8BA0D6" stroke-width="1.8" stroke-linecap="round" opacity="1.00"/>
  <line x1="115.3" y1="365.0" x2="155.3" y2="365.0" stroke="#8BA0D6" stroke-width="1.8" stroke-linecap="round" opacity="0.81"/>
  <line x1="115.3" y1="375.0" x2="164.7" y2="375.0" stroke="#8BA0D6" stroke-width="1.8" stroke-linecap="round" opacity="0.31"/>
  <line x1="124.7" y1="385.0" x2="164.7" y2="385.0" stroke="#8BA0D6" stroke-width="1.8" stroke-linecap="round" opacity="0.13"/>
  <line x1="140.0" y1="395.0" x2="155.3" y2="395.0" stroke="#8BA0D6" stroke-width="1.8" stroke-linecap="round" opacity="0.13"/>
  <line x1="140.0" y1="405.0" x2="155.3" y2="405.0" stroke="#8BA0D6" stroke-width="1.8" stroke-linecap="round" opacity="0.13"/>
  <line x1="124.7" y1="415.0" x2="164.7" y2="415.0" stroke="#8BA0D6" stroke-width="1.8" stroke-linecap="round" opacity="0.13"/>
  <line x1="115.3" y1="425.0" x2="164.7" y2="425.0" stroke="#8BA0D6" stroke-width="1.8" stroke-linecap="round" opacity="0.13"/>
  <line x1="115.3" y1="435.0" x2="155.3" y2="435.0" stroke="#8BA0D6" stroke-width="1.8" stroke-linecap="round" opacity="0.31"/>
  <line x1="124.7" y1="445.0" x2="140.0" y2="445.0" stroke="#8BA0D6" stroke-width="1.8" stroke-linecap="round" opacity="0.81"/>
  <line x1="124.7" y1="455.0" x2="140.0" y2="455.0" stroke="#8BA0D6" stroke-width="1.8" stroke-linecap="round" opacity="1.00"/>
  <line x1="115.3" y1="465.0" x2="155.3" y2="465.0" stroke="#8BA0D6" stroke-width="1.8" stroke-linecap="round" opacity="0.81"/>
  <line x1="115.3" y1="475.0" x2="164.7" y2="475.0" stroke="#8BA0D6" stroke-width="1.8" stroke-linecap="round" opacity="0.31"/>
  <line x1="124.7" y1="485.0" x2="164.7" y2="485.0" stroke="#8BA0D6" stroke-width="1.8" stroke-linecap="round" opacity="0.13"/>
  <line x1="140.0" y1="495.0" x2="155.3" y2="495.0" stroke="#8BA0D6" stroke-width="1.8" stroke-linecap="round" opacity="0.13"/>
  <line x1="140.0" y1="505.0" x2="155.3" y2="505.0" stroke="#8BA0D6" stroke-width="1.8" stroke-linecap="round" opacity="0.13"/>
  <line x1="124.7" y1="515.0" x2="164.7" y2="515.0" stroke="#8BA0D6" stroke-width="1.8" stroke-linecap="round" opacity="0.13"/>
  <line x1="115.3" y1="525.0" x2="164.7" y2="525.0" stroke="#8BA0D6" stroke-width="1.8" stroke-linecap="round" opacity="0.13"/>
  <line x1="115.3" y1="535.0" x2="155.3" y2="535.0" stroke="#8BA0D6" stroke-width="1.8" stroke-linecap="round" opacity="0.31"/>
  <line x1="124.7" y1="545.0" x2="140.0" y2="545.0" stroke="#8BA0D6" stroke-width="1.8" stroke-linecap="round" opacity="0.81"/>
  <line x1="124.7" y1="555.0" x2="140.0" y2="555.0" stroke="#8BA0D6" stroke-width="1.8" stroke-linecap="round" opacity="1.00"/>
  <line x1="115.3" y1="565.0" x2="155.3" y2="565.0" stroke="#8BA0D6" stroke-width="1.8" stroke-linecap="round" opacity="0.81"/>
  <path d="M 124.72,55.0 L 121.05,58.0 L 118.05,61.0 L 115.83,64.0 L 114.46,67.0 L 114.00,70.0 L 114.46,73.0 L 115.83,76.0 L 118.05,79.0 L 121.05,82.0 L 124.72,85.0 L 128.93,88.0 L 133.53,91.0 L 138.37,94.0 L 143.26,97.0 L 148.03,100.0 L 148.03,100.0"  fill="none" stroke="#5B6FA8"  stroke-width="3.0" stroke-linecap="round" stroke-linejoin="round" opacity="1.0"/>
  <path d="M 140.00,55.0 L 144.87,58.0 L 149.57,61.0 L 153.93,64.0 L 157.80,67.0 L 161.03,70.0 L 163.53,73.0 L 165.18,76.0 L 165.95,79.0 L 165.79,82.0 L 164.73,85.0 L 162.78,88.0 L 160.03,91.0 L 156.57,94.0 L 152.53,97.0 L 148.03,100.0 L 148.03,100.0" fill="none" stroke="#2D3E6B" stroke-width="3.0" stroke-linecap="round" stroke-linejoin="round" opacity="1.0"/>
  <path d="M 140.00,100.0 L 144.87,103.0 L 149.57,106.0 L 153.93,109.0 L 157.80,112.0 L 161.03,115.0 L 163.53,118.0 L 165.18,121.0 L 165.95,124.0 L 165.79,127.0 L 164.73,130.0 L 162.78,133.0 L 160.03,136.0 L 156.57,139.0 L 152.53,142.0 L 148.03,145.0 L 143.26,148.0 L 140.00,150.0"  fill="none" stroke="#2D3E6B"  stroke-width="3.0" stroke-linecap="round" stroke-linejoin="round" opacity="1.0"/>
  <path d="M 124.72,100.0 L 121.05,103.0 L 118.05,106.0 L 115.83,109.0 L 114.46,112.0 L 114.00,115.0 L 114.46,118.0 L 115.83,121.0 L 118.05,124.0 L 121.05,127.0 L 124.72,130.0 L 128.93,133.0 L 133.53,136.0 L 138.37,139.0 L 143.26,142.0 L 148.03,145.0 L 152.53,148.0 L 155.28,150.0" fill="none" stroke="#5B6FA8" stroke-width="3.0" stroke-linecap="round" stroke-linejoin="round" opacity="1.0"/>
  <path d="M 124.72,150.0 L 121.05,153.0 L 118.05,156.0 L 115.83,159.0 L 114.46,162.0 L 114.00,165.0 L 114.46,168.0 L 115.83,171.0 L 118.05,174.0 L 121.05,177.0 L 124.72,180.0 L 128.93,183.0 L 133.53,186.0 L 138.37,189.0 L 143.26,192.0 L 148.03,195.0 L 152.53,198.0 L 155.28,200.0"  fill="none" stroke="#5B6FA8"  stroke-width="3.0" stroke-linecap="round" stroke-linejoin="round" opacity="1.0"/>
  <path d="M 140.00,150.0 L 144.87,153.0 L 149.57,156.0 L 153.93,159.0 L 157.80,162.0 L 161.03,165.0 L 163.53,168.0 L 165.18,171.0 L 165.95,174.0 L 165.79,177.0 L 164.73,180.0 L 162.78,183.0 L 160.03,186.0 L 156.57,189.0 L 152.53,192.0 L 148.03,195.0 L 143.26,198.0 L 140.00,200.0" fill="none" stroke="#2D3E6B" stroke-width="3.0" stroke-linecap="round" stroke-linejoin="round" opacity="1.0"/>
  <path d="M 140.00,200.0 L 144.87,203.0 L 149.57,206.0 L 153.93,209.0 L 157.80,212.0 L 161.03,215.0 L 163.53,218.0 L 165.18,221.0 L 165.95,224.0 L 165.79,227.0 L 164.73,230.0 L 162.78,233.0 L 160.03,236.0 L 156.57,239.0 L 152.53,242.0 L 148.03,245.0 L 143.26,248.0 L 140.00,250.0"  fill="none" stroke="#2D3E6B"  stroke-width="3.0" stroke-linecap="round" stroke-linejoin="round" opacity="1.0"/>
  <path d="M 124.72,200.0 L 121.05,203.0 L 118.05,206.0 L 115.83,209.0 L 114.46,212.0 L 114.00,215.0 L 114.46,218.0 L 115.83,221.0 L 118.05,224.0 L 121.05,227.0 L 124.72,230.0 L 128.93,233.0 L 133.53,236.0 L 138.37,239.0 L 143.26,242.0 L 148.03,245.0 L 152.53,248.0 L 155.28,250.0" fill="none" stroke="#5B6FA8" stroke-width="3.0" stroke-linecap="round" stroke-linejoin="round" opacity="1.0"/>
  <path d="M 124.72,250.0 L 121.05,253.0 L 118.05,256.0 L 115.83,259.0 L 114.46,262.0 L 114.00,265.0 L 114.46,268.0 L 115.83,271.0 L 118.05,274.0 L 121.05,277.0 L 124.72,280.0 L 128.93,283.0 L 133.53,286.0 L 138.37,289.0 L 143.26,292.0 L 148.03,295.0 L 152.53,298.0 L 155.28,300.0"  fill="none" stroke="#5B6FA8"  stroke-width="3.0" stroke-linecap="round" stroke-linejoin="round" opacity="1.0"/>
  <path d="M 140.00,250.0 L 144.87,253.0 L 149.57,256.0 L 153.93,259.0 L 157.80,262.0 L 161.03,265.0 L 163.53,268.0 L 165.18,271.0 L 165.95,274.0 L 165.79,277.0 L 164.73,280.0 L 162.78,283.0 L 160.03,286.0 L 156.57,289.0 L 152.53,292.0 L 148.03,295.0 L 143.26,298.0 L 140.00,300.0" fill="none" stroke="#2D3E6B" stroke-width="3.0" stroke-linecap="round" stroke-linejoin="round" opacity="1.0"/>
  <path d="M 140.00,300.0 L 144.87,303.0 L 149.57,306.0 L 153.93,309.0 L 157.80,312.0 L 161.03,315.0 L 163.53,318.0 L 165.18,321.0 L 165.95,324.0 L 165.79,327.0 L 164.73,330.0 L 162.78,333.0 L 160.03,336.0 L 156.57,339.0 L 152.53,342.0 L 148.03,345.0 L 143.26,348.0 L 140.00,350.0"  fill="none" stroke="#2D3E6B"  stroke-width="3.0" stroke-linecap="round" stroke-linejoin="round" opacity="1.0"/>
  <path d="M 124.72,300.0 L 121.05,303.0 L 118.05,306.0 L 115.83,309.0 L 114.46,312.0 L 114.00,315.0 L 114.46,318.0 L 115.83,321.0 L 118.05,324.0 L 121.05,327.0 L 124.72,330.0 L 128.93,333.0 L 133.53,336.0 L 138.37,339.0 L 143.26,342.0 L 148.03,345.0 L 152.53,348.0 L 155.28,350.0" fill="none" stroke="#5B6FA8" stroke-width="3.0" stroke-linecap="round" stroke-linejoin="round" opacity="1.0"/>
  <path d="M 124.72,350.0 L 121.05,353.0 L 118.05,356.0 L 115.83,359.0 L 114.46,362.0 L 114.00,365.0 L 114.46,368.0 L 115.83,371.0 L 118.05,374.0 L 121.05,377.0 L 124.72,380.0 L 128.93,383.0 L 133.53,386.0 L 138.37,389.0 L 143.26,392.0 L 148.03,395.0 L 152.53,398.0 L 155.28,400.0"  fill="none" stroke="#5B6FA8"  stroke-width="3.0" stroke-linecap="round" stroke-linejoin="round" opacity="1.0"/>
  <path d="M 140.00,350.0 L 144.87,353.0 L 149.57,356.0 L 153.93,359.0 L 157.80,362.0 L 161.03,365.0 L 163.53,368.0 L 165.18,371.0 L 165.95,374.0 L 165.79,377.0 L 164.73,380.0 L 162.78,383.0 L 160.03,386.0 L 156.57,389.0 L 152.53,392.0 L 148.03,395.0 L 143.26,398.0 L 140.00,400.0" fill="none" stroke="#2D3E6B" stroke-width="3.0" stroke-linecap="round" stroke-linejoin="round" opacity="1.0"/>
  <path d="M 140.00,400.0 L 144.87,403.0 L 149.57,406.0 L 153.93,409.0 L 157.80,412.0 L 161.03,415.0 L 163.53,418.0 L 165.18,421.0 L 165.95,424.0 L 165.79,427.0 L 164.73,430.0 L 162.78,433.0 L 160.03,436.0 L 156.57,439.0 L 152.53,442.0 L 148.03,445.0 L 143.26,448.0 L 140.00,450.0"  fill="none" stroke="#2D3E6B"  stroke-width="3.0" stroke-linecap="round" stroke-linejoin="round" opacity="1.0"/>
  <path d="M 124.72,400.0 L 121.05,403.0 L 118.05,406.0 L 115.83,409.0 L 114.46,412.0 L 114.00,415.0 L 114.46,418.0 L 115.83,421.0 L 118.05,424.0 L 121.05,427.0 L 124.72,430.0 L 128.93,433.0 L 133.53,436.0 L 138.37,439.0 L 143.26,442.0 L 148.03,445.0 L 152.53,448.0 L 155.28,450.0" fill="none" stroke="#5B6FA8" stroke-width="3.0" stroke-linecap="round" stroke-linejoin="round" opacity="1.0"/>
  <path d="M 124.72,450.0 L 121.05,453.0 L 118.05,456.0 L 115.83,459.0 L 114.46,462.0 L 114.00,465.0 L 114.46,468.0 L 115.83,471.0 L 118.05,474.0 L 121.05,477.0 L 124.72,480.0 L 128.93,483.0 L 133.53,486.0 L 138.37,489.0 L 143.26,492.0 L 148.03,495.0 L 152.53,498.0 L 155.28,500.0"  fill="none" stroke="#5B6FA8"  stroke-width="3.0" stroke-linecap="round" stroke-linejoin="round" opacity="1.0"/>
  <path d="M 140.00,450.0 L 144.87,453.0 L 149.57,456.0 L 153.93,459.0 L 157.80,462.0 L 161.03,465.0 L 163.53,468.0 L 165.18,471.0 L 165.95,474.0 L 165.79,477.0 L 164.73,480.0 L 162.78,483.0 L 160.03,486.0 L 156.57,489.0 L 152.53,492.0 L 148.03,495.0 L 143.26,498.0 L 140.00,500.0" fill="none" stroke="#2D3E6B" stroke-width="3.0" stroke-linecap="round" stroke-linejoin="round" opacity="1.0"/>
  <path d="M 140.00,500.0 L 144.87,503.0 L 149.57,506.0 L 153.93,509.0 L 157.80,512.0 L 161.03,515.0 L 163.53,518.0 L 165.18,521.0 L 165.95,524.0 L 165.79,527.0 L 164.73,530.0 L 162.78,533.0 L 160.03,536.0 L 156.57,539.0 L 152.53,542.0 L 148.03,545.0 L 143.26,548.0 L 140.00,550.0"  fill="none" stroke="#2D3E6B"  stroke-width="3.0" stroke-linecap="round" stroke-linejoin="round" opacity="1.0"/>
  <path d="M 124.72,500.0 L 121.05,503.0 L 118.05,506.0 L 115.83,509.0 L 114.46,512.0 L 114.00,515.0 L 114.46,518.0 L 115.83,521.0 L 118.05,524.0 L 121.05,527.0 L 124.72,530.0 L 128.93,533.0 L 133.53,536.0 L 138.37,539.0 L 143.26,542.0 L 148.03,545.0 L 152.53,548.0 L 155.28,550.0" fill="none" stroke="#5B6FA8" stroke-width="3.0" stroke-linecap="round" stroke-linejoin="round" opacity="1.0"/>
  <path d="M 124.72,550.0 L 121.05,553.0 L 118.05,556.0 L 115.83,559.0 L 114.46,562.0 L 114.00,565.0 L 114.00,565.0"  fill="none" stroke="#5B6FA8"  stroke-width="3.0" stroke-linecap="round" stroke-linejoin="round" opacity="1.0"/>
  <path d="M 140.00,550.0 L 144.87,553.0 L 149.57,556.0 L 153.93,559.0 L 157.80,562.0 L 161.03,565.0 L 161.03,565.0" fill="none" stroke="#2D3E6B" stroke-width="3.0" stroke-linecap="round" stroke-linejoin="round" opacity="1.0"/>

  <!-- groove labels -->
  <text x="194" y="198" font-family="Inter,sans-serif" font-size="9" fill="#6B6B7C">major</text>
  <text x="194" y="208" font-family="Inter,sans-serif" font-size="9" fill="#6B6B7C">groove</text>
  <line x1="190" y1="153" x2="190" y2="253" stroke="#6B6B7C" stroke-width="1"/>
  <line x1="186" y1="153" x2="190" y2="153" stroke="#6B6B7C" stroke-width="1"/>
  <line x1="186" y1="253" x2="190" y2="253" stroke="#6B6B7C" stroke-width="1"/>

  <text x="194" y="288" font-family="Inter,sans-serif" font-size="9" fill="#6B6B7C">minor</text>
  <text x="194" y="298" font-family="Inter,sans-serif" font-size="9" fill="#6B6B7C">groove</text>
  <line x1="190" y1="255" x2="190" y2="305" stroke="#6B6B7C" stroke-width="1"/>
  <line x1="186" y1="255" x2="190" y2="255" stroke="#6B6B7C" stroke-width="1"/>
  <line x1="186" y1="305" x2="190" y2="305" stroke="#6B6B7C" stroke-width="1"/>

  <!-- pitch marker -->
  <line x1="88" y1="55"  x2="88" y2="155" stroke="#A8A8B5" stroke-width="1" stroke-dasharray="3 2"/>
  <line x1="84" y1="55"  x2="92" y2="55"  stroke="#A8A8B5" stroke-width="1"/>
  <line x1="84" y1="155" x2="92" y2="155" stroke="#A8A8B5" stroke-width="1"/>
  <text x="54" y="103" font-family="Inter,sans-serif" font-size="9" fill="#A8A8B5" text-anchor="middle">10 bp</text>
  <text x="54" y="114" font-family="Inter,sans-serif" font-size="9" fill="#A8A8B5" text-anchor="middle">= 1 turn</text>

  <!-- ═══ PANEL 2 ═══ -->
  <line x1="364.7" y1="55.0" x2="380.0" y2="55.0" stroke="#8BA0D6" stroke-width="1.8" stroke-linecap="round" opacity="1.00"/>
  <line x1="355.3" y1="65.0" x2="395.3" y2="65.0" stroke="#8BA0D6" stroke-width="1.8" stroke-linecap="round" opacity="0.81"/>
  <line x1="355.3" y1="75.0" x2="404.7" y2="75.0" stroke="#8BA0D6" stroke-width="1.8" stroke-linecap="round" opacity="0.31"/>
  <line x1="364.7" y1="85.0" x2="404.7" y2="85.0" stroke="#8BA0D6" stroke-width="1.8" stroke-linecap="round" opacity="0.13"/>
  <line x1="380.0" y1="95.0" x2="395.3" y2="95.0" stroke="#8BA0D6" stroke-width="1.8" stroke-linecap="round" opacity="0.13"/>
  <line x1="380.0" y1="105.0" x2="395.3" y2="105.0" stroke="#8BA0D6" stroke-width="1.8" stroke-linecap="round" opacity="0.13"/>
  <line x1="364.7" y1="115.0" x2="404.7" y2="115.0" stroke="#8BA0D6" stroke-width="1.8" stroke-linecap="round" opacity="0.13"/>
  <line x1="355.3" y1="125.0" x2="404.7" y2="125.0" stroke="#8BA0D6" stroke-width="1.8" stroke-linecap="round" opacity="0.13"/>
  <line x1="355.3" y1="135.0" x2="395.3" y2="135.0" stroke="#8BA0D6" stroke-width="1.8" stroke-linecap="round" opacity="0.31"/>
  <line x1="364.7" y1="145.0" x2="380.0" y2="145.0" stroke="#8BA0D6" stroke-width="1.8" stroke-linecap="round" opacity="0.81"/>
  <line x1="364.7" y1="155.0" x2="380.0" y2="155.0" stroke="#8BA0D6" stroke-width="1.8" stroke-linecap="round" opacity="1.00"/>
  <line x1="355.3" y1="165.0" x2="395.3" y2="165.0" stroke="#8BA0D6" stroke-width="1.8" stroke-linecap="round" opacity="0.81"/>
  <line x1="355.3" y1="175.0" x2="404.7" y2="175.0" stroke="#8BA0D6" stroke-width="1.8" stroke-linecap="round" opacity="0.31"/>
  <line x1="364.7" y1="185.0" x2="404.7" y2="185.0" stroke="#8BA0D6" stroke-width="1.8" stroke-linecap="round" opacity="0.13"/>
  <line x1="380.0" y1="195.0" x2="395.3" y2="195.0" stroke="#8BA0D6" stroke-width="1.8" stroke-linecap="round" opacity="0.13"/>
  <line x1="380.0" y1="205.0" x2="395.3" y2="205.0" stroke="#8BA0D6" stroke-width="1.8" stroke-linecap="round" opacity="0.13"/>
  <line x1="364.7" y1="215.0" x2="404.7" y2="215.0" stroke="#8BA0D6" stroke-width="1.8" stroke-linecap="round" opacity="0.13"/>
  <line x1="355.3" y1="225.0" x2="404.7" y2="225.0" stroke="#8BA0D6" stroke-width="1.8" stroke-linecap="round" opacity="0.13"/>
  <line x1="355.3" y1="235.0" x2="395.3" y2="235.0" stroke="#8BA0D6" stroke-width="1.8" stroke-linecap="round" opacity="0.31"/>
  <line x1="364.7" y1="245.0" x2="380.0" y2="245.0" stroke="#8BA0D6" stroke-width="1.8" stroke-linecap="round" opacity="0.81"/>
  <line x1="364.7" y1="255.0" x2="380.0" y2="255.0" stroke="#8BA0D6" stroke-width="1.8" stroke-linecap="round" opacity="1.00"/>
  <line x1="355.3" y1="265.0" x2="395.3" y2="265.0" stroke="#E6B800" stroke-width="2.4" stroke-linecap="round" opacity="0.81"/>
  <line x1="355.3" y1="275.0" x2="404.7" y2="275.0" stroke="#E6B800" stroke-width="2.4" stroke-linecap="round" opacity="0.31"/>
  <line x1="364.7" y1="285.0" x2="404.7" y2="285.0" stroke="#E6B800" stroke-width="2.4" stroke-linecap="round" opacity="0.13"/>
  <line x1="380.0" y1="295.0" x2="395.3" y2="295.0" stroke="#E6B800" stroke-width="2.4" stroke-linecap="round" opacity="0.13"/>
  <line x1="380.0" y1="305.0" x2="395.3" y2="305.0" stroke="#E6B800" stroke-width="2.4" stroke-linecap="round" opacity="0.13"/>
  <line x1="364.7" y1="315.0" x2="404.7" y2="315.0" stroke="#E6B800" stroke-width="2.4" stroke-linecap="round" opacity="0.13"/>
  <line x1="355.3" y1="325.0" x2="404.7" y2="325.0" stroke="#E6B800" stroke-width="2.4" stroke-linecap="round" opacity="0.13"/>
  <line x1="355.3" y1="335.0" x2="395.3" y2="335.0" stroke="#E6B800" stroke-width="2.4" stroke-linecap="round" opacity="0.31"/>
  <line x1="364.7" y1="345.0" x2="380.0" y2="345.0" stroke="#E6B800" stroke-width="2.4" stroke-linecap="round" opacity="0.81"/>
  <line x1="364.7" y1="355.0" x2="380.0" y2="355.0" stroke="#E6B800" stroke-width="2.4" stroke-linecap="round" opacity="1.00"/>
  <line x1="355.3" y1="365.0" x2="395.3" y2="365.0" stroke="#E6B800" stroke-width="2.4" stroke-linecap="round" opacity="0.81"/>
  <line x1="355.3" y1="375.0" x2="404.7" y2="375.0" stroke="#E6B800" stroke-width="2.4" stroke-linecap="round" opacity="0.31"/>
  <line x1="364.7" y1="385.0" x2="404.7" y2="385.0" stroke="#E6B800" stroke-width="2.4" stroke-linecap="round" opacity="0.13"/>
  <line x1="380.0" y1="395.0" x2="395.3" y2="395.0" stroke="#E6B800" stroke-width="2.4" stroke-linecap="round" opacity="0.13"/>
  <line x1="380.0" y1="405.0" x2="395.3" y2="405.0" stroke="#8BA0D6" stroke-width="1.8" stroke-linecap="round" opacity="0.13"/>
  <line x1="364.7" y1="415.0" x2="404.7" y2="415.0" stroke="#8BA0D6" stroke-width="1.8" stroke-linecap="round" opacity="0.13"/>
  <line x1="355.3" y1="425.0" x2="404.7" y2="425.0" stroke="#8BA0D6" stroke-width="1.8" stroke-linecap="round" opacity="0.13"/>
  <line x1="355.3" y1="435.0" x2="395.3" y2="435.0" stroke="#8BA0D6" stroke-width="1.8" stroke-linecap="round" opacity="0.31"/>
  <line x1="364.7" y1="445.0" x2="380.0" y2="445.0" stroke="#8BA0D6" stroke-width="1.8" stroke-linecap="round" opacity="0.81"/>
  <line x1="364.7" y1="455.0" x2="380.0" y2="455.0" stroke="#8BA0D6" stroke-width="1.8" stroke-linecap="round" opacity="1.00"/>
  <line x1="355.3" y1="465.0" x2="395.3" y2="465.0" stroke="#8BA0D6" stroke-width="1.8" stroke-linecap="round" opacity="0.81"/>
  <line x1="355.3" y1="475.0" x2="404.7" y2="475.0" stroke="#8BA0D6" stroke-width="1.8" stroke-linecap="round" opacity="0.31"/>
  <line x1="364.7" y1="485.0" x2="404.7" y2="485.0" stroke="#8BA0D6" stroke-width="1.8" stroke-linecap="round" opacity="0.13"/>
  <line x1="380.0" y1="495.0" x2="395.3" y2="495.0" stroke="#8BA0D6" stroke-width="1.8" stroke-linecap="round" opacity="0.13"/>
  <line x1="380.0" y1="505.0" x2="395.3" y2="505.0" stroke="#8BA0D6" stroke-width="1.8" stroke-linecap="round" opacity="0.13"/>
  <line x1="364.7" y1="515.0" x2="404.7" y2="515.0" stroke="#8BA0D6" stroke-width="1.8" stroke-linecap="round" opacity="0.13"/>
  <line x1="355.3" y1="525.0" x2="404.7" y2="525.0" stroke="#8BA0D6" stroke-width="1.8" stroke-linecap="round" opacity="0.13"/>
  <line x1="355.3" y1="535.0" x2="395.3" y2="535.0" stroke="#8BA0D6" stroke-width="1.8" stroke-linecap="round" opacity="0.31"/>
  <line x1="364.7" y1="545.0" x2="380.0" y2="545.0" stroke="#8BA0D6" stroke-width="1.8" stroke-linecap="round" opacity="0.81"/>
  <line x1="364.7" y1="555.0" x2="380.0" y2="555.0" stroke="#8BA0D6" stroke-width="1.8" stroke-linecap="round" opacity="1.00"/>
  <line x1="355.3" y1="565.0" x2="395.3" y2="565.0" stroke="#8BA0D6" stroke-width="1.8" stroke-linecap="round" opacity="0.81"/>
  <path d="M 364.72,55.0 L 361.05,58.0 L 358.05,61.0 L 355.83,64.0 L 354.46,67.0 L 354.00,70.0 L 354.46,73.0 L 355.83,76.0 L 358.05,79.0 L 361.05,82.0 L 364.72,85.0 L 368.93,88.0 L 373.53,91.0 L 378.37,94.0 L 383.26,97.0 L 388.03,100.0 L 388.03,100.0"  fill="none" stroke="#5B6FA8"  stroke-width="3.0" stroke-linecap="round" stroke-linejoin="round" opacity="1.0"/>
  <path d="M 380.00,55.0 L 384.87,58.0 L 389.57,61.0 L 393.93,64.0 L 397.80,67.0 L 401.03,70.0 L 403.53,73.0 L 405.18,76.0 L 405.95,79.0 L 405.79,82.0 L 404.73,85.0 L 402.78,88.0 L 400.03,91.0 L 396.57,94.0 L 392.53,97.0 L 388.03,100.0 L 388.03,100.0" fill="none" stroke="#2D3E6B" stroke-width="3.0" stroke-linecap="round" stroke-linejoin="round" opacity="1.0"/>
  <path d="M 380.00,100.0 L 384.87,103.0 L 389.57,106.0 L 393.93,109.0 L 397.80,112.0 L 401.03,115.0 L 403.53,118.0 L 405.18,121.0 L 405.95,124.0 L 405.79,127.0 L 404.73,130.0 L 402.78,133.0 L 400.03,136.0 L 396.57,139.0 L 392.53,142.0 L 388.03,145.0 L 383.26,148.0 L 380.00,150.0"  fill="none" stroke="#2D3E6B"  stroke-width="3.0" stroke-linecap="round" stroke-linejoin="round" opacity="1.0"/>
  <path d="M 364.72,100.0 L 361.05,103.0 L 358.05,106.0 L 355.83,109.0 L 354.46,112.0 L 354.00,115.0 L 354.46,118.0 L 355.83,121.0 L 358.05,124.0 L 361.05,127.0 L 364.72,130.0 L 368.93,133.0 L 373.53,136.0 L 378.37,139.0 L 383.26,142.0 L 388.03,145.0 L 392.53,148.0 L 395.28,150.0" fill="none" stroke="#5B6FA8" stroke-width="3.0" stroke-linecap="round" stroke-linejoin="round" opacity="1.0"/>
  <path d="M 364.72,150.0 L 361.05,153.0 L 358.05,156.0 L 355.83,159.0 L 354.46,162.0 L 354.00,165.0 L 354.46,168.0 L 355.83,171.0 L 358.05,174.0 L 361.05,177.0 L 364.72,180.0 L 368.93,183.0 L 373.53,186.0 L 378.37,189.0 L 383.26,192.0 L 388.03,195.0 L 392.53,198.0 L 395.28,200.0"  fill="none" stroke="#5B6FA8"  stroke-width="3.0" stroke-linecap="round" stroke-linejoin="round" opacity="1.0"/>
  <path d="M 380.00,150.0 L 384.87,153.0 L 389.57,156.0 L 393.93,159.0 L 397.80,162.0 L 401.03,165.0 L 403.53,168.0 L 405.18,171.0 L 405.95,174.0 L 405.79,177.0 L 404.73,180.0 L 402.78,183.0 L 400.03,186.0 L 396.57,189.0 L 392.53,192.0 L 388.03,195.0 L 383.26,198.0 L 380.00,200.0" fill="none" stroke="#2D3E6B" stroke-width="3.0" stroke-linecap="round" stroke-linejoin="round" opacity="1.0"/>
  <path d="M 380.00,200.0 L 384.87,203.0 L 389.57,206.0 L 393.93,209.0 L 397.80,212.0 L 401.03,215.0 L 403.53,218.0 L 405.18,221.0 L 405.95,224.0 L 405.79,227.0 L 404.73,230.0 L 402.78,233.0 L 400.03,236.0 L 396.57,239.0 L 392.53,242.0 L 388.03,245.0 L 383.26,248.0 L 380.00,250.0"  fill="none" stroke="#2D3E6B"  stroke-width="3.0" stroke-linecap="round" stroke-linejoin="round" opacity="1.0"/>
  <path d="M 364.72,200.0 L 361.05,203.0 L 358.05,206.0 L 355.83,209.0 L 354.46,212.0 L 354.00,215.0 L 354.46,218.0 L 355.83,221.0 L 358.05,224.0 L 361.05,227.0 L 364.72,230.0 L 368.93,233.0 L 373.53,236.0 L 378.37,239.0 L 383.26,242.0 L 388.03,245.0 L 392.53,248.0 L 395.28,250.0" fill="none" stroke="#5B6FA8" stroke-width="3.0" stroke-linecap="round" stroke-linejoin="round" opacity="1.0"/>
  <path d="M 364.72,250.0 L 361.05,253.0 L 358.05,256.0 L 355.83,259.0 L 354.46,262.0 L 354.00,265.0 L 354.46,268.0 L 355.83,271.0 L 358.05,274.0 L 361.05,277.0 L 364.72,280.0 L 368.93,283.0 L 373.53,286.0 L 378.37,289.0 L 383.26,292.0 L 388.03,295.0 L 392.53,298.0 L 395.28,300.0"  fill="none" stroke="#B8860B"  stroke-width="3.2" stroke-linecap="round" stroke-linejoin="round" opacity="1.0"/>
  <path d="M 380.00,250.0 L 384.87,253.0 L 389.57,256.0 L 393.93,259.0 L 397.80,262.0 L 401.03,265.0 L 403.53,268.0 L 405.18,271.0 L 405.95,274.0 L 405.79,277.0 L 404.73,280.0 L 402.78,283.0 L 400.03,286.0 L 396.57,289.0 L 392.53,292.0 L 388.03,295.0 L 383.26,298.0 L 380.00,300.0" fill="none" stroke="#E6B800" stroke-width="3.2" stroke-linecap="round" stroke-linejoin="round" opacity="1.0"/>
  <path d="M 380.00,300.0 L 384.87,303.0 L 389.57,306.0 L 393.93,309.0 L 397.80,312.0 L 401.03,315.0 L 403.53,318.0 L 405.18,321.0 L 405.95,324.0 L 405.79,327.0 L 404.73,330.0 L 402.78,333.0 L 400.03,336.0 L 396.57,339.0 L 392.53,342.0 L 388.03,345.0 L 383.26,348.0 L 380.00,350.0"  fill="none" stroke="#E6B800"  stroke-width="3.2" stroke-linecap="round" stroke-linejoin="round" opacity="1.0"/>
  <path d="M 364.72,300.0 L 361.05,303.0 L 358.05,306.0 L 355.83,309.0 L 354.46,312.0 L 354.00,315.0 L 354.46,318.0 L 355.83,321.0 L 358.05,324.0 L 361.05,327.0 L 364.72,330.0 L 368.93,333.0 L 373.53,336.0 L 378.37,339.0 L 383.26,342.0 L 388.03,345.0 L 392.53,348.0 L 395.28,350.0" fill="none" stroke="#B8860B" stroke-width="3.2" stroke-linecap="round" stroke-linejoin="round" opacity="1.0"/>
  <path d="M 364.72,350.0 L 361.05,353.0 L 358.05,356.0 L 355.83,359.0 L 354.46,362.0 L 354.00,365.0 L 354.46,368.0 L 355.83,371.0 L 358.05,374.0 L 361.05,377.0 L 364.72,380.0 L 368.93,383.0 L 373.53,386.0 L 378.37,389.0 L 383.26,392.0 L 388.03,395.0 L 392.53,398.0 L 395.28,400.0"  fill="none" stroke="#B8860B"  stroke-width="3.2" stroke-linecap="round" stroke-linejoin="round" opacity="1.0"/>
  <path d="M 380.00,350.0 L 384.87,353.0 L 389.57,356.0 L 393.93,359.0 L 397.80,362.0 L 401.03,365.0 L 403.53,368.0 L 405.18,371.0 L 405.95,374.0 L 405.79,377.0 L 404.73,380.0 L 402.78,383.0 L 400.03,386.0 L 396.57,389.0 L 392.53,392.0 L 388.03,395.0 L 383.26,398.0 L 380.00,400.0" fill="none" stroke="#E6B800" stroke-width="3.2" stroke-linecap="round" stroke-linejoin="round" opacity="1.0"/>
  <path d="M 380.00,400.0 L 384.87,403.0 L 389.57,406.0 L 393.93,409.0 L 397.80,412.0 L 401.03,415.0 L 403.53,418.0 L 405.18,421.0 L 405.95,424.0 L 405.79,427.0 L 404.73,430.0 L 402.78,433.0 L 400.03,436.0 L 396.57,439.0 L 392.53,442.0 L 388.03,445.0 L 383.26,448.0 L 380.00,450.0"  fill="none" stroke="#2D3E6B"  stroke-width="3.0" stroke-linecap="round" stroke-linejoin="round" opacity="1.0"/>
  <path d="M 364.72,400.0 L 361.05,403.0 L 358.05,406.0 L 355.83,409.0 L 354.46,412.0 L 354.00,415.0 L 354.46,418.0 L 355.83,421.0 L 358.05,424.0 L 361.05,427.0 L 364.72,430.0 L 368.93,433.0 L 373.53,436.0 L 378.37,439.0 L 383.26,442.0 L 388.03,445.0 L 392.53,448.0 L 395.28,450.0" fill="none" stroke="#5B6FA8" stroke-width="3.0" stroke-linecap="round" stroke-linejoin="round" opacity="1.0"/>
  <path d="M 364.72,450.0 L 361.05,453.0 L 358.05,456.0 L 355.83,459.0 L 354.46,462.0 L 354.00,465.0 L 354.46,468.0 L 355.83,471.0 L 358.05,474.0 L 361.05,477.0 L 364.72,480.0 L 368.93,483.0 L 373.53,486.0 L 378.37,489.0 L 383.26,492.0 L 388.03,495.0 L 392.53,498.0 L 395.28,500.0"  fill="none" stroke="#5B6FA8"  stroke-width="3.0" stroke-linecap="round" stroke-linejoin="round" opacity="1.0"/>
  <path d="M 380.00,450.0 L 384.87,453.0 L 389.57,456.0 L 393.93,459.0 L 397.80,462.0 L 401.03,465.0 L 403.53,468.0 L 405.18,471.0 L 405.95,474.0 L 405.79,477.0 L 404.73,480.0 L 402.78,483.0 L 400.03,486.0 L 396.57,489.0 L 392.53,492.0 L 388.03,495.0 L 383.26,498.0 L 380.00,500.0" fill="none" stroke="#2D3E6B" stroke-width="3.0" stroke-linecap="round" stroke-linejoin="round" opacity="1.0"/>
  <path d="M 380.00,500.0 L 384.87,503.0 L 389.57,506.0 L 393.93,509.0 L 397.80,512.0 L 401.03,515.0 L 403.53,518.0 L 405.18,521.0 L 405.95,524.0 L 405.79,527.0 L 404.73,530.0 L 402.78,533.0 L 400.03,536.0 L 396.57,539.0 L 392.53,542.0 L 388.03,545.0 L 383.26,548.0 L 380.00,550.0"  fill="none" stroke="#2D3E6B"  stroke-width="3.0" stroke-linecap="round" stroke-linejoin="round" opacity="1.0"/>
  <path d="M 364.72,500.0 L 361.05,503.0 L 358.05,506.0 L 355.83,509.0 L 354.46,512.0 L 354.00,515.0 L 354.46,518.0 L 355.83,521.0 L 358.05,524.0 L 361.05,527.0 L 364.72,530.0 L 368.93,533.0 L 373.53,536.0 L 378.37,539.0 L 383.26,542.0 L 388.03,545.0 L 392.53,548.0 L 395.28,550.0" fill="none" stroke="#5B6FA8" stroke-width="3.0" stroke-linecap="round" stroke-linejoin="round" opacity="1.0"/>
  <path d="M 364.72,550.0 L 361.05,553.0 L 358.05,556.0 L 355.83,559.0 L 354.46,562.0 L 354.00,565.0 L 354.00,565.0"  fill="none" stroke="#5B6FA8"  stroke-width="3.0" stroke-linecap="round" stroke-linejoin="round" opacity="1.0"/>
  <path d="M 380.00,550.0 L 384.87,553.0 L 389.57,556.0 L 393.93,559.0 L 397.80,562.0 L 401.03,565.0 L 401.03,565.0" fill="none" stroke="#2D3E6B" stroke-width="3.0" stroke-linecap="round" stroke-linejoin="round" opacity="1.0"/>
  <rect x="347" y="258" width="66" height="144" rx="4" fill="none" stroke="#E6B800" stroke-width="1.5" stroke-dasharray="5 3" opacity="0.75"/>
  <text x="422" y="295" font-family="Barlow,sans-serif" font-size="11" font-weight="700" fill="#E6B800">CCR5</text>
  <text x="422" y="310" font-family="Inter,sans-serif" font-size="9" fill="#E6B800">13 bp</text>
  <text x="422" y="322" font-family="Inter,sans-serif" font-size="9" fill="#E6B800">target</text>

  <!-- ═══ PANEL 3 ═══ -->
  <line x1="604.7" y1="55.0" x2="620.0" y2="55.0" stroke="#8BA0D6" stroke-width="1.8" stroke-linecap="round" opacity="1.00"/>
  <line x1="595.3" y1="65.0" x2="635.3" y2="65.0" stroke="#8BA0D6" stroke-width="1.8" stroke-linecap="round" opacity="0.81"/>
  <line x1="595.3" y1="75.0" x2="644.7" y2="75.0" stroke="#8BA0D6" stroke-width="1.8" stroke-linecap="round" opacity="0.31"/>
  <line x1="604.7" y1="85.0" x2="644.7" y2="85.0" stroke="#8BA0D6" stroke-width="1.8" stroke-linecap="round" opacity="0.13"/>
  <line x1="620.0" y1="95.0" x2="635.3" y2="95.0" stroke="#8BA0D6" stroke-width="1.8" stroke-linecap="round" opacity="0.13"/>
  <line x1="620.0" y1="105.0" x2="635.3" y2="105.0" stroke="#8BA0D6" stroke-width="1.8" stroke-linecap="round" opacity="0.13"/>
  <line x1="604.7" y1="115.0" x2="644.7" y2="115.0" stroke="#8BA0D6" stroke-width="1.8" stroke-linecap="round" opacity="0.13"/>
  <line x1="595.3" y1="125.0" x2="644.7" y2="125.0" stroke="#8BA0D6" stroke-width="1.8" stroke-linecap="round" opacity="0.13"/>
  <line x1="595.3" y1="135.0" x2="635.3" y2="135.0" stroke="#8BA0D6" stroke-width="1.8" stroke-linecap="round" opacity="0.31"/>
  <line x1="604.7" y1="145.0" x2="620.0" y2="145.0" stroke="#8BA0D6" stroke-width="1.8" stroke-linecap="round" opacity="0.81"/>
  <line x1="604.7" y1="155.0" x2="620.0" y2="155.0" stroke="#8BA0D6" stroke-width="1.8" stroke-linecap="round" opacity="1.00"/>
  <line x1="595.3" y1="165.0" x2="635.3" y2="165.0" stroke="#8BA0D6" stroke-width="1.8" stroke-linecap="round" opacity="0.81"/>
  <line x1="595.3" y1="175.0" x2="644.7" y2="175.0" stroke="#8BA0D6" stroke-width="1.8" stroke-linecap="round" opacity="0.31"/>
  <line x1="604.7" y1="185.0" x2="644.7" y2="185.0" stroke="#8BA0D6" stroke-width="1.8" stroke-linecap="round" opacity="0.13"/>
  <line x1="620.0" y1="195.0" x2="635.3" y2="195.0" stroke="#8BA0D6" stroke-width="1.8" stroke-linecap="round" opacity="0.13"/>
  <line x1="620.0" y1="205.0" x2="635.3" y2="205.0" stroke="#8BA0D6" stroke-width="1.8" stroke-linecap="round" opacity="0.13"/>
  <line x1="604.7" y1="215.0" x2="644.7" y2="215.0" stroke="#8BA0D6" stroke-width="1.8" stroke-linecap="round" opacity="0.13"/>
  <line x1="595.3" y1="225.0" x2="644.7" y2="225.0" stroke="#8BA0D6" stroke-width="1.8" stroke-linecap="round" opacity="0.13"/>
  <line x1="595.3" y1="235.0" x2="635.3" y2="235.0" stroke="#8BA0D6" stroke-width="1.8" stroke-linecap="round" opacity="0.31"/>
  <line x1="604.7" y1="245.0" x2="620.0" y2="245.0" stroke="#8BA0D6" stroke-width="1.8" stroke-linecap="round" opacity="0.81"/>
  <line x1="604.7" y1="255.0" x2="620.0" y2="255.0" stroke="#8BA0D6" stroke-width="1.8" stroke-linecap="round" opacity="1.00"/>
  <line x1="595.3" y1="265.0" x2="635.3" y2="265.0" stroke="#8BA0D6" stroke-width="1.8" stroke-linecap="round" opacity="0.81"/>
  <line x1="595.3" y1="275.0" x2="644.7" y2="275.0" stroke="#8BA0D6" stroke-width="1.8" stroke-linecap="round" opacity="0.31"/>
  <line x1="604.7" y1="385.0" x2="644.7" y2="385.0" stroke="#8BA0D6" stroke-width="1.8" stroke-linecap="round" opacity="0.13"/>
  <line x1="620.0" y1="395.0" x2="635.3" y2="395.0" stroke="#8BA0D6" stroke-width="1.8" stroke-linecap="round" opacity="0.13"/>
  <line x1="620.0" y1="405.0" x2="635.3" y2="405.0" stroke="#8BA0D6" stroke-width="1.8" stroke-linecap="round" opacity="0.13"/>
  <line x1="604.7" y1="415.0" x2="644.7" y2="415.0" stroke="#8BA0D6" stroke-width="1.8" stroke-linecap="round" opacity="0.13"/>
  <line x1="595.3" y1="425.0" x2="644.7" y2="425.0" stroke="#8BA0D6" stroke-width="1.8" stroke-linecap="round" opacity="0.13"/>
  <line x1="595.3" y1="435.0" x2="635.3" y2="435.0" stroke="#8BA0D6" stroke-width="1.8" stroke-linecap="round" opacity="0.31"/>
  <line x1="604.7" y1="445.0" x2="620.0" y2="445.0" stroke="#8BA0D6" stroke-width="1.8" stroke-linecap="round" opacity="0.81"/>
  <line x1="604.7" y1="455.0" x2="620.0" y2="455.0" stroke="#8BA0D6" stroke-width="1.8" stroke-linecap="round" opacity="1.00"/>
  <line x1="595.3" y1="465.0" x2="635.3" y2="465.0" stroke="#8BA0D6" stroke-width="1.8" stroke-linecap="round" opacity="0.81"/>
  <line x1="595.3" y1="475.0" x2="644.7" y2="475.0" stroke="#8BA0D6" stroke-width="1.8" stroke-linecap="round" opacity="0.31"/>
  <line x1="604.7" y1="485.0" x2="644.7" y2="485.0" stroke="#8BA0D6" stroke-width="1.8" stroke-linecap="round" opacity="0.13"/>
  <line x1="620.0" y1="495.0" x2="635.3" y2="495.0" stroke="#8BA0D6" stroke-width="1.8" stroke-linecap="round" opacity="0.13"/>
  <line x1="620.0" y1="505.0" x2="635.3" y2="505.0" stroke="#8BA0D6" stroke-width="1.8" stroke-linecap="round" opacity="0.13"/>
  <line x1="604.7" y1="515.0" x2="644.7" y2="515.0" stroke="#8BA0D6" stroke-width="1.8" stroke-linecap="round" opacity="0.13"/>
  <line x1="595.3" y1="525.0" x2="644.7" y2="525.0" stroke="#8BA0D6" stroke-width="1.8" stroke-linecap="round" opacity="0.13"/>
  <line x1="595.3" y1="535.0" x2="635.3" y2="535.0" stroke="#8BA0D6" stroke-width="1.8" stroke-linecap="round" opacity="0.31"/>
  <line x1="604.7" y1="545.0" x2="620.0" y2="545.0" stroke="#8BA0D6" stroke-width="1.8" stroke-linecap="round" opacity="0.81"/>
  <line x1="604.7" y1="555.0" x2="620.0" y2="555.0" stroke="#8BA0D6" stroke-width="1.8" stroke-linecap="round" opacity="1.00"/>
  <line x1="595.3" y1="565.0" x2="635.3" y2="565.0" stroke="#8BA0D6" stroke-width="1.8" stroke-linecap="round" opacity="0.81"/>
  <path d="M 604.72,55.0 L 601.05,58.0 L 598.05,61.0 L 595.83,64.0 L 594.46,67.0 L 594.00,70.0 L 594.46,73.0 L 595.83,76.0 L 598.05,79.0 L 601.05,82.0 L 604.72,85.0 L 608.93,88.0 L 613.53,91.0 L 618.37,94.0 L 623.26,97.0 L 628.03,100.0 L 628.03,100.0"  fill="none" stroke="#5B6FA8"  stroke-width="3.0" stroke-linecap="round" stroke-linejoin="round" opacity="1.0"/>
  <path d="M 620.00,55.0 L 624.87,58.0 L 629.57,61.0 L 633.93,64.0 L 637.80,67.0 L 641.03,70.0 L 643.53,73.0 L 645.18,76.0 L 645.95,79.0 L 645.79,82.0 L 644.73,85.0 L 642.78,88.0 L 640.03,91.0 L 636.57,94.0 L 632.53,97.0 L 628.03,100.0 L 628.03,100.0" fill="none" stroke="#2D3E6B" stroke-width="3.0" stroke-linecap="round" stroke-linejoin="round" opacity="1.0"/>
  <path d="M 620.00,100.0 L 624.87,103.0 L 629.57,106.0 L 633.93,109.0 L 637.80,112.0 L 641.03,115.0 L 643.53,118.0 L 645.18,121.0 L 645.95,124.0 L 645.79,127.0 L 644.73,130.0 L 642.78,133.0 L 640.03,136.0 L 636.57,139.0 L 632.53,142.0 L 628.03,145.0 L 623.26,148.0 L 620.00,150.0"  fill="none" stroke="#2D3E6B"  stroke-width="3.0" stroke-linecap="round" stroke-linejoin="round" opacity="1.0"/>
  <path d="M 604.72,100.0 L 601.05,103.0 L 598.05,106.0 L 595.83,109.0 L 594.46,112.0 L 594.00,115.0 L 594.46,118.0 L 595.83,121.0 L 598.05,124.0 L 601.05,127.0 L 604.72,130.0 L 608.93,133.0 L 613.53,136.0 L 618.37,139.0 L 623.26,142.0 L 628.03,145.0 L 632.53,148.0 L 635.28,150.0" fill="none" stroke="#5B6FA8" stroke-width="3.0" stroke-linecap="round" stroke-linejoin="round" opacity="1.0"/>
  <path d="M 604.72,150.0 L 601.05,153.0 L 598.05,156.0 L 595.83,159.0 L 594.46,162.0 L 594.00,165.0 L 594.46,168.0 L 595.83,171.0 L 598.05,174.0 L 601.05,177.0 L 604.72,180.0 L 608.93,183.0 L 613.53,186.0 L 618.37,189.0 L 623.26,192.0 L 628.03,195.0 L 632.53,198.0 L 635.28,200.0"  fill="none" stroke="#5B6FA8"  stroke-width="3.0" stroke-linecap="round" stroke-linejoin="round" opacity="1.0"/>
  <path d="M 620.00,150.0 L 624.87,153.0 L 629.57,156.0 L 633.93,159.0 L 637.80,162.0 L 641.03,165.0 L 643.53,168.0 L 645.18,171.0 L 645.95,174.0 L 645.79,177.0 L 644.73,180.0 L 642.78,183.0 L 640.03,186.0 L 636.57,189.0 L 632.53,192.0 L 628.03,195.0 L 623.26,198.0 L 620.00,200.0" fill="none" stroke="#2D3E6B" stroke-width="3.0" stroke-linecap="round" stroke-linejoin="round" opacity="1.0"/>
  <path d="M 620.00,200.0 L 624.87,203.0 L 629.57,206.0 L 633.93,209.0 L 637.80,212.0 L 641.03,215.0 L 643.53,218.0 L 645.18,221.0 L 645.95,224.0 L 645.79,227.0 L 644.73,230.0 L 642.78,233.0 L 640.03,236.0 L 636.57,239.0 L 632.53,242.0 L 628.03,245.0 L 623.26,248.0 L 620.00,250.0"  fill="none" stroke="#2D3E6B"  stroke-width="3.0" stroke-linecap="round" stroke-linejoin="round" opacity="1.0"/>
  <path d="M 604.72,200.0 L 601.05,203.0 L 598.05,206.0 L 595.83,209.0 L 594.46,212.0 L 594.00,215.0 L 594.46,218.0 L 595.83,221.0 L 598.05,224.0 L 601.05,227.0 L 604.72,230.0 L 608.93,233.0 L 613.53,236.0 L 618.37,239.0 L 623.26,242.0 L 628.03,245.0 L 632.53,248.0 L 635.28,250.0" fill="none" stroke="#5B6FA8" stroke-width="3.0" stroke-linecap="round" stroke-linejoin="round" opacity="1.0"/>
  <path d="M 604.72,250.0 L 601.05,253.0 L 598.05,256.0 L 595.83,259.0 L 594.46,262.0 L 594.00,265.0 L 594.46,268.0 L 595.83,271.0 L 598.05,274.0 L 601.05,277.0 L 604.72,280.0 L 608.93,283.0 L 611.97,285.0"  fill="none" stroke="#5B6FA8"  stroke-width="3.0" stroke-linecap="round" stroke-linejoin="round" opacity="1.0"/>
  <path d="M 620.00,250.0 L 624.87,253.0 L 629.57,256.0 L 633.93,259.0 L 637.80,262.0 L 641.03,265.0 L 643.53,268.0 L 645.18,271.0 L 645.95,274.0 L 645.79,277.0 L 644.73,280.0 L 642.78,283.0 L 641.03,285.0" fill="none" stroke="#2D3E6B" stroke-width="3.0" stroke-linecap="round" stroke-linejoin="round" opacity="1.0"/>
  <path d="M 604.72,375.0 L 601.05,378.0 L 598.05,381.0 L 595.83,384.0 L 594.46,387.0 L 594.00,390.0 L 594.46,393.0 L 595.83,396.0 L 598.05,399.0 L 598.97,400.0"  fill="none" stroke="#5B6FA8"  stroke-width="3.0" stroke-linecap="round" stroke-linejoin="round" opacity="1.0"/>
  <path d="M 620.00,375.0 L 624.87,378.0 L 629.57,381.0 L 633.93,384.0 L 637.80,387.0 L 641.03,390.0 L 643.53,393.0 L 645.18,396.0 L 645.95,399.0 L 646.00,400.0" fill="none" stroke="#2D3E6B" stroke-width="3.0" stroke-linecap="round" stroke-linejoin="round" opacity="1.0"/>
  <path d="M 620.00,400.0 L 624.87,403.0 L 629.57,406.0 L 633.93,409.0 L 637.80,412.0 L 641.03,415.0 L 643.53,418.0 L 645.18,421.0 L 645.95,424.0 L 645.79,427.0 L 644.73,430.0 L 642.78,433.0 L 640.03,436.0 L 636.57,439.0 L 632.53,442.0 L 628.03,445.0 L 623.26,448.0 L 620.00,450.0"  fill="none" stroke="#2D3E6B"  stroke-width="3.0" stroke-linecap="round" stroke-linejoin="round" opacity="1.0"/>
  <path d="M 604.72,400.0 L 601.05,403.0 L 598.05,406.0 L 595.83,409.0 L 594.46,412.0 L 594.00,415.0 L 594.46,418.0 L 595.83,421.0 L 598.05,424.0 L 601.05,427.0 L 604.72,430.0 L 608.93,433.0 L 613.53,436.0 L 618.37,439.0 L 623.26,442.0 L 628.03,445.0 L 632.53,448.0 L 635.28,450.0" fill="none" stroke="#5B6FA8" stroke-width="3.0" stroke-linecap="round" stroke-linejoin="round" opacity="1.0"/>
  <path d="M 604.72,450.0 L 601.05,453.0 L 598.05,456.0 L 595.83,459.0 L 594.46,462.0 L 594.00,465.0 L 594.46,468.0 L 595.83,471.0 L 598.05,474.0 L 601.05,477.0 L 604.72,480.0 L 608.93,483.0 L 613.53,486.0 L 618.37,489.0 L 623.26,492.0 L 628.03,495.0 L 632.53,498.0 L 635.28,500.0"  fill="none" stroke="#5B6FA8"  stroke-width="3.0" stroke-linecap="round" stroke-linejoin="round" opacity="1.0"/>
  <path d="M 620.00,450.0 L 624.87,453.0 L 629.57,456.0 L 633.93,459.0 L 637.80,462.0 L 641.03,465.0 L 643.53,468.0 L 645.18,471.0 L 645.95,474.0 L 645.79,477.0 L 644.73,480.0 L 642.78,483.0 L 640.03,486.0 L 636.57,489.0 L 632.53,492.0 L 628.03,495.0 L 623.26,498.0 L 620.00,500.0" fill="none" stroke="#2D3E6B" stroke-width="3.0" stroke-linecap="round" stroke-linejoin="round" opacity="1.0"/>
  <path d="M 620.00,500.0 L 624.87,503.0 L 629.57,506.0 L 633.93,509.0 L 637.80,512.0 L 641.03,515.0 L 643.53,518.0 L 645.18,521.0 L 645.95,524.0 L 645.79,527.0 L 644.73,530.0 L 642.78,533.0 L 640.03,536.0 L 636.57,539.0 L 632.53,542.0 L 628.03,545.0 L 623.26,548.0 L 620.00,550.0"  fill="none" stroke="#2D3E6B"  stroke-width="3.0" stroke-linecap="round" stroke-linejoin="round" opacity="1.0"/>
  <path d="M 604.72,500.0 L 601.05,503.0 L 598.05,506.0 L 595.83,509.0 L 594.46,512.0 L 594.00,515.0 L 594.46,518.0 L 595.83,521.0 L 598.05,524.0 L 601.05,527.0 L 604.72,530.0 L 608.93,533.0 L 613.53,536.0 L 618.37,539.0 L 623.26,542.0 L 628.03,545.0 L 632.53,548.0 L 635.28,550.0" fill="none" stroke="#5B6FA8" stroke-width="3.0" stroke-linecap="round" stroke-linejoin="round" opacity="1.0"/>
  <path d="M 604.72,550.0 L 601.05,553.0 L 598.05,556.0 L 595.83,559.0 L 594.46,562.0 L 594.00,565.0 L 594.00,565.0"  fill="none" stroke="#5B6FA8"  stroke-width="3.0" stroke-linecap="round" stroke-linejoin="round" opacity="1.0"/>
  <path d="M 620.00,550.0 L 624.87,553.0 L 629.57,556.0 L 633.93,559.0 L 637.80,562.0 L 641.03,565.0 L 641.03,565.0" fill="none" stroke="#2D3E6B" stroke-width="3.0" stroke-linecap="round" stroke-linejoin="round" opacity="1.0"/>
  <!-- splay ends at cut y≈285 -->
  <path d="M 620 285 Q 606 292 599 288" fill="none" stroke="#CA1E08" stroke-width="2.5" stroke-linecap="round"/>
  <path d="M 620 285 Q 634 292 641 288" fill="none" stroke="#CA1E08" stroke-width="2.5" stroke-linecap="round"/>
  <!-- splay ends resuming at y≈375 -->
  <path d="M 599 378 Q 606 372 620 375" fill="none" stroke="#CA1E08" stroke-width="2.5" stroke-linecap="round"/>
  <path d="M 641 378 Q 634 372 620 375" fill="none" stroke="#CA1E08" stroke-width="2.5" stroke-linecap="round"/>
  <!-- gap label -->
  <line x1="608" y1="328" x2="632" y2="328" stroke="#CA1E08" stroke-width="1.5" stroke-dasharray="4 3" opacity="0.7"/>
  <text x="620" y="344" font-family="Inter,sans-serif" font-size="11" fill="#CA1E08" text-anchor="middle">Δ32 bp</text>

  <!-- ═══ COLOUR LEGEND ═══ -->
  <line x1="536" y1="556" x2="550" y2="556" stroke="#2D3E6B" stroke-width="3.5" stroke-linecap="round"/>
  <text x="555" y="560" font-family="Inter,sans-serif" font-size="10" fill="#A8A8B5">Strand A — Navy Vintage</text>
  <line x1="536" y1="572" x2="550" y2="572" stroke="#5B6FA8" stroke-width="3.5" stroke-linecap="round"/>
  <text x="555" y="576" font-family="Inter,sans-serif" font-size="10" fill="#A8A8B5">Strand B — Slate Blue</text>
  <line x1="536" y1="588" x2="550" y2="588" stroke="#8BA0D6" stroke-width="2" stroke-linecap="round" opacity="0.7"/>
  <text x="555" y="592" font-family="Inter,sans-serif" font-size="10" fill="#A8A8B5">Base pairs — Periwinkle, variable opacity</text>

</svg>
