<svg xmlns="http://www.w3.org/2000/svg" viewBox="0 0 800 600" width="800" height="600">

  <!-- Background: clean scientific white -->
  <g id="bg" data-label="Clean light laboratory background for molecular diagram">
    <rect width="800" height="600" fill="#FBFFF6"/>
    <!-- subtle grid suggestion -->
    <line x1="0" y1="300" x2="800" y2="300" stroke="#EFEFF3" stroke-width="1"/>
    <line x1="400" y1="0" x2="400" y2="600" stroke="#EFEFF3" stroke-width="1"/>
  </g>

  <!-- Context: double helix DNA strand as background element -->
    <!-- Context: background helix (faint) and main CCR5-labelled helix -->
    <!-- Context: background helix and main CCR5-labelled helix -->
  <g id="context" data-label="Background helix and main DNA helix with CCR5 target region">
<line x1="159.4" y1="60.0" x2="170.0" y2="60.0" stroke="#B8EDB9" stroke-width="1.2" stroke-linecap="round" opacity="0.32"/>
    <line x1="152.9" y1="70.0" x2="180.6" y2="70.0" stroke="#B8EDB9" stroke-width="1.2" stroke-linecap="round" opacity="0.26"/>
    <line x1="152.9" y1="80.0" x2="187.1" y2="80.0" stroke="#B8EDB9" stroke-width="1.2" stroke-linecap="round" opacity="0.10"/>
    <line x1="159.4" y1="90.0" x2="187.1" y2="90.0" stroke="#B8EDB9" stroke-width="1.2" stroke-linecap="round" opacity="0.04"/>
    <line x1="170.0" y1="100.0" x2="180.6" y2="100.0" stroke="#B8EDB9" stroke-width="1.2" stroke-linecap="round" opacity="0.04"/>
    <line x1="170.0" y1="110.0" x2="180.6" y2="110.0" stroke="#B8EDB9" stroke-width="1.2" stroke-linecap="round" opacity="0.04"/>
    <line x1="159.4" y1="120.0" x2="187.1" y2="120.0" stroke="#B8EDB9" stroke-width="1.2" stroke-linecap="round" opacity="0.04"/>
    <line x1="152.9" y1="130.0" x2="187.1" y2="130.0" stroke="#B8EDB9" stroke-width="1.2" stroke-linecap="round" opacity="0.04"/>
    <line x1="152.9" y1="140.0" x2="180.6" y2="140.0" stroke="#B8EDB9" stroke-width="1.2" stroke-linecap="round" opacity="0.10"/>
    <line x1="159.4" y1="150.0" x2="170.0" y2="150.0" stroke="#B8EDB9" stroke-width="1.2" stroke-linecap="round" opacity="0.26"/>
    <line x1="159.4" y1="160.0" x2="170.0" y2="160.0" stroke="#B8EDB9" stroke-width="1.2" stroke-linecap="round" opacity="0.32"/>
    <line x1="152.9" y1="170.0" x2="180.6" y2="170.0" stroke="#B8EDB9" stroke-width="1.2" stroke-linecap="round" opacity="0.26"/>
    <line x1="152.9" y1="180.0" x2="187.1" y2="180.0" stroke="#B8EDB9" stroke-width="1.2" stroke-linecap="round" opacity="0.10"/>
    <line x1="159.4" y1="190.0" x2="187.1" y2="190.0" stroke="#B8EDB9" stroke-width="1.2" stroke-linecap="round" opacity="0.04"/>
    <line x1="170.0" y1="200.0" x2="180.6" y2="200.0" stroke="#B8EDB9" stroke-width="1.2" stroke-linecap="round" opacity="0.04"/>
    <line x1="170.0" y1="210.0" x2="180.6" y2="210.0" stroke="#B8EDB9" stroke-width="1.2" stroke-linecap="round" opacity="0.04"/>
    <line x1="159.4" y1="220.0" x2="187.1" y2="220.0" stroke="#B8EDB9" stroke-width="1.2" stroke-linecap="round" opacity="0.04"/>
    <line x1="152.9" y1="230.0" x2="187.1" y2="230.0" stroke="#B8EDB9" stroke-width="1.2" stroke-linecap="round" opacity="0.04"/>
    <line x1="152.9" y1="240.0" x2="180.6" y2="240.0" stroke="#B8EDB9" stroke-width="1.2" stroke-linecap="round" opacity="0.10"/>
    <line x1="159.4" y1="250.0" x2="170.0" y2="250.0" stroke="#B8EDB9" stroke-width="1.2" stroke-linecap="round" opacity="0.26"/>
    <line x1="159.4" y1="260.0" x2="170.0" y2="260.0" stroke="#B8EDB9" stroke-width="1.2" stroke-linecap="round" opacity="0.32"/>
    <line x1="152.9" y1="270.0" x2="180.6" y2="270.0" stroke="#B8EDB9" stroke-width="1.2" stroke-linecap="round" opacity="0.26"/>
    <line x1="152.9" y1="280.0" x2="187.1" y2="280.0" stroke="#B8EDB9" stroke-width="1.2" stroke-linecap="round" opacity="0.10"/>
    <line x1="159.4" y1="290.0" x2="187.1" y2="290.0" stroke="#B8EDB9" stroke-width="1.2" stroke-linecap="round" opacity="0.04"/>
    <line x1="170.0" y1="300.0" x2="180.6" y2="300.0" stroke="#B8EDB9" stroke-width="1.2" stroke-linecap="round" opacity="0.04"/>
    <line x1="170.0" y1="310.0" x2="180.6" y2="310.0" stroke="#B8EDB9" stroke-width="1.2" stroke-linecap="round" opacity="0.04"/>
    <line x1="159.4" y1="320.0" x2="187.1" y2="320.0" stroke="#B8EDB9" stroke-width="1.2" stroke-linecap="round" opacity="0.04"/>
    <line x1="152.9" y1="330.0" x2="187.1" y2="330.0" stroke="#B8EDB9" stroke-width="1.2" stroke-linecap="round" opacity="0.04"/>
    <line x1="152.9" y1="340.0" x2="180.6" y2="340.0" stroke="#B8EDB9" stroke-width="1.2" stroke-linecap="round" opacity="0.10"/>
    <line x1="159.4" y1="350.0" x2="170.0" y2="350.0" stroke="#B8EDB9" stroke-width="1.2" stroke-linecap="round" opacity="0.26"/>
    <line x1="159.4" y1="360.0" x2="170.0" y2="360.0" stroke="#B8EDB9" stroke-width="1.2" stroke-linecap="round" opacity="0.32"/>
    <line x1="152.9" y1="370.0" x2="180.6" y2="370.0" stroke="#B8EDB9" stroke-width="1.2" stroke-linecap="round" opacity="0.26"/>
    <line x1="152.9" y1="380.0" x2="187.1" y2="380.0" stroke="#B8EDB9" stroke-width="1.2" stroke-linecap="round" opacity="0.10"/>
    <line x1="159.4" y1="390.0" x2="187.1" y2="390.0" stroke="#B8EDB9" stroke-width="1.2" stroke-linecap="round" opacity="0.04"/>
    <line x1="170.0" y1="400.0" x2="180.6" y2="400.0" stroke="#B8EDB9" stroke-width="1.2" stroke-linecap="round" opacity="0.04"/>
    <line x1="170.0" y1="410.0" x2="180.6" y2="410.0" stroke="#B8EDB9" stroke-width="1.2" stroke-linecap="round" opacity="0.04"/>
    <line x1="159.4" y1="420.0" x2="187.1" y2="420.0" stroke="#B8EDB9" stroke-width="1.2" stroke-linecap="round" opacity="0.04"/>
    <line x1="152.9" y1="430.0" x2="187.1" y2="430.0" stroke="#B8EDB9" stroke-width="1.2" stroke-linecap="round" opacity="0.04"/>
    <line x1="152.9" y1="440.0" x2="180.6" y2="440.0" stroke="#B8EDB9" stroke-width="1.2" stroke-linecap="round" opacity="0.10"/>
    <line x1="159.4" y1="450.0" x2="170.0" y2="450.0" stroke="#B8EDB9" stroke-width="1.2" stroke-linecap="round" opacity="0.26"/>
    <line x1="159.4" y1="460.0" x2="170.0" y2="460.0" stroke="#B8EDB9" stroke-width="1.2" stroke-linecap="round" opacity="0.32"/>
    <line x1="152.9" y1="470.0" x2="180.6" y2="470.0" stroke="#B8EDB9" stroke-width="1.2" stroke-linecap="round" opacity="0.26"/>
    <line x1="152.9" y1="480.0" x2="187.1" y2="480.0" stroke="#B8EDB9" stroke-width="1.2" stroke-linecap="round" opacity="0.10"/>
    <line x1="159.4" y1="490.0" x2="187.1" y2="490.0" stroke="#B8EDB9" stroke-width="1.2" stroke-linecap="round" opacity="0.04"/>
    <line x1="170.0" y1="500.0" x2="180.6" y2="500.0" stroke="#B8EDB9" stroke-width="1.2" stroke-linecap="round" opacity="0.04"/>
    <line x1="170.0" y1="510.0" x2="180.6" y2="510.0" stroke="#B8EDB9" stroke-width="1.2" stroke-linecap="round" opacity="0.04"/>
    <line x1="159.4" y1="520.0" x2="187.1" y2="520.0" stroke="#B8EDB9" stroke-width="1.2" stroke-linecap="round" opacity="0.04"/>
    <line x1="152.9" y1="530.0" x2="187.1" y2="530.0" stroke="#B8EDB9" stroke-width="1.2" stroke-linecap="round" opacity="0.04"/>
    <line x1="152.9" y1="540.0" x2="180.6" y2="540.0" stroke="#B8EDB9" stroke-width="1.2" stroke-linecap="round" opacity="0.10"/>
    <line x1="159.4" y1="550.0" x2="170.0" y2="550.0" stroke="#B8EDB9" stroke-width="1.2" stroke-linecap="round" opacity="0.26"/>
    <line x1="159.4" y1="560.0" x2="170.0" y2="560.0" stroke="#B8EDB9" stroke-width="1.2" stroke-linecap="round" opacity="0.32"/>
    <path d="M 159.42,60.0 L 156.13,64.0 L 153.71,68.0 L 152.32,72.0 L 152.04,76.0 L 152.88,80.0 L 154.80,84.0 L 157.68,88.0 L 161.33,92.0 L 165.52,96.0 L 170.00,100.0 L 174.48,104.0 L 175.56,105.0"  fill="none" stroke="#D1DCFF"  stroke-width="2.0" stroke-linecap="round" stroke-linejoin="round" opacity="0.32"/>
    <path d="M 170.00,60.0 L 174.48,64.0 L 178.67,68.0 L 182.32,72.0 L 185.20,76.0 L 187.12,80.0 L 187.96,84.0 L 187.68,88.0 L 186.29,92.0 L 183.87,96.0 L 180.58,100.0 L 176.63,104.0 L 175.56,105.0" fill="none" stroke="#D1DCFF" stroke-width="2.0" stroke-linecap="round" stroke-linejoin="round" opacity="0.32"/>
    <path d="M 170.00,105.0 L 174.48,109.0 L 178.67,113.0 L 182.32,117.0 L 185.20,121.0 L 187.12,125.0 L 187.96,129.0 L 187.68,133.0 L 186.29,137.0 L 183.87,141.0 L 180.58,145.0 L 176.63,149.0 L 172.26,153.0 L 170.00,155.0"  fill="none" stroke="#D1DCFF"  stroke-width="2.0" stroke-linecap="round" stroke-linejoin="round" opacity="0.32"/>
    <path d="M 159.42,105.0 L 156.13,109.0 L 153.71,113.0 L 152.32,117.0 L 152.04,121.0 L 152.88,125.0 L 154.80,129.0 L 157.68,133.0 L 161.33,137.0 L 165.52,141.0 L 170.00,145.0 L 174.48,149.0 L 178.67,153.0 L 180.58,155.0" fill="none" stroke="#D1DCFF" stroke-width="2.0" stroke-linecap="round" stroke-linejoin="round" opacity="0.32"/>
    <path d="M 159.42,155.0 L 156.13,159.0 L 153.71,163.0 L 152.32,167.0 L 152.04,171.0 L 152.88,175.0 L 154.80,179.0 L 157.68,183.0 L 161.33,187.0 L 165.52,191.0 L 170.00,195.0 L 174.48,199.0 L 178.67,203.0 L 180.58,205.0"  fill="none" stroke="#D1DCFF"  stroke-width="2.0" stroke-linecap="round" stroke-linejoin="round" opacity="0.32"/>
    <path d="M 170.00,155.0 L 174.48,159.0 L 178.67,163.0 L 182.32,167.0 L 185.20,171.0 L 187.12,175.0 L 187.96,179.0 L 187.68,183.0 L 186.29,187.0 L 183.87,191.0 L 180.58,195.0 L 176.63,199.0 L 172.26,203.0 L 170.00,205.0" fill="none" stroke="#D1DCFF" stroke-width="2.0" stroke-linecap="round" stroke-linejoin="round" opacity="0.32"/>
    <path d="M 170.00,205.0 L 174.48,209.0 L 178.67,213.0 L 182.32,217.0 L 185.20,221.0 L 187.12,225.0 L 187.96,229.0 L 187.68,233.0 L 186.29,237.0 L 183.87,241.0 L 180.58,245.0 L 176.63,249.0 L 172.26,253.0 L 170.00,255.0"  fill="none" stroke="#D1DCFF"  stroke-width="2.0" stroke-linecap="round" stroke-linejoin="round" opacity="0.32"/>
    <path d="M 159.42,205.0 L 156.13,209.0 L 153.71,213.0 L 152.32,217.0 L 152.04,221.0 L 152.88,225.0 L 154.80,229.0 L 157.68,233.0 L 161.33,237.0 L 165.52,241.0 L 170.00,245.0 L 174.48,249.0 L 178.67,253.0 L 180.58,255.0" fill="none" stroke="#D1DCFF" stroke-width="2.0" stroke-linecap="round" stroke-linejoin="round" opacity="0.32"/>
    <path d="M 159.42,255.0 L 156.13,259.0 L 153.71,263.0 L 152.32,267.0 L 152.04,271.0 L 152.88,275.0 L 154.80,279.0 L 157.68,283.0 L 161.33,287.0 L 165.52,291.0 L 170.00,295.0 L 174.48,299.0 L 178.67,303.0 L 180.58,305.0"  fill="none" stroke="#D1DCFF"  stroke-width="2.0" stroke-linecap="round" stroke-linejoin="round" opacity="0.32"/>
    <path d="M 170.00,255.0 L 174.48,259.0 L 178.67,263.0 L 182.32,267.0 L 185.20,271.0 L 187.12,275.0 L 187.96,279.0 L 187.68,283.0 L 186.29,287.0 L 183.87,291.0 L 180.58,295.0 L 176.63,299.0 L 172.26,303.0 L 170.00,305.0" fill="none" stroke="#D1DCFF" stroke-width="2.0" stroke-linecap="round" stroke-linejoin="round" opacity="0.32"/>
    <path d="M 170.00,305.0 L 174.48,309.0 L 178.67,313.0 L 182.32,317.0 L 185.20,321.0 L 187.12,325.0 L 187.96,329.0 L 187.68,333.0 L 186.29,337.0 L 183.87,341.0 L 180.58,345.0 L 176.63,349.0 L 172.26,353.0 L 170.00,355.0"  fill="none" stroke="#D1DCFF"  stroke-width="2.0" stroke-linecap="round" stroke-linejoin="round" opacity="0.32"/>
    <path d="M 159.42,305.0 L 156.13,309.0 L 153.71,313.0 L 152.32,317.0 L 152.04,321.0 L 152.88,325.0 L 154.80,329.0 L 157.68,333.0 L 161.33,337.0 L 165.52,341.0 L 170.00,345.0 L 174.48,349.0 L 178.67,353.0 L 180.58,355.0" fill="none" stroke="#D1DCFF" stroke-width="2.0" stroke-linecap="round" stroke-linejoin="round" opacity="0.32"/>
    <path d="M 159.42,355.0 L 156.13,359.0 L 153.71,363.0 L 152.32,367.0 L 152.04,371.0 L 152.88,375.0 L 154.80,379.0 L 157.68,383.0 L 161.33,387.0 L 165.52,391.0 L 170.00,395.0 L 174.48,399.0 L 178.67,403.0 L 180.58,405.0"  fill="none" stroke="#D1DCFF"  stroke-width="2.0" stroke-linecap="round" stroke-linejoin="round" opacity="0.32"/>
    <path d="M 170.00,355.0 L 174.48,359.0 L 178.67,363.0 L 182.32,367.0 L 185.20,371.0 L 187.12,375.0 L 187.96,379.0 L 187.68,383.0 L 186.29,387.0 L 183.87,391.0 L 180.58,395.0 L 176.63,399.0 L 172.26,403.0 L 170.00,405.0" fill="none" stroke="#D1DCFF" stroke-width="2.0" stroke-linecap="round" stroke-linejoin="round" opacity="0.32"/>
    <path d="M 170.00,405.0 L 174.48,409.0 L 178.67,413.0 L 182.32,417.0 L 185.20,421.0 L 187.12,425.0 L 187.96,429.0 L 187.68,433.0 L 186.29,437.0 L 183.87,441.0 L 180.58,445.0 L 176.63,449.0 L 172.26,453.0 L 170.00,455.0"  fill="none" stroke="#D1DCFF"  stroke-width="2.0" stroke-linecap="round" stroke-linejoin="round" opacity="0.32"/>
    <path d="M 159.42,405.0 L 156.13,409.0 L 153.71,413.0 L 152.32,417.0 L 152.04,421.0 L 152.88,425.0 L 154.80,429.0 L 157.68,433.0 L 161.33,437.0 L 165.52,441.0 L 170.00,445.0 L 174.48,449.0 L 178.67,453.0 L 180.58,455.0" fill="none" stroke="#D1DCFF" stroke-width="2.0" stroke-linecap="round" stroke-linejoin="round" opacity="0.32"/>
    <path d="M 159.42,455.0 L 156.13,459.0 L 153.71,463.0 L 152.32,467.0 L 152.04,471.0 L 152.88,475.0 L 154.80,479.0 L 157.68,483.0 L 161.33,487.0 L 165.52,491.0 L 170.00,495.0 L 174.48,499.0 L 178.67,503.0 L 180.58,505.0"  fill="none" stroke="#D1DCFF"  stroke-width="2.0" stroke-linecap="round" stroke-linejoin="round" opacity="0.32"/>
    <path d="M 170.00,455.0 L 174.48,459.0 L 178.67,463.0 L 182.32,467.0 L 185.20,471.0 L 187.12,475.0 L 187.96,479.0 L 187.68,483.0 L 186.29,487.0 L 183.87,491.0 L 180.58,495.0 L 176.63,499.0 L 172.26,503.0 L 170.00,505.0" fill="none" stroke="#D1DCFF" stroke-width="2.0" stroke-linecap="round" stroke-linejoin="round" opacity="0.32"/>
    <path d="M 170.00,505.0 L 174.48,509.0 L 178.67,513.0 L 182.32,517.0 L 185.20,521.0 L 187.12,525.0 L 187.96,529.0 L 187.68,533.0 L 186.29,537.0 L 183.87,541.0 L 180.58,545.0 L 176.63,549.0 L 172.26,553.0 L 170.00,555.0"  fill="none" stroke="#D1DCFF"  stroke-width="2.0" stroke-linecap="round" stroke-linejoin="round" opacity="0.32"/>
    <path d="M 159.42,505.0 L 156.13,509.0 L 153.71,513.0 L 152.32,517.0 L 152.04,521.0 L 152.88,525.0 L 154.80,529.0 L 157.68,533.0 L 161.33,537.0 L 165.52,541.0 L 170.00,545.0 L 174.48,549.0 L 178.67,553.0 L 180.58,555.0" fill="none" stroke="#D1DCFF" stroke-width="2.0" stroke-linecap="round" stroke-linejoin="round" opacity="0.32"/>
    <path d="M 159.42,555.0 L 156.13,559.0 L 153.71,563.0 L 152.88,565.0"  fill="none" stroke="#D1DCFF"  stroke-width="2.0" stroke-linecap="round" stroke-linejoin="round" opacity="0.32"/>
    <path d="M 170.00,555.0 L 174.48,559.0 L 178.67,563.0 L 180.58,565.0" fill="none" stroke="#D1DCFF" stroke-width="2.0" stroke-linecap="round" stroke-linejoin="round" opacity="0.32"/>

<line x1="332.4" y1="130.0" x2="350.0" y2="130.0" stroke="#8BA0D6" stroke-width="2.2" stroke-linecap="round" opacity="1.00"/>
    <line x1="321.5" y1="140.0" x2="367.6" y2="140.0" stroke="#8BA0D6" stroke-width="2.2" stroke-linecap="round" opacity="0.81"/>
    <line x1="321.5" y1="150.0" x2="378.5" y2="150.0" stroke="#8BA0D6" stroke-width="2.2" stroke-linecap="round" opacity="0.31"/>
    <line x1="332.4" y1="160.0" x2="378.5" y2="160.0" stroke="#8BA0D6" stroke-width="2.2" stroke-linecap="round" opacity="0.13"/>
    <line x1="350.0" y1="170.0" x2="367.6" y2="170.0" stroke="#8BA0D6" stroke-width="2.2" stroke-linecap="round" opacity="0.13"/>
    <line x1="350.0" y1="180.0" x2="367.6" y2="180.0" stroke="#8BA0D6" stroke-width="2.2" stroke-linecap="round" opacity="0.13"/>
    <line x1="332.4" y1="190.0" x2="378.5" y2="190.0" stroke="#8BA0D6" stroke-width="2.2" stroke-linecap="round" opacity="0.13"/>
    <line x1="321.5" y1="200.0" x2="378.5" y2="200.0" stroke="#8BA0D6" stroke-width="2.2" stroke-linecap="round" opacity="0.13"/>
    <line x1="321.5" y1="210.0" x2="367.6" y2="210.0" stroke="#8BA0D6" stroke-width="2.2" stroke-linecap="round" opacity="0.31"/>
    <line x1="332.4" y1="220.0" x2="350.0" y2="220.0" stroke="#8BA0D6" stroke-width="2.2" stroke-linecap="round" opacity="0.81"/>
    <line x1="332.4" y1="230.0" x2="350.0" y2="230.0" stroke="#8BA0D6" stroke-width="2.2" stroke-linecap="round" opacity="1.00"/>
    <line x1="321.5" y1="240.0" x2="367.6" y2="240.0" stroke="#8BA0D6" stroke-width="2.2" stroke-linecap="round" opacity="0.81"/>
    <line x1="321.5" y1="250.0" x2="378.5" y2="250.0" stroke="#8BA0D6" stroke-width="2.2" stroke-linecap="round" opacity="0.31"/>
    <line x1="332.4" y1="260.0" x2="378.5" y2="260.0" stroke="#8BA0D6" stroke-width="2.2" stroke-linecap="round" opacity="0.13"/>
    <line x1="350.0" y1="270.0" x2="367.6" y2="270.0" stroke="#E6B800" stroke-width="3.0" stroke-linecap="round" opacity="0.13"/>
    <line x1="350.0" y1="280.0" x2="367.6" y2="280.0" stroke="#E6B800" stroke-width="3.0" stroke-linecap="round" opacity="0.13"/>
    <line x1="332.4" y1="290.0" x2="378.5" y2="290.0" stroke="#E6B800" stroke-width="3.0" stroke-linecap="round" opacity="0.13"/>
    <line x1="350.0" y1="370.0" x2="367.6" y2="370.0" stroke="#E6B800" stroke-width="3.0" stroke-linecap="round" opacity="0.13"/>
    <line x1="350.0" y1="380.0" x2="367.6" y2="380.0" stroke="#E6B800" stroke-width="3.0" stroke-linecap="round" opacity="0.13"/>
    <line x1="332.4" y1="390.0" x2="378.5" y2="390.0" stroke="#E6B800" stroke-width="3.0" stroke-linecap="round" opacity="0.13"/>
    <line x1="321.5" y1="400.0" x2="378.5" y2="400.0" stroke="#E6B800" stroke-width="3.0" stroke-linecap="round" opacity="0.13"/>
    <line x1="321.5" y1="410.0" x2="367.6" y2="410.0" stroke="#8BA0D6" stroke-width="2.2" stroke-linecap="round" opacity="0.31"/>
    <line x1="332.4" y1="420.0" x2="350.0" y2="420.0" stroke="#8BA0D6" stroke-width="2.2" stroke-linecap="round" opacity="0.81"/>
    <line x1="332.4" y1="430.0" x2="350.0" y2="430.0" stroke="#8BA0D6" stroke-width="2.2" stroke-linecap="round" opacity="1.00"/>
    <line x1="321.5" y1="440.0" x2="367.6" y2="440.0" stroke="#8BA0D6" stroke-width="2.2" stroke-linecap="round" opacity="0.81"/>
    <line x1="321.5" y1="450.0" x2="378.5" y2="450.0" stroke="#8BA0D6" stroke-width="2.2" stroke-linecap="round" opacity="0.31"/>
    <line x1="332.4" y1="460.0" x2="378.5" y2="460.0" stroke="#8BA0D6" stroke-width="2.2" stroke-linecap="round" opacity="0.13"/>
    <line x1="350.0" y1="470.0" x2="367.6" y2="470.0" stroke="#8BA0D6" stroke-width="2.2" stroke-linecap="round" opacity="0.13"/>
    <line x1="350.0" y1="480.0" x2="367.6" y2="480.0" stroke="#8BA0D6" stroke-width="2.2" stroke-linecap="round" opacity="0.13"/>
    <line x1="332.4" y1="490.0" x2="378.5" y2="490.0" stroke="#8BA0D6" stroke-width="2.2" stroke-linecap="round" opacity="0.13"/>
    <line x1="321.5" y1="500.0" x2="378.5" y2="500.0" stroke="#8BA0D6" stroke-width="2.2" stroke-linecap="round" opacity="0.13"/>
    <line x1="321.5" y1="510.0" x2="367.6" y2="510.0" stroke="#8BA0D6" stroke-width="2.2" stroke-linecap="round" opacity="0.31"/>
    <line x1="332.4" y1="520.0" x2="350.0" y2="520.0" stroke="#8BA0D6" stroke-width="2.2" stroke-linecap="round" opacity="0.81"/>
    <line x1="332.4" y1="530.0" x2="350.0" y2="530.0" stroke="#8BA0D6" stroke-width="2.2" stroke-linecap="round" opacity="1.00"/>
    <line x1="321.5" y1="540.0" x2="367.6" y2="540.0" stroke="#8BA0D6" stroke-width="2.2" stroke-linecap="round" opacity="0.81"/>
    <path d="M 332.37,130.0 L 328.13,133.0 L 324.67,136.0 L 322.11,139.0 L 320.53,142.0 L 320.00,145.0 L 320.53,148.0 L 322.11,151.0 L 324.67,154.0 L 328.13,157.0 L 332.37,160.0 L 337.23,163.0 L 342.54,166.0 L 348.12,169.0 L 353.76,172.0 L 359.27,175.0 L 359.27,175.0"  fill="none" stroke="#5B6FA8"  stroke-width="3.5" stroke-linecap="round" stroke-linejoin="round" opacity="1.0"/>
    <path d="M 350.00,130.0 L 355.62,133.0 L 361.04,136.0 L 366.07,139.0 L 370.54,142.0 L 374.27,145.0 L 377.14,148.0 L 379.06,151.0 L 379.94,154.0 L 379.76,157.0 L 378.53,160.0 L 376.29,163.0 L 373.12,166.0 L 369.12,169.0 L 364.45,172.0 L 359.27,175.0 L 359.27,175.0" fill="none" stroke="#2D3E6B" stroke-width="3.5" stroke-linecap="round" stroke-linejoin="round" opacity="1.0"/>
    <path d="M 350.00,175.0 L 355.62,178.0 L 361.04,181.0 L 366.07,184.0 L 370.54,187.0 L 374.27,190.0 L 377.14,193.0 L 379.06,196.0 L 379.94,199.0 L 379.76,202.0 L 378.53,205.0 L 376.29,208.0 L 373.12,211.0 L 369.12,214.0 L 364.45,217.0 L 359.27,220.0 L 353.76,223.0 L 350.00,225.0"  fill="none" stroke="#2D3E6B"  stroke-width="3.5" stroke-linecap="round" stroke-linejoin="round" opacity="1.0"/>
    <path d="M 332.37,175.0 L 328.13,178.0 L 324.67,181.0 L 322.11,184.0 L 320.53,187.0 L 320.00,190.0 L 320.53,193.0 L 322.11,196.0 L 324.67,199.0 L 328.13,202.0 L 332.37,205.0 L 337.23,208.0 L 342.54,211.0 L 348.12,214.0 L 353.76,217.0 L 359.27,220.0 L 364.45,223.0 L 367.63,225.0" fill="none" stroke="#5B6FA8" stroke-width="3.5" stroke-linecap="round" stroke-linejoin="round" opacity="1.0"/>
    <path d="M 332.37,225.0 L 328.13,228.0 L 324.67,231.0 L 322.11,234.0 L 320.53,237.0 L 320.00,240.0 L 320.53,243.0 L 322.11,246.0 L 324.67,249.0 L 328.13,252.0 L 332.37,255.0 L 337.23,258.0 L 342.54,261.0 L 348.12,264.0 L 353.76,267.0 L 359.27,270.0 L 364.45,273.0 L 367.63,275.0"  fill="none" stroke="#5B6FA8"  stroke-width="3.5" stroke-linecap="round" stroke-linejoin="round" opacity="1.0"/>
    <path d="M 350.00,225.0 L 355.62,228.0 L 361.04,231.0 L 366.07,234.0 L 370.54,237.0 L 374.27,240.0 L 377.14,243.0 L 379.06,246.0 L 379.94,249.0 L 379.76,252.0 L 378.53,255.0 L 376.29,258.0 L 373.12,261.0 L 369.12,264.0 L 364.45,267.0 L 359.27,270.0 L 353.76,273.0 L 350.00,275.0" fill="none" stroke="#2D3E6B" stroke-width="3.5" stroke-linecap="round" stroke-linejoin="round" opacity="1.0"/>
    <path d="M 350.00,275.0 L 355.62,278.0 L 361.04,281.0 L 366.07,284.0 L 370.54,287.0 L 374.27,290.0 L 376.29,292.0"  fill="none" stroke="#E6B800"  stroke-width="3.7" stroke-linecap="round" stroke-linejoin="round" opacity="1.0"/>
    <path d="M 332.37,275.0 L 328.13,278.0 L 324.67,281.0 L 322.11,284.0 L 320.53,287.0 L 320.00,290.0 L 320.24,292.0" fill="none" stroke="#B8860B" stroke-width="3.7" stroke-linecap="round" stroke-linejoin="round" opacity="1.0"/>
    <path d="M 332.37,368.0 L 328.13,371.0 L 324.67,374.0 L 323.71,375.0"  fill="none" stroke="#B8860B"  stroke-width="3.7" stroke-linecap="round" stroke-linejoin="round" opacity="1.0"/>
    <path d="M 350.00,368.0 L 355.62,371.0 L 361.04,374.0 L 362.77,375.0" fill="none" stroke="#E6B800" stroke-width="3.7" stroke-linecap="round" stroke-linejoin="round" opacity="1.0"/>
    <path d="M 350.00,375.0 L 355.62,378.0 L 361.04,381.0 L 366.07,384.0 L 370.54,387.0 L 374.27,390.0 L 377.14,393.0 L 379.06,396.0 L 379.94,399.0 L 379.76,402.0 L 378.53,405.0 L 376.29,408.0 L 373.12,411.0 L 369.12,414.0 L 364.45,417.0 L 359.27,420.0 L 353.76,423.0 L 350.00,425.0"  fill="none" stroke="#E6B800"  stroke-width="3.7" stroke-linecap="round" stroke-linejoin="round" opacity="1.0"/>
    <path d="M 332.37,375.0 L 328.13,378.0 L 324.67,381.0 L 322.11,384.0 L 320.53,387.0 L 320.00,390.0 L 320.53,393.0 L 322.11,396.0 L 324.67,399.0 L 328.13,402.0 L 332.37,405.0 L 337.23,408.0 L 342.54,411.0 L 348.12,414.0 L 353.76,417.0 L 359.27,420.0 L 364.45,423.0 L 367.63,425.0" fill="none" stroke="#B8860B" stroke-width="3.7" stroke-linecap="round" stroke-linejoin="round" opacity="1.0"/>
    <path d="M 332.37,425.0 L 328.13,428.0 L 324.67,431.0 L 322.11,434.0 L 320.53,437.0 L 320.00,440.0 L 320.53,443.0 L 322.11,446.0 L 324.67,449.0 L 328.13,452.0 L 332.37,455.0 L 337.23,458.0 L 342.54,461.0 L 348.12,464.0 L 353.76,467.0 L 359.27,470.0 L 364.45,473.0 L 367.63,475.0"  fill="none" stroke="#5B6FA8"  stroke-width="3.5" stroke-linecap="round" stroke-linejoin="round" opacity="1.0"/>
    <path d="M 350.00,425.0 L 355.62,428.0 L 361.04,431.0 L 366.07,434.0 L 370.54,437.0 L 374.27,440.0 L 377.14,443.0 L 379.06,446.0 L 379.94,449.0 L 379.76,452.0 L 378.53,455.0 L 376.29,458.0 L 373.12,461.0 L 369.12,464.0 L 364.45,467.0 L 359.27,470.0 L 353.76,473.0 L 350.00,475.0" fill="none" stroke="#2D3E6B" stroke-width="3.5" stroke-linecap="round" stroke-linejoin="round" opacity="1.0"/>
    <path d="M 350.00,475.0 L 355.62,478.0 L 361.04,481.0 L 366.07,484.0 L 370.54,487.0 L 374.27,490.0 L 377.14,493.0 L 379.06,496.0 L 379.94,499.0 L 379.76,502.0 L 378.53,505.0 L 376.29,508.0 L 373.12,511.0 L 369.12,514.0 L 364.45,517.0 L 359.27,520.0 L 353.76,523.0 L 350.00,525.0"  fill="none" stroke="#2D3E6B"  stroke-width="3.5" stroke-linecap="round" stroke-linejoin="round" opacity="1.0"/>
    <path d="M 332.37,475.0 L 328.13,478.0 L 324.67,481.0 L 322.11,484.0 L 320.53,487.0 L 320.00,490.0 L 320.53,493.0 L 322.11,496.0 L 324.67,499.0 L 328.13,502.0 L 332.37,505.0 L 337.23,508.0 L 342.54,511.0 L 348.12,514.0 L 353.76,517.0 L 359.27,520.0 L 364.45,523.0 L 367.63,525.0" fill="none" stroke="#5B6FA8" stroke-width="3.5" stroke-linecap="round" stroke-linejoin="round" opacity="1.0"/>
    <path d="M 332.37,525.0 L 328.13,528.0 L 324.67,531.0 L 322.11,534.0 L 320.53,537.0 L 320.00,540.0 L 320.00,540.0"  fill="none" stroke="#5B6FA8"  stroke-width="3.5" stroke-linecap="round" stroke-linejoin="round" opacity="1.0"/>
    <path d="M 350.00,525.0 L 355.62,528.0 L 361.04,531.0 L 366.07,534.0 L 370.54,537.0 L 374.27,540.0 L 374.27,540.0" fill="none" stroke="#2D3E6B" stroke-width="3.5" stroke-linecap="round" stroke-linejoin="round" opacity="1.0"/>

    <!-- CCR5 bracket -->
    <rect x="312" y="268" width="76" height="134" rx="4" fill="none" stroke="#E6B800" stroke-width="1.5" stroke-dasharray="5 3" opacity="0.7"/>
  </g>

    <!--
      Main helix (cx=350, hw=30, P=80) — foreground
      Rungs first, then strand segments with depth alternation
    -->
    <!-- Rungs above CCR5 region -->
    <line x1="320" y1="170" x2="380" y2="170" stroke="#8BA0D6" stroke-width="2.5" stroke-linecap="round"/>
    <line x1="320" y1="210" x2="380" y2="210" stroke="#8BA0D6" stroke-width="2.5" stroke-linecap="round"/>
    <line x1="320" y1="250" x2="380" y2="250" stroke="#8BA0D6" stroke-width="2.5" stroke-linecap="round"/>
    <!-- CCR5 highlighted rungs -->
    <line x1="320" y1="290" x2="380" y2="290" stroke="#E6B800" stroke-width="3.5" stroke-linecap="round"/>
    <line x1="320" y1="330" x2="380" y2="330" stroke="#E6B800" stroke-width="3.5" stroke-linecap="round"/>
    <line x1="320" y1="370" x2="380" y2="370" stroke="#E6B800" stroke-width="3.5" stroke-linecap="round"/>
    <!-- Rungs below CCR5 -->
    <line x1="320" y1="410" x2="380" y2="410" stroke="#8BA0D6" stroke-width="2.5" stroke-linecap="round"/>
    <line x1="320" y1="450" x2="380" y2="450" stroke="#8BA0D6" stroke-width="2.5" stroke-linecap="round"/>
    <line x1="320" y1="490" x2="380" y2="490" stroke="#8BA0D6" stroke-width="2.5" stroke-linecap="round"/>

    <!-- Strand segments with proper crossing depth (cx=350, hw=30, P=80) -->
    <!-- Seg1 y=130..210: A-front -->
    <path d="M 350 130 Q 320 170 350 210" fill="none" stroke="#5B6FA8" stroke-width="3.5" stroke-linecap="round"/>
    <path d="M 350 130 Q 380 170 350 210" fill="none" stroke="#2D3E6B" stroke-width="3.5" stroke-linecap="round"/>
    <!-- Seg2 y=210..290: B-front -->
    <path d="M 350 210 Q 380 250 350 290" fill="none" stroke="#2D3E6B" stroke-width="3.5" stroke-linecap="round"/>
    <path d="M 350 210 Q 320 250 350 290" fill="none" stroke="#5B6FA8" stroke-width="3.5" stroke-linecap="round"/>
    <!-- Seg3 y=290..370 CCR5 highlighted: A-front -->
    <path d="M 350 290 Q 320 330 350 370" fill="none" stroke="#B8860B" stroke-width="3.5" stroke-linecap="round"/>
    <path d="M 350 290 Q 380 330 350 370" fill="none" stroke="#E6B800" stroke-width="3.5" stroke-linecap="round"/>
    <!-- Seg4 y=370..450: B-front -->
    <path d="M 350 370 Q 380 410 350 450" fill="none" stroke="#2D3E6B" stroke-width="3.5" stroke-linecap="round"/>
    <path d="M 350 370 Q 320 410 350 450" fill="none" stroke="#5B6FA8" stroke-width="3.5" stroke-linecap="round"/>
    <!-- Seg5 y=450..530: A-front -->
    <path d="M 350 450 Q 320 490 350 530" fill="none" stroke="#5B6FA8" stroke-width="3.5" stroke-linecap="round"/>
    <path d="M 350 450 Q 380 490 350 530" fill="none" stroke="#2D3E6B" stroke-width="3.5" stroke-linecap="round"/>

    <!-- CCR5 bracket -->
    <rect x="305" y="278" width="90" height="104" rx="4" fill="none" stroke="#E6B800" stroke-width="1.5" stroke-dasharray="5 3" opacity="0.7"/>
  </g>

  <!-- Subject: Cas9 protein-guide RNA complex with scissors metaphor -->
  <g id="subject" data-label="Cas9 protein complex with guide RNA positioned at CCR5 cut site">
    <!-- Cas9 protein body - two lobe structure -->
    <path d="M 480 270 Q 530 250 580 265 Q 620 280 625 320 Q 628 358 600 378 Q 572 395 540 390 Q 508 385 488 365 Q 468 342 470 310 Q 472 285 480 270 Z" fill="#2FBF39" stroke="#1A5C1E" stroke-width="2.5" stroke-linecap="round" stroke-linejoin="round"/>
    <!-- lower lobe -->
    <path d="M 485 375 Q 510 395 545 400 Q 578 403 598 385 Q 615 368 612 345" fill="#1A5C1E" stroke="#248A28" stroke-width="2" stroke-linecap="round" stroke-linejoin="round" opacity="0.7"/>
    <!-- guide RNA channel -->
    <path d="M 500 300 Q 510 310 520 320 Q 532 330 545 325" stroke="#6FD877" stroke-width="3" fill="none" stroke-linecap="round"/>
    <!-- RuvC and HNH nuclease domains (small shapes) -->
    <ellipse cx="560" cy="285" rx="18" ry="12" fill="#248A28" stroke="#2FBF39" stroke-width="1.5"/>
    <ellipse cx="595" cy="340" rx="15" ry="12" fill="#248A28" stroke="#2FBF39" stroke-width="1.5"/>
    <!-- guide RNA strand -->
    <path d="M 455 295 Q 468 298 480 305 Q 490 310 500 310" stroke="#E6B800" stroke-width="2.5" fill="none" stroke-linecap="round"/>
    <!-- cut site arrows (scissors metaphor) -->
    <path d="M 500 320 L 390 330" stroke="#CA1E08" stroke-width="2.5" stroke-linecap="round" stroke-dasharray="none"/>
    <polyline points="396,325 390,330 396,335" fill="none" stroke="#CA1E08" stroke-width="2.5" stroke-linecap="round" stroke-linejoin="round"/>
    <!-- second cut -->
    <path d="M 498 335 L 390 342" stroke="#CA1E08" stroke-width="2.5" stroke-linecap="round"/>
    <polyline points="396,337 390,342 396,347" fill="none" stroke="#CA1E08" stroke-width="2.5" stroke-linecap="round" stroke-linejoin="round"/>
  </g>

  <!-- Detail: Cas9 cut site — blunt ends diverging from helix -->
  <g id="detail-cut" data-label="Cas9 double-strand break at CCR5 locus">
    <!-- upper cut: strands end at y≈288, tips splay outward -->
    <path d="M 350 288 Q 334 292 326 290" fill="none" stroke="#CA1E08" stroke-width="2.5" stroke-linecap="round"/>
    <path d="M 350 288 Q 366 292 374 290" fill="none" stroke="#CA1E08" stroke-width="2.5" stroke-linecap="round"/>
    <!-- lower cut: strands resume at y≈372, tips splay inward -->
    <path d="M 326 372 Q 334 370 350 372" fill="none" stroke="#CA1E08" stroke-width="2.5" stroke-linecap="round"/>
    <path d="M 374 372 Q 366 370 350 372" fill="none" stroke="#CA1E08" stroke-width="2.5" stroke-linecap="round"/>
    <!-- gap label -->
    <line x1="338" y1="315" x2="362" y2="315" stroke="#CA1E08" stroke-width="1.5" stroke-dasharray="3 3" opacity="0.7"/>
    <text x="350" y="332" font-family="Inter, sans-serif" font-size="11" fill="#CA1E08" text-anchor="middle" opacity="0.85">Δ32 bp</text>
  </g>

  <!-- Label -->
  <g id="label" data-label="Gene target label">
    <text x="270" y="248" font-family="Barlow, system-ui, sans-serif" font-size="15" font-weight="700" fill="#1C1E35">CCR5-Δ32</text>
    <text x="460" y="420" font-family="Barlow, system-ui, sans-serif" font-size="14" font-weight="600" fill="#1A5C1E">Cas9</text>
  </g>

  <!-- Overlay: mosaic pattern in corner, warning emphasis -->
  <g id="overlay" data-label="Mosaic cell warning pattern and risk annotation">
    <!-- mosaic cell grid (some cells unedited) - warning that edit is incomplete -->
    <rect x="570" y="450" width="200" height="120" rx="6" fill="#E3F7E3" stroke="#8BA0D6" stroke-width="1.5" opacity="0.8"/>
    <!-- cell grid -->
    <rect x="578" y="458" width="26" height="26" rx="3" fill="#2FBF39" opacity="0.8"/>
    <rect x="608" y="458" width="26" height="26" rx="3" fill="#2FBF39" opacity="0.8"/>
    <rect x="638" y="458" width="26" height="26" rx="3" fill="#CA1E08" opacity="0.6"/>
    <rect x="668" y="458" width="26" height="26" rx="3" fill="#2FBF39" opacity="0.8"/>
    <rect x="698" y="458" width="26" height="26" rx="3" fill="#2FBF39" opacity="0.8"/>
    <rect x="578" y="488" width="26" height="26" rx="3" fill="#2FBF39" opacity="0.8"/>
    <rect x="608" y="488" width="26" height="26" rx="3" fill="#CA1E08" opacity="0.6"/>
    <rect x="638" y="488" width="26" height="26" rx="3" fill="#2FBF39" opacity="0.8"/>
    <rect x="668" y="488" width="26" height="26" rx="3" fill="#CA1E08" opacity="0.6"/>
    <rect x="698" y="488" width="26" height="26" rx="3" fill="#2FBF39" opacity="0.8"/>
    <rect x="578" y="518" width="26" height="26" rx="3" fill="#2FBF39" opacity="0.8"/>
    <rect x="608" y="518" width="26" height="26" rx="3" fill="#2FBF39" opacity="0.8"/>
    <rect x="638" y="518" width="26" height="26" rx="3" fill="#2FBF39" opacity="0.8"/>
    <rect x="668" y="518" width="26" height="26" rx="3" fill="#CA1E08" opacity="0.6"/>
    <rect x="698" y="518" width="26" height="26" rx="3" fill="#2FBF39" opacity="0.8"/>
    <text x="578" y="556" font-family="Barlow, system-ui, sans-serif" font-size="13" fill="#1C1E35" opacity="0.7">mosaic result</text>
  </g>
</svg>
