<svg xmlns="http://www.w3.org/2000/svg" viewBox="0 0 800 600" width="800" height="600">

  <!-- Background: clean scientific white -->
  <g id="bg" data-label="Clean light laboratory background for molecular diagram">
    <rect width="800" height="600" fill="#FBFFF6"/>
    <!-- subtle grid suggestion -->
    <line x1="0" y1="300" x2="800" y2="300" stroke="#EFEFF3" stroke-width="1"/>
    <line x1="400" y1="0" x2="400" y2="600" stroke="#EFEFF3" stroke-width="1"/>
  </g>

  <!-- Context: double helix DNA strand as background element -->
  <g id="context" data-label="Double helix DNA strand providing genomic context">
    <!-- DNA backbone left strand -->
    <path d="M 150 80 Q 190 120 150 160 Q 110 200 150 240 Q 190 280 150 320 Q 110 360 150 400 Q 190 440 150 480 Q 110 520 150 560" fill="none" stroke="#D1DCFF" stroke-width="3" stroke-linecap="round"/>
    <!-- DNA backbone right strand -->
    <path d="M 190 80 Q 150 120 190 160 Q 230 200 190 240 Q 150 280 190 320 Q 230 360 190 400 Q 150 440 190 480 Q 230 520 190 560" fill="none" stroke="#D1DCFF" stroke-width="3" stroke-linecap="round"/>
    <!-- base pair rungs -->
    <line x1="150" y1="120" x2="190" y2="120" stroke="#B8EDB9" stroke-width="2" stroke-linecap="round"/>
    <line x1="150" y1="160" x2="190" y2="160" stroke="#B8EDB9" stroke-width="2" stroke-linecap="round"/>
    <line x1="150" y1="200" x2="190" y2="200" stroke="#B8EDB9" stroke-width="2" stroke-linecap="round"/>
    <line x1="150" y1="240" x2="190" y2="240" stroke="#B8EDB9" stroke-width="2" stroke-linecap="round"/>
    <line x1="150" y1="280" x2="190" y2="280" stroke="#B8EDB9" stroke-width="2" stroke-linecap="round"/>
    <line x1="150" y1="320" x2="190" y2="320" stroke="#B8EDB9" stroke-width="2" stroke-linecap="round"/>
    <line x1="150" y1="360" x2="190" y2="360" stroke="#B8EDB9" stroke-width="2" stroke-linecap="round"/>
    <line x1="150" y1="400" x2="190" y2="400" stroke="#B8EDB9" stroke-width="2" stroke-linecap="round"/>
    <line x1="150" y1="440" x2="190" y2="440" stroke="#B8EDB9" stroke-width="2" stroke-linecap="round"/>
    <line x1="150" y1="480" x2="190" y2="480" stroke="#B8EDB9" stroke-width="2" stroke-linecap="round"/>
    <line x1="150" y1="520" x2="190" y2="520" stroke="#B8EDB9" stroke-width="2" stroke-linecap="round"/>

    <!-- Main DNA double helix (target) centered -->
    <!-- Left backbone -->
    <path d="M 320 130 Q 370 170 320 210 Q 270 250 320 290 Q 370 330 320 370 Q 270 410 320 450 Q 370 490 320 530" fill="none" stroke="#2D3E6B" stroke-width="3.5" stroke-linecap="round"/>
    <!-- Right backbone -->
    <path d="M 380 130 Q 330 170 380 210 Q 430 250 380 290 Q 330 330 380 370 Q 430 410 380 450 Q 330 490 380 530" fill="none" stroke="#2D3E6B" stroke-width="3.5" stroke-linecap="round"/>
    <!-- Base pair rungs on main strand -->
    <line x1="320" y1="170" x2="380" y2="170" stroke="#8BA0D6" stroke-width="2.5" stroke-linecap="round"/>
    <line x1="320" y1="210" x2="380" y2="210" stroke="#8BA0D6" stroke-width="2.5" stroke-linecap="round"/>
    <line x1="320" y1="250" x2="380" y2="250" stroke="#8BA0D6" stroke-width="2.5" stroke-linecap="round"/>
    <!-- CCR5 target region highlighted -->
    <line x1="320" y1="290" x2="380" y2="290" stroke="#E6B800" stroke-width="3.5" stroke-linecap="round"/>
    <line x1="320" y1="330" x2="380" y2="330" stroke="#E6B800" stroke-width="3.5" stroke-linecap="round"/>
    <line x1="320" y1="370" x2="380" y2="370" stroke="#E6B800" stroke-width="3.5" stroke-linecap="round"/>
    <line x1="320" y1="410" x2="380" y2="410" stroke="#8BA0D6" stroke-width="2.5" stroke-linecap="round"/>
    <line x1="320" y1="450" x2="380" y2="450" stroke="#8BA0D6" stroke-width="2.5" stroke-linecap="round"/>
    <line x1="320" y1="490" x2="380" y2="490" stroke="#8BA0D6" stroke-width="2.5" stroke-linecap="round"/>
    <!-- CCR5 bracket -->
    <rect x="305" y="278" width="90" height="104" rx="4" fill="none" stroke="#E6B800" stroke-width="1.5" stroke-dasharray="5 3" opacity="0.7"/>
  </g>

  <!-- Subject: Cas9 protein-guide RNA complex with scissors metaphor -->
  <g id="subject" data-label="Cas9 protein complex with guide RNA positioned at CCR5 cut site">
    <!-- Cas9 protein body - two lobe structure -->
    <path d="M 480 270 Q 530 250 580 265 Q 620 280 625 320 Q 628 358 600 378 Q 572 395 540 390 Q 508 385 488 365 Q 468 342 470 310 Q 472 285 480 270 Z" fill="#2FBF39" stroke="#1A5C1E" stroke-width="2.5" stroke-linecap="round" stroke-linejoin="round"/>
    <!-- lower lobe -->
    <path d="M 485 375 Q 510 395 545 400 Q 578 403 598 385 Q 615 368 612 345" fill="#1A5C1E" stroke="#248A28" stroke-width="2" stroke-linecap="round" stroke-linejoin="round" opacity="0.7"/>
    <!-- guide RNA channel -->
    <path d="M 500 300 Q 510 310 520 320 Q 532 330 545 325" stroke="#6FD877" stroke-width="3" fill="none" stroke-linecap="round"/>
    <!-- RuvC and HNH nuclease domains (small shapes) -->
    <ellipse cx="560" cy="285" rx="18" ry="12" fill="#248A28" stroke="#2FBF39" stroke-width="1.5"/>
    <ellipse cx="595" cy="340" rx="15" ry="12" fill="#248A28" stroke="#2FBF39" stroke-width="1.5"/>
    <!-- guide RNA strand -->
    <path d="M 455 295 Q 468 298 480 305 Q 490 310 500 310" stroke="#E6B800" stroke-width="2.5" fill="none" stroke-linecap="round"/>
    <!-- cut site arrows (scissors metaphor) -->
    <path d="M 500 320 L 390 330" stroke="#CA1E08" stroke-width="2.5" stroke-linecap="round" stroke-dasharray="none"/>
    <polyline points="396,325 390,330 396,335" fill="none" stroke="#CA1E08" stroke-width="2.5" stroke-linecap="round" stroke-linejoin="round"/>
    <!-- second cut -->
    <path d="M 498 335 L 390 342" stroke="#CA1E08" stroke-width="2.5" stroke-linecap="round"/>
    <polyline points="396,337 390,342 396,347" fill="none" stroke="#CA1E08" stroke-width="2.5" stroke-linecap="round" stroke-linejoin="round"/>
  </g>

  <!-- Detail: cut/deletion at CCR5 locus -->
  <g id="detail-cut" data-label="32-base-pair deletion gap in CCR5 gene on DNA strand">
    <!-- gap in DNA strands at cut site -->
    <rect x="314" y="288" width="16" height="8" fill="#FBFFF6"/>
    <rect x="375" y="288" width="16" height="8" fill="#FBFFF6"/>
    <rect x="314" y="328" width="16" height="8" fill="#FBFFF6"/>
    <rect x="375" y="328" width="16" height="8" fill="#FBFFF6"/>
    <!-- blunt ends at cut -->
    <line x1="320" y1="285" x2="320" y2="297" stroke="#CA1E08" stroke-width="2.5" stroke-linecap="round"/>
    <line x1="380" y1="285" x2="380" y2="297" stroke="#CA1E08" stroke-width="2.5" stroke-linecap="round"/>
    <line x1="320" y1="325" x2="320" y2="337" stroke="#CA1E08" stroke-width="2.5" stroke-linecap="round"/>
    <line x1="380" y1="325" x2="380" y2="337" stroke="#CA1E08" stroke-width="2.5" stroke-linecap="round"/>
    <!-- deletion marker -->
    <line x1="320" y1="304" x2="380" y2="304" stroke="#CA1E08" stroke-width="1.5" stroke-linecap="round" stroke-dasharray="3 3" opacity="0.7"/>
    <line x1="320" y1="318" x2="380" y2="318" stroke="#CA1E08" stroke-width="1.5" stroke-linecap="round" stroke-dasharray="3 3" opacity="0.7"/>
  </g>

  <!-- Label -->
  <g id="label" data-label="Gene target label">
    <text x="270" y="248" font-family="Barlow, system-ui, sans-serif" font-size="15" font-weight="700" fill="#1C1E35">CCR5-Δ32</text>
    <text x="460" y="420" font-family="Barlow, system-ui, sans-serif" font-size="14" font-weight="600" fill="#1A5C1E">Cas9</text>
  </g>

  <!-- Overlay: mosaic pattern in corner, warning emphasis -->
  <g id="overlay" data-label="Mosaic cell warning pattern and risk annotation">
    <!-- mosaic cell grid (some cells unedited) - warning that edit is incomplete -->
    <rect x="570" y="450" width="200" height="120" rx="6" fill="#E3F7E3" stroke="#8BA0D6" stroke-width="1.5" opacity="0.8"/>
    <!-- cell grid -->
    <rect x="578" y="458" width="26" height="26" rx="3" fill="#2FBF39" opacity="0.8"/>
    <rect x="608" y="458" width="26" height="26" rx="3" fill="#2FBF39" opacity="0.8"/>
    <rect x="638" y="458" width="26" height="26" rx="3" fill="#CA1E08" opacity="0.6"/>
    <rect x="668" y="458" width="26" height="26" rx="3" fill="#2FBF39" opacity="0.8"/>
    <rect x="698" y="458" width="26" height="26" rx="3" fill="#2FBF39" opacity="0.8"/>
    <rect x="578" y="488" width="26" height="26" rx="3" fill="#2FBF39" opacity="0.8"/>
    <rect x="608" y="488" width="26" height="26" rx="3" fill="#CA1E08" opacity="0.6"/>
    <rect x="638" y="488" width="26" height="26" rx="3" fill="#2FBF39" opacity="0.8"/>
    <rect x="668" y="488" width="26" height="26" rx="3" fill="#CA1E08" opacity="0.6"/>
    <rect x="698" y="488" width="26" height="26" rx="3" fill="#2FBF39" opacity="0.8"/>
    <rect x="578" y="518" width="26" height="26" rx="3" fill="#2FBF39" opacity="0.8"/>
    <rect x="608" y="518" width="26" height="26" rx="3" fill="#2FBF39" opacity="0.8"/>
    <rect x="638" y="518" width="26" height="26" rx="3" fill="#2FBF39" opacity="0.8"/>
    <rect x="668" y="518" width="26" height="26" rx="3" fill="#CA1E08" opacity="0.6"/>
    <rect x="698" y="518" width="26" height="26" rx="3" fill="#2FBF39" opacity="0.8"/>
    <text x="578" y="556" font-family="Barlow, system-ui, sans-serif" font-size="13" fill="#1C1E35" opacity="0.7">mosaic result</text>
  </g>
</svg>
