<svg xmlns="http://www.w3.org/2000/svg" viewBox="0 0 800 600" width="800" height="600">

  <!-- Background: clean scientific white -->
  <g id="bg" data-label="Clean light laboratory background for molecular diagram">
    <rect width="800" height="600" fill="#FBFFF6"/>
    <!-- subtle grid suggestion -->
    <line x1="0" y1="300" x2="800" y2="300" stroke="#EFEFF3" stroke-width="1"/>
    <line x1="400" y1="0" x2="400" y2="600" stroke="#EFEFF3" stroke-width="1"/>
  </g>

  <!-- Context: double helix DNA strand as background element -->
    <!-- Context: background helix (faint) and main CCR5-labelled helix -->
    <!-- Context: background helix and main CCR5-labelled helix -->
    <!-- Context group: helices -->
  <g id="context" data-label="Background and main DNA helices">
    <line x1="159.4" y1="60.0" x2="170.0" y2="60.0" stroke="#B8EDB9" stroke-width="1.2" stroke-linecap="round" opacity="0.32"/>
    <line x1="152.9" y1="70.0" x2="180.6" y2="70.0" stroke="#B8EDB9" stroke-width="1.2" stroke-linecap="round" opacity="0.26"/>
    <line x1="152.9" y1="80.0" x2="187.1" y2="80.0" stroke="#B8EDB9" stroke-width="1.2" stroke-linecap="round" opacity="0.10"/>
    <line x1="159.4" y1="90.0" x2="187.1" y2="90.0" stroke="#B8EDB9" stroke-width="1.2" stroke-linecap="round" opacity="0.04"/>
    <line x1="170.0" y1="100.0" x2="180.6" y2="100.0" stroke="#B8EDB9" stroke-width="1.2" stroke-linecap="round" opacity="0.04"/>
    <line x1="170.0" y1="110.0" x2="180.6" y2="110.0" stroke="#B8EDB9" stroke-width="1.2" stroke-linecap="round" opacity="0.04"/>
    <line x1="159.4" y1="120.0" x2="187.1" y2="120.0" stroke="#B8EDB9" stroke-width="1.2" stroke-linecap="round" opacity="0.04"/>
    <line x1="152.9" y1="130.0" x2="187.1" y2="130.0" stroke="#B8EDB9" stroke-width="1.2" stroke-linecap="round" opacity="0.04"/>
    <line x1="152.9" y1="140.0" x2="180.6" y2="140.0" stroke="#B8EDB9" stroke-width="1.2" stroke-linecap="round" opacity="0.10"/>
    <line x1="159.4" y1="150.0" x2="170.0" y2="150.0" stroke="#B8EDB9" stroke-width="1.2" stroke-linecap="round" opacity="0.26"/>
    <line x1="159.4" y1="160.0" x2="170.0" y2="160.0" stroke="#B8EDB9" stroke-width="1.2" stroke-linecap="round" opacity="0.32"/>
    <line x1="152.9" y1="170.0" x2="180.6" y2="170.0" stroke="#B8EDB9" stroke-width="1.2" stroke-linecap="round" opacity="0.26"/>
    <line x1="152.9" y1="180.0" x2="187.1" y2="180.0" stroke="#B8EDB9" stroke-width="1.2" stroke-linecap="round" opacity="0.10"/>
    <line x1="159.4" y1="190.0" x2="187.1" y2="190.0" stroke="#B8EDB9" stroke-width="1.2" stroke-linecap="round" opacity="0.04"/>
    <line x1="170.0" y1="200.0" x2="180.6" y2="200.0" stroke="#B8EDB9" stroke-width="1.2" stroke-linecap="round" opacity="0.04"/>
    <line x1="170.0" y1="210.0" x2="180.6" y2="210.0" stroke="#B8EDB9" stroke-width="1.2" stroke-linecap="round" opacity="0.04"/>
    <line x1="159.4" y1="220.0" x2="187.1" y2="220.0" stroke="#B8EDB9" stroke-width="1.2" stroke-linecap="round" opacity="0.04"/>
    <line x1="152.9" y1="230.0" x2="187.1" y2="230.0" stroke="#B8EDB9" stroke-width="1.2" stroke-linecap="round" opacity="0.04"/>
    <line x1="152.9" y1="240.0" x2="180.6" y2="240.0" stroke="#B8EDB9" stroke-width="1.2" stroke-linecap="round" opacity="0.10"/>
    <line x1="159.4" y1="250.0" x2="170.0" y2="250.0" stroke="#B8EDB9" stroke-width="1.2" stroke-linecap="round" opacity="0.26"/>
    <line x1="159.4" y1="260.0" x2="170.0" y2="260.0" stroke="#B8EDB9" stroke-width="1.2" stroke-linecap="round" opacity="0.32"/>
    <line x1="152.9" y1="270.0" x2="180.6" y2="270.0" stroke="#B8EDB9" stroke-width="1.2" stroke-linecap="round" opacity="0.26"/>
    <line x1="152.9" y1="280.0" x2="187.1" y2="280.0" stroke="#B8EDB9" stroke-width="1.2" stroke-linecap="round" opacity="0.10"/>
    <line x1="159.4" y1="290.0" x2="187.1" y2="290.0" stroke="#B8EDB9" stroke-width="1.2" stroke-linecap="round" opacity="0.04"/>
    <line x1="170.0" y1="300.0" x2="180.6" y2="300.0" stroke="#B8EDB9" stroke-width="1.2" stroke-linecap="round" opacity="0.04"/>
    <line x1="170.0" y1="310.0" x2="180.6" y2="310.0" stroke="#B8EDB9" stroke-width="1.2" stroke-linecap="round" opacity="0.04"/>
    <line x1="159.4" y1="320.0" x2="187.1" y2="320.0" stroke="#B8EDB9" stroke-width="1.2" stroke-linecap="round" opacity="0.04"/>
    <line x1="152.9" y1="330.0" x2="187.1" y2="330.0" stroke="#B8EDB9" stroke-width="1.2" stroke-linecap="round" opacity="0.04"/>
    <line x1="152.9" y1="340.0" x2="180.6" y2="340.0" stroke="#B8EDB9" stroke-width="1.2" stroke-linecap="round" opacity="0.10"/>
    <line x1="159.4" y1="350.0" x2="170.0" y2="350.0" stroke="#B8EDB9" stroke-width="1.2" stroke-linecap="round" opacity="0.26"/>
    <line x1="159.4" y1="360.0" x2="170.0" y2="360.0" stroke="#B8EDB9" stroke-width="1.2" stroke-linecap="round" opacity="0.32"/>
    <line x1="152.9" y1="370.0" x2="180.6" y2="370.0" stroke="#B8EDB9" stroke-width="1.2" stroke-linecap="round" opacity="0.26"/>
    <line x1="152.9" y1="380.0" x2="187.1" y2="380.0" stroke="#B8EDB9" stroke-width="1.2" stroke-linecap="round" opacity="0.10"/>
    <line x1="159.4" y1="390.0" x2="187.1" y2="390.0" stroke="#B8EDB9" stroke-width="1.2" stroke-linecap="round" opacity="0.04"/>
    <line x1="170.0" y1="400.0" x2="180.6" y2="400.0" stroke="#B8EDB9" stroke-width="1.2" stroke-linecap="round" opacity="0.04"/>
    <line x1="170.0" y1="410.0" x2="180.6" y2="410.0" stroke="#B8EDB9" stroke-width="1.2" stroke-linecap="round" opacity="0.04"/>
    <line x1="159.4" y1="420.0" x2="187.1" y2="420.0" stroke="#B8EDB9" stroke-width="1.2" stroke-linecap="round" opacity="0.04"/>
    <line x1="152.9" y1="430.0" x2="187.1" y2="430.0" stroke="#B8EDB9" stroke-width="1.2" stroke-linecap="round" opacity="0.04"/>
    <line x1="152.9" y1="440.0" x2="180.6" y2="440.0" stroke="#B8EDB9" stroke-width="1.2" stroke-linecap="round" opacity="0.10"/>
    <line x1="159.4" y1="450.0" x2="170.0" y2="450.0" stroke="#B8EDB9" stroke-width="1.2" stroke-linecap="round" opacity="0.26"/>
    <line x1="159.4" y1="460.0" x2="170.0" y2="460.0" stroke="#B8EDB9" stroke-width="1.2" stroke-linecap="round" opacity="0.32"/>
    <line x1="152.9" y1="470.0" x2="180.6" y2="470.0" stroke="#B8EDB9" stroke-width="1.2" stroke-linecap="round" opacity="0.26"/>
    <line x1="152.9" y1="480.0" x2="187.1" y2="480.0" stroke="#B8EDB9" stroke-width="1.2" stroke-linecap="round" opacity="0.10"/>
    <line x1="159.4" y1="490.0" x2="187.1" y2="490.0" stroke="#B8EDB9" stroke-width="1.2" stroke-linecap="round" opacity="0.04"/>
    <line x1="170.0" y1="500.0" x2="180.6" y2="500.0" stroke="#B8EDB9" stroke-width="1.2" stroke-linecap="round" opacity="0.04"/>
    <line x1="170.0" y1="510.0" x2="180.6" y2="510.0" stroke="#B8EDB9" stroke-width="1.2" stroke-linecap="round" opacity="0.04"/>
    <line x1="159.4" y1="520.0" x2="187.1" y2="520.0" stroke="#B8EDB9" stroke-width="1.2" stroke-linecap="round" opacity="0.04"/>
    <line x1="152.9" y1="530.0" x2="187.1" y2="530.0" stroke="#B8EDB9" stroke-width="1.2" stroke-linecap="round" opacity="0.04"/>
    <line x1="152.9" y1="540.0" x2="180.6" y2="540.0" stroke="#B8EDB9" stroke-width="1.2" stroke-linecap="round" opacity="0.10"/>
    <line x1="159.4" y1="550.0" x2="170.0" y2="550.0" stroke="#B8EDB9" stroke-width="1.2" stroke-linecap="round" opacity="0.26"/>
    <line x1="159.4" y1="560.0" x2="170.0" y2="560.0" stroke="#B8EDB9" stroke-width="1.2" stroke-linecap="round" opacity="0.32"/>
    <path d="M 159.42,60.0 L 156.13,64.0 L 153.71,68.0 L 152.32,72.0 L 152.04,76.0 L 152.88,80.0 L 154.80,84.0 L 157.68,88.0 L 161.33,92.0 L 165.52,96.0 L 170.00,100.0 L 174.48,104.0 L 175.56,105.0"  fill="none" stroke="#D1DCFF" stroke-width="2.0" stroke-linecap="round" stroke-linejoin="round" opacity="0.32"/>
    <path d="M 170.00,60.0 L 174.48,64.0 L 178.67,68.0 L 182.32,72.0 L 185.20,76.0 L 187.12,80.0 L 187.96,84.0 L 187.68,88.0 L 186.29,92.0 L 183.87,96.0 L 180.58,100.0 L 176.63,104.0 L 175.56,105.0" fill="none" stroke="#D1DCFF" stroke-width="2.0" stroke-linecap="round" stroke-linejoin="round" opacity="0.32"/>
    <path d="M 175.56,105.0 L 171.13,109.0 L 166.63,113.0 L 162.34,117.0 L 158.53,121.0 L 155.44,125.0 L 153.26,129.0 L 152.14,133.0 L 152.14,137.0 L 153.26,141.0 L 155.44,145.0 L 158.53,149.0 L 162.34,153.0 L 164.44,155.0"  fill="none" stroke="#D1DCFF" stroke-width="2.0" stroke-linecap="round" stroke-linejoin="round" opacity="0.32"/>
    <path d="M 175.56,105.0 L 179.64,109.0 L 183.12,113.0 L 185.77,117.0 L 187.43,121.0 L 188.00,125.0 L 187.43,129.0 L 185.77,133.0 L 183.12,137.0 L 179.64,141.0 L 175.56,145.0 L 171.13,149.0 L 166.63,153.0 L 164.44,155.0" fill="none" stroke="#D1DCFF" stroke-width="2.0" stroke-linecap="round" stroke-linejoin="round" opacity="0.32"/>
    <path d="M 164.44,155.0 L 160.36,159.0 L 156.88,163.0 L 154.23,167.0 L 152.57,171.0 L 152.00,175.0 L 152.57,179.0 L 154.23,183.0 L 156.88,187.0 L 160.36,191.0 L 164.44,195.0 L 168.87,199.0 L 173.37,203.0 L 175.56,205.0"  fill="none" stroke="#D1DCFF" stroke-width="2.0" stroke-linecap="round" stroke-linejoin="round" opacity="0.32"/>
    <path d="M 164.44,155.0 L 168.87,159.0 L 173.37,163.0 L 177.66,167.0 L 181.47,171.0 L 184.56,175.0 L 186.74,179.0 L 187.86,183.0 L 187.86,187.0 L 186.74,191.0 L 184.56,195.0 L 181.47,199.0 L 177.66,203.0 L 175.56,205.0" fill="none" stroke="#D1DCFF" stroke-width="2.0" stroke-linecap="round" stroke-linejoin="round" opacity="0.32"/>
    <path d="M 175.56,205.0 L 171.13,209.0 L 166.63,213.0 L 162.34,217.0 L 158.53,221.0 L 155.44,225.0 L 153.26,229.0 L 152.14,233.0 L 152.14,237.0 L 153.26,241.0 L 155.44,245.0 L 158.53,249.0 L 162.34,253.0 L 164.44,255.0"  fill="none" stroke="#D1DCFF" stroke-width="2.0" stroke-linecap="round" stroke-linejoin="round" opacity="0.32"/>
    <path d="M 175.56,205.0 L 179.64,209.0 L 183.12,213.0 L 185.77,217.0 L 187.43,221.0 L 188.00,225.0 L 187.43,229.0 L 185.77,233.0 L 183.12,237.0 L 179.64,241.0 L 175.56,245.0 L 171.13,249.0 L 166.63,253.0 L 164.44,255.0" fill="none" stroke="#D1DCFF" stroke-width="2.0" stroke-linecap="round" stroke-linejoin="round" opacity="0.32"/>
    <path d="M 164.44,255.0 L 160.36,259.0 L 156.88,263.0 L 154.23,267.0 L 152.57,271.0 L 152.00,275.0 L 152.57,279.0 L 154.23,283.0 L 156.88,287.0 L 160.36,291.0 L 164.44,295.0 L 168.87,299.0 L 173.37,303.0 L 175.56,305.0"  fill="none" stroke="#D1DCFF" stroke-width="2.0" stroke-linecap="round" stroke-linejoin="round" opacity="0.32"/>
    <path d="M 164.44,255.0 L 168.87,259.0 L 173.37,263.0 L 177.66,267.0 L 181.47,271.0 L 184.56,275.0 L 186.74,279.0 L 187.86,283.0 L 187.86,287.0 L 186.74,291.0 L 184.56,295.0 L 181.47,299.0 L 177.66,303.0 L 175.56,305.0" fill="none" stroke="#D1DCFF" stroke-width="2.0" stroke-linecap="round" stroke-linejoin="round" opacity="0.32"/>
    <path d="M 175.56,305.0 L 171.13,309.0 L 166.63,313.0 L 162.34,317.0 L 158.53,321.0 L 155.44,325.0 L 153.26,329.0 L 152.14,333.0 L 152.14,337.0 L 153.26,341.0 L 155.44,345.0 L 158.53,349.0 L 162.34,353.0 L 164.44,355.0"  fill="none" stroke="#D1DCFF" stroke-width="2.0" stroke-linecap="round" stroke-linejoin="round" opacity="0.32"/>
    <path d="M 175.56,305.0 L 179.64,309.0 L 183.12,313.0 L 185.77,317.0 L 187.43,321.0 L 188.00,325.0 L 187.43,329.0 L 185.77,333.0 L 183.12,337.0 L 179.64,341.0 L 175.56,345.0 L 171.13,349.0 L 166.63,353.0 L 164.44,355.0" fill="none" stroke="#D1DCFF" stroke-width="2.0" stroke-linecap="round" stroke-linejoin="round" opacity="0.32"/>
    <path d="M 164.44,355.0 L 160.36,359.0 L 156.88,363.0 L 154.23,367.0 L 152.57,371.0 L 152.00,375.0 L 152.57,379.0 L 154.23,383.0 L 156.88,387.0 L 160.36,391.0 L 164.44,395.0 L 168.87,399.0 L 173.37,403.0 L 175.56,405.0"  fill="none" stroke="#D1DCFF" stroke-width="2.0" stroke-linecap="round" stroke-linejoin="round" opacity="0.32"/>
    <path d="M 164.44,355.0 L 168.87,359.0 L 173.37,363.0 L 177.66,367.0 L 181.47,371.0 L 184.56,375.0 L 186.74,379.0 L 187.86,383.0 L 187.86,387.0 L 186.74,391.0 L 184.56,395.0 L 181.47,399.0 L 177.66,403.0 L 175.56,405.0" fill="none" stroke="#D1DCFF" stroke-width="2.0" stroke-linecap="round" stroke-linejoin="round" opacity="0.32"/>
    <path d="M 175.56,405.0 L 171.13,409.0 L 166.63,413.0 L 162.34,417.0 L 158.53,421.0 L 155.44,425.0 L 153.26,429.0 L 152.14,433.0 L 152.14,437.0 L 153.26,441.0 L 155.44,445.0 L 158.53,449.0 L 162.34,453.0 L 164.44,455.0"  fill="none" stroke="#D1DCFF" stroke-width="2.0" stroke-linecap="round" stroke-linejoin="round" opacity="0.32"/>
    <path d="M 175.56,405.0 L 179.64,409.0 L 183.12,413.0 L 185.77,417.0 L 187.43,421.0 L 188.00,425.0 L 187.43,429.0 L 185.77,433.0 L 183.12,437.0 L 179.64,441.0 L 175.56,445.0 L 171.13,449.0 L 166.63,453.0 L 164.44,455.0" fill="none" stroke="#D1DCFF" stroke-width="2.0" stroke-linecap="round" stroke-linejoin="round" opacity="0.32"/>
    <path d="M 164.44,455.0 L 160.36,459.0 L 156.88,463.0 L 154.23,467.0 L 152.57,471.0 L 152.00,475.0 L 152.57,479.0 L 154.23,483.0 L 156.88,487.0 L 160.36,491.0 L 164.44,495.0 L 168.87,499.0 L 173.37,503.0 L 175.56,505.0"  fill="none" stroke="#D1DCFF" stroke-width="2.0" stroke-linecap="round" stroke-linejoin="round" opacity="0.32"/>
    <path d="M 164.44,455.0 L 168.87,459.0 L 173.37,463.0 L 177.66,467.0 L 181.47,471.0 L 184.56,475.0 L 186.74,479.0 L 187.86,483.0 L 187.86,487.0 L 186.74,491.0 L 184.56,495.0 L 181.47,499.0 L 177.66,503.0 L 175.56,505.0" fill="none" stroke="#D1DCFF" stroke-width="2.0" stroke-linecap="round" stroke-linejoin="round" opacity="0.32"/>
    <path d="M 175.56,505.0 L 171.13,509.0 L 166.63,513.0 L 162.34,517.0 L 158.53,521.0 L 155.44,525.0 L 153.26,529.0 L 152.14,533.0 L 152.14,537.0 L 153.26,541.0 L 155.44,545.0 L 158.53,549.0 L 162.34,553.0 L 164.44,555.0"  fill="none" stroke="#D1DCFF" stroke-width="2.0" stroke-linecap="round" stroke-linejoin="round" opacity="0.32"/>
    <path d="M 175.56,505.0 L 179.64,509.0 L 183.12,513.0 L 185.77,517.0 L 187.43,521.0 L 188.00,525.0 L 187.43,529.0 L 185.77,533.0 L 183.12,537.0 L 179.64,541.0 L 175.56,545.0 L 171.13,549.0 L 166.63,553.0 L 164.44,555.0" fill="none" stroke="#D1DCFF" stroke-width="2.0" stroke-linecap="round" stroke-linejoin="round" opacity="0.32"/>
    <path d="M 164.44,555.0 L 160.36,559.0 L 156.88,563.0 L 155.44,565.0"  fill="none" stroke="#D1DCFF" stroke-width="2.0" stroke-linecap="round" stroke-linejoin="round" opacity="0.32"/>
    <path d="M 164.44,555.0 L 168.87,559.0 L 173.37,563.0 L 175.56,565.0" fill="none" stroke="#D1DCFF" stroke-width="2.0" stroke-linecap="round" stroke-linejoin="round" opacity="0.32"/>

    <line x1="332.4" y1="130.0" x2="350.0" y2="130.0" stroke="#8BA0D6" stroke-width="2.2" stroke-linecap="round" opacity="1.00"/>
    <line x1="321.5" y1="140.0" x2="367.6" y2="140.0" stroke="#8BA0D6" stroke-width="2.2" stroke-linecap="round" opacity="0.81"/>
    <line x1="321.5" y1="150.0" x2="378.5" y2="150.0" stroke="#8BA0D6" stroke-width="2.2" stroke-linecap="round" opacity="0.31"/>
    <line x1="332.4" y1="160.0" x2="378.5" y2="160.0" stroke="#8BA0D6" stroke-width="2.2" stroke-linecap="round" opacity="0.13"/>
    <line x1="350.0" y1="170.0" x2="367.6" y2="170.0" stroke="#8BA0D6" stroke-width="2.2" stroke-linecap="round" opacity="0.13"/>
    <line x1="350.0" y1="180.0" x2="367.6" y2="180.0" stroke="#8BA0D6" stroke-width="2.2" stroke-linecap="round" opacity="0.13"/>
    <line x1="332.4" y1="190.0" x2="378.5" y2="190.0" stroke="#8BA0D6" stroke-width="2.2" stroke-linecap="round" opacity="0.13"/>
    <line x1="321.5" y1="200.0" x2="378.5" y2="200.0" stroke="#8BA0D6" stroke-width="2.2" stroke-linecap="round" opacity="0.13"/>
    <line x1="321.5" y1="210.0" x2="367.6" y2="210.0" stroke="#8BA0D6" stroke-width="2.2" stroke-linecap="round" opacity="0.31"/>
    <line x1="332.4" y1="220.0" x2="350.0" y2="220.0" stroke="#8BA0D6" stroke-width="2.2" stroke-linecap="round" opacity="0.81"/>
    <line x1="332.4" y1="230.0" x2="350.0" y2="230.0" stroke="#8BA0D6" stroke-width="2.2" stroke-linecap="round" opacity="1.00"/>
    <line x1="321.5" y1="240.0" x2="367.6" y2="240.0" stroke="#8BA0D6" stroke-width="2.2" stroke-linecap="round" opacity="0.81"/>
    <line x1="321.5" y1="250.0" x2="378.5" y2="250.0" stroke="#8BA0D6" stroke-width="2.2" stroke-linecap="round" opacity="0.31"/>
    <line x1="332.4" y1="260.0" x2="378.5" y2="260.0" stroke="#8BA0D6" stroke-width="2.2" stroke-linecap="round" opacity="0.13"/>
    <line x1="350.0" y1="270.0" x2="367.6" y2="270.0" stroke="#E6B800" stroke-width="3.0" stroke-linecap="round" opacity="0.13"/>
    <line x1="350.0" y1="280.0" x2="367.6" y2="280.0" stroke="#E6B800" stroke-width="3.0" stroke-linecap="round" opacity="0.13"/>
    <line x1="332.4" y1="290.0" x2="378.5" y2="290.0" stroke="#E6B800" stroke-width="3.0" stroke-linecap="round" opacity="0.13"/>
    <line x1="350.0" y1="370.0" x2="367.6" y2="370.0" stroke="#E6B800" stroke-width="3.0" stroke-linecap="round" opacity="0.13"/>
    <line x1="350.0" y1="380.0" x2="367.6" y2="380.0" stroke="#E6B800" stroke-width="3.0" stroke-linecap="round" opacity="0.13"/>
    <line x1="332.4" y1="390.0" x2="378.5" y2="390.0" stroke="#E6B800" stroke-width="3.0" stroke-linecap="round" opacity="0.13"/>
    <line x1="321.5" y1="400.0" x2="378.5" y2="400.0" stroke="#E6B800" stroke-width="3.0" stroke-linecap="round" opacity="0.13"/>
    <line x1="321.5" y1="410.0" x2="367.6" y2="410.0" stroke="#8BA0D6" stroke-width="2.2" stroke-linecap="round" opacity="0.31"/>
    <line x1="332.4" y1="420.0" x2="350.0" y2="420.0" stroke="#8BA0D6" stroke-width="2.2" stroke-linecap="round" opacity="0.81"/>
    <line x1="332.4" y1="430.0" x2="350.0" y2="430.0" stroke="#8BA0D6" stroke-width="2.2" stroke-linecap="round" opacity="1.00"/>
    <line x1="321.5" y1="440.0" x2="367.6" y2="440.0" stroke="#8BA0D6" stroke-width="2.2" stroke-linecap="round" opacity="0.81"/>
    <line x1="321.5" y1="450.0" x2="378.5" y2="450.0" stroke="#8BA0D6" stroke-width="2.2" stroke-linecap="round" opacity="0.31"/>
    <line x1="332.4" y1="460.0" x2="378.5" y2="460.0" stroke="#8BA0D6" stroke-width="2.2" stroke-linecap="round" opacity="0.13"/>
    <line x1="350.0" y1="470.0" x2="367.6" y2="470.0" stroke="#8BA0D6" stroke-width="2.2" stroke-linecap="round" opacity="0.13"/>
    <line x1="350.0" y1="480.0" x2="367.6" y2="480.0" stroke="#8BA0D6" stroke-width="2.2" stroke-linecap="round" opacity="0.13"/>
    <line x1="332.4" y1="490.0" x2="378.5" y2="490.0" stroke="#8BA0D6" stroke-width="2.2" stroke-linecap="round" opacity="0.13"/>
    <line x1="321.5" y1="500.0" x2="378.5" y2="500.0" stroke="#8BA0D6" stroke-width="2.2" stroke-linecap="round" opacity="0.13"/>
    <line x1="321.5" y1="510.0" x2="367.6" y2="510.0" stroke="#8BA0D6" stroke-width="2.2" stroke-linecap="round" opacity="0.31"/>
    <line x1="332.4" y1="520.0" x2="350.0" y2="520.0" stroke="#8BA0D6" stroke-width="2.2" stroke-linecap="round" opacity="0.81"/>
    <line x1="332.4" y1="530.0" x2="350.0" y2="530.0" stroke="#8BA0D6" stroke-width="2.2" stroke-linecap="round" opacity="1.00"/>
    <line x1="321.5" y1="540.0" x2="367.6" y2="540.0" stroke="#8BA0D6" stroke-width="2.2" stroke-linecap="round" opacity="0.81"/>
    <path d="M 332.37,130.0 L 328.13,133.0 L 324.67,136.0 L 322.11,139.0 L 320.53,142.0 L 320.00,145.0 L 320.53,148.0 L 322.11,151.0 L 324.67,154.0 L 328.13,157.0 L 332.37,160.0 L 337.23,163.0 L 342.54,166.0 L 348.12,169.0 L 353.76,172.0 L 359.27,175.0 L 359.27,175.0"  fill="none" stroke="#5B6FA8" stroke-width="3.5" stroke-linecap="round" stroke-linejoin="round" opacity="1.0"/>
    <path d="M 350.00,130.0 L 355.62,133.0 L 361.04,136.0 L 366.07,139.0 L 370.54,142.0 L 374.27,145.0 L 377.14,148.0 L 379.06,151.0 L 379.94,154.0 L 379.76,157.0 L 378.53,160.0 L 376.29,163.0 L 373.12,166.0 L 369.12,169.0 L 364.45,172.0 L 359.27,175.0 L 359.27,175.0" fill="none" stroke="#2D3E6B" stroke-width="3.5" stroke-linecap="round" stroke-linejoin="round" opacity="1.0"/>
    <path d="M 359.27,175.0 L 353.76,178.0 L 348.12,181.0 L 342.54,184.0 L 337.23,187.0 L 332.37,190.0 L 328.13,193.0 L 324.67,196.0 L 322.11,199.0 L 320.53,202.0 L 320.00,205.0 L 320.53,208.0 L 322.11,211.0 L 324.67,214.0 L 328.13,217.0 L 332.37,220.0 L 337.23,223.0 L 340.73,225.0"  fill="none" stroke="#2D3E6B" stroke-width="3.5" stroke-linecap="round" stroke-linejoin="round" opacity="1.0"/>
    <path d="M 359.27,175.0 L 364.45,178.0 L 369.12,181.0 L 373.12,184.0 L 376.29,187.0 L 378.53,190.0 L 379.76,193.0 L 379.94,196.0 L 379.06,199.0 L 377.14,202.0 L 374.27,205.0 L 370.54,208.0 L 366.07,211.0 L 361.04,214.0 L 355.62,217.0 L 350.00,220.0 L 344.38,223.0 L 340.73,225.0" fill="none" stroke="#5B6FA8" stroke-width="3.5" stroke-linecap="round" stroke-linejoin="round" opacity="1.0"/>
    <path d="M 340.73,225.0 L 335.55,228.0 L 330.88,231.0 L 326.88,234.0 L 323.71,237.0 L 321.47,240.0 L 320.24,243.0 L 320.06,246.0 L 320.94,249.0 L 322.86,252.0 L 325.73,255.0 L 329.46,258.0 L 333.93,261.0 L 338.96,264.0 L 344.38,267.0 L 350.00,270.0 L 355.62,273.0 L 359.27,275.0"  fill="none" stroke="#5B6FA8" stroke-width="3.5" stroke-linecap="round" stroke-linejoin="round" opacity="1.0"/>
    <path d="M 340.73,225.0 L 346.24,228.0 L 351.88,231.0 L 357.46,234.0 L 362.77,237.0 L 367.63,240.0 L 371.87,243.0 L 375.33,246.0 L 377.89,249.0 L 379.47,252.0 L 380.00,255.0 L 379.47,258.0 L 377.89,261.0 L 375.33,264.0 L 371.87,267.0 L 367.63,270.0 L 362.77,273.0 L 359.27,275.0" fill="none" stroke="#2D3E6B" stroke-width="3.5" stroke-linecap="round" stroke-linejoin="round" opacity="1.0"/>
    <path d="M 359.27,275.0 L 353.76,278.0 L 348.12,281.0 L 342.54,284.0 L 337.23,287.0 L 332.37,290.0 L 329.46,292.0"  fill="none" stroke="#E6B800" stroke-width="3.7" stroke-linecap="round" stroke-linejoin="round" opacity="1.0"/>
    <path d="M 359.27,275.0 L 364.45,278.0 L 369.12,281.0 L 373.12,284.0 L 376.29,287.0 L 378.53,290.0 L 379.47,292.0" fill="none" stroke="#B8860B" stroke-width="3.7" stroke-linecap="round" stroke-linejoin="round" opacity="1.0"/>
    <path d="M 346.24,368.0 L 351.88,371.0 L 357.46,374.0 L 359.27,375.0"  fill="none" stroke="#B8860B" stroke-width="3.7" stroke-linecap="round" stroke-linejoin="round" opacity="1.0"/>
    <path d="M 370.54,368.0 L 366.07,371.0 L 361.04,374.0 L 359.27,375.0" fill="none" stroke="#E6B800" stroke-width="3.7" stroke-linecap="round" stroke-linejoin="round" opacity="1.0"/>
    <path d="M 359.27,375.0 L 353.76,378.0 L 348.12,381.0 L 342.54,384.0 L 337.23,387.0 L 332.37,390.0 L 328.13,393.0 L 324.67,396.0 L 322.11,399.0 L 320.53,402.0 L 320.00,405.0 L 320.53,408.0 L 322.11,411.0 L 324.67,414.0 L 328.13,417.0 L 332.37,420.0 L 337.23,423.0 L 340.73,425.0"  fill="none" stroke="#E6B800" stroke-width="3.7" stroke-linecap="round" stroke-linejoin="round" opacity="1.0"/>
    <path d="M 359.27,375.0 L 364.45,378.0 L 369.12,381.0 L 373.12,384.0 L 376.29,387.0 L 378.53,390.0 L 379.76,393.0 L 379.94,396.0 L 379.06,399.0 L 377.14,402.0 L 374.27,405.0 L 370.54,408.0 L 366.07,411.0 L 361.04,414.0 L 355.62,417.0 L 350.00,420.0 L 344.38,423.0 L 340.73,425.0" fill="none" stroke="#B8860B" stroke-width="3.7" stroke-linecap="round" stroke-linejoin="round" opacity="1.0"/>
    <path d="M 340.73,425.0 L 335.55,428.0 L 330.88,431.0 L 326.88,434.0 L 323.71,437.0 L 321.47,440.0 L 320.24,443.0 L 320.06,446.0 L 320.94,449.0 L 322.86,452.0 L 325.73,455.0 L 329.46,458.0 L 333.93,461.0 L 338.96,464.0 L 344.38,467.0 L 350.00,470.0 L 355.62,473.0 L 359.27,475.0"  fill="none" stroke="#5B6FA8" stroke-width="3.5" stroke-linecap="round" stroke-linejoin="round" opacity="1.0"/>
    <path d="M 340.73,425.0 L 346.24,428.0 L 351.88,431.0 L 357.46,434.0 L 362.77,437.0 L 367.63,440.0 L 371.87,443.0 L 375.33,446.0 L 377.89,449.0 L 379.47,452.0 L 380.00,455.0 L 379.47,458.0 L 377.89,461.0 L 375.33,464.0 L 371.87,467.0 L 367.63,470.0 L 362.77,473.0 L 359.27,475.0" fill="none" stroke="#2D3E6B" stroke-width="3.5" stroke-linecap="round" stroke-linejoin="round" opacity="1.0"/>
    <path d="M 359.27,475.0 L 353.76,478.0 L 348.12,481.0 L 342.54,484.0 L 337.23,487.0 L 332.37,490.0 L 328.13,493.0 L 324.67,496.0 L 322.11,499.0 L 320.53,502.0 L 320.00,505.0 L 320.53,508.0 L 322.11,511.0 L 324.67,514.0 L 328.13,517.0 L 332.37,520.0 L 337.23,523.0 L 340.73,525.0"  fill="none" stroke="#2D3E6B" stroke-width="3.5" stroke-linecap="round" stroke-linejoin="round" opacity="1.0"/>
    <path d="M 359.27,475.0 L 364.45,478.0 L 369.12,481.0 L 373.12,484.0 L 376.29,487.0 L 378.53,490.0 L 379.76,493.0 L 379.94,496.0 L 379.06,499.0 L 377.14,502.0 L 374.27,505.0 L 370.54,508.0 L 366.07,511.0 L 361.04,514.0 L 355.62,517.0 L 350.00,520.0 L 344.38,523.0 L 340.73,525.0" fill="none" stroke="#5B6FA8" stroke-width="3.5" stroke-linecap="round" stroke-linejoin="round" opacity="1.0"/>
    <path d="M 340.73,525.0 L 335.55,528.0 L 330.88,531.0 L 326.88,534.0 L 323.71,537.0 L 321.47,540.0 L 321.47,540.0"  fill="none" stroke="#5B6FA8" stroke-width="3.5" stroke-linecap="round" stroke-linejoin="round" opacity="1.0"/>
    <path d="M 340.73,525.0 L 346.24,528.0 L 351.88,531.0 L 357.46,534.0 L 362.77,537.0 L 367.63,540.0 L 367.63,540.0" fill="none" stroke="#2D3E6B" stroke-width="3.5" stroke-linecap="round" stroke-linejoin="round" opacity="1.0"/>


    <!-- CCR5 bracket -->
    <rect x="312" y="268" width="76" height="134" rx="4" fill="none" stroke="#E6B800" stroke-width="1.5" stroke-dasharray="5 3" opacity="0.7"/>
  </g>

    <!--
      Main helix (cx=350, hw=30, P=80) — foreground
      Rungs first, then strand segments with depth alternation
    -->
    <!-- Rungs above CCR5 region -->
    <line x1="320" y1="170" x2="380" y2="170" stroke="#8BA0D6" stroke-width="2.5" stroke-linecap="round"/>
    <line x1="320" y1="210" x2="380" y2="210" stroke="#8BA0D6" stroke-width="2.5" stroke-linecap="round"/>
    <line x1="320" y1="250" x2="380" y2="250" stroke="#8BA0D6" stroke-width="2.5" stroke-linecap="round"/>
    <!-- CCR5 highlighted rungs -->
    <line x1="320" y1="290" x2="380" y2="290" stroke="#E6B800" stroke-width="3.5" stroke-linecap="round"/>
    <line x1="320" y1="330" x2="380" y2="330" stroke="#E6B800" stroke-width="3.5" stroke-linecap="round"/>
    <line x1="320" y1="370" x2="380" y2="370" stroke="#E6B800" stroke-width="3.5" stroke-linecap="round"/>
    <!-- Rungs below CCR5 -->
    <line x1="320" y1="410" x2="380" y2="410" stroke="#8BA0D6" stroke-width="2.5" stroke-linecap="round"/>
    <line x1="320" y1="450" x2="380" y2="450" stroke="#8BA0D6" stroke-width="2.5" stroke-linecap="round"/>
    <line x1="320" y1="490" x2="380" y2="490" stroke="#8BA0D6" stroke-width="2.5" stroke-linecap="round"/>

    <!-- Strand segments with proper crossing depth (cx=350, hw=30, P=80) -->
    <!-- Seg1 y=130..210: A-front -->
    <path d="M 350 130 Q 320 170 350 210" fill="none" stroke="#5B6FA8" stroke-width="3.5" stroke-linecap="round"/>
    <path d="M 350 130 Q 380 170 350 210" fill="none" stroke="#2D3E6B" stroke-width="3.5" stroke-linecap="round"/>
    <!-- Seg2 y=210..290: B-front -->
    <path d="M 350 210 Q 380 250 350 290" fill="none" stroke="#2D3E6B" stroke-width="3.5" stroke-linecap="round"/>
    <path d="M 350 210 Q 320 250 350 290" fill="none" stroke="#5B6FA8" stroke-width="3.5" stroke-linecap="round"/>
    <!-- Seg3 y=290..370 CCR5 highlighted: A-front -->
    <path d="M 350 290 Q 320 330 350 370" fill="none" stroke="#B8860B" stroke-width="3.5" stroke-linecap="round"/>
    <path d="M 350 290 Q 380 330 350 370" fill="none" stroke="#E6B800" stroke-width="3.5" stroke-linecap="round"/>
    <!-- Seg4 y=370..450: B-front -->
    <path d="M 350 370 Q 380 410 350 450" fill="none" stroke="#2D3E6B" stroke-width="3.5" stroke-linecap="round"/>
    <path d="M 350 370 Q 320 410 350 450" fill="none" stroke="#5B6FA8" stroke-width="3.5" stroke-linecap="round"/>
    <!-- Seg5 y=450..530: A-front -->
    <path d="M 350 450 Q 320 490 350 530" fill="none" stroke="#5B6FA8" stroke-width="3.5" stroke-linecap="round"/>
    <path d="M 350 450 Q 380 490 350 530" fill="none" stroke="#2D3E6B" stroke-width="3.5" stroke-linecap="round"/>

    <!-- CCR5 bracket -->
    <rect x="305" y="278" width="90" height="104" rx="4" fill="none" stroke="#E6B800" stroke-width="1.5" stroke-dasharray="5 3" opacity="0.7"/>
  </g>

  <!-- Subject: Cas9 protein-guide RNA complex with scissors metaphor -->
  <g id="subject" data-label="Cas9 protein complex with guide RNA positioned at CCR5 cut site">
    <!-- Cas9 protein body - two lobe structure -->
    <path d="M 480 270 Q 530 250 580 265 Q 620 280 625 320 Q 628 358 600 378 Q 572 395 540 390 Q 508 385 488 365 Q 468 342 470 310 Q 472 285 480 270 Z" fill="#2FBF39" stroke="#1A5C1E" stroke-width="2.5" stroke-linecap="round" stroke-linejoin="round"/>
    <!-- lower lobe -->
    <path d="M 485 375 Q 510 395 545 400 Q 578 403 598 385 Q 615 368 612 345" fill="#1A5C1E" stroke="#248A28" stroke-width="2" stroke-linecap="round" stroke-linejoin="round" opacity="0.7"/>
    <!-- guide RNA channel -->
    <path d="M 500 300 Q 510 310 520 320 Q 532 330 545 325" stroke="#6FD877" stroke-width="3" fill="none" stroke-linecap="round"/>
    <!-- RuvC and HNH nuclease domains (small shapes) -->
    <ellipse cx="560" cy="285" rx="18" ry="12" fill="#248A28" stroke="#2FBF39" stroke-width="1.5"/>
    <ellipse cx="595" cy="340" rx="15" ry="12" fill="#248A28" stroke="#2FBF39" stroke-width="1.5"/>
    <!-- guide RNA strand -->
    <path d="M 455 295 Q 468 298 480 305 Q 490 310 500 310" stroke="#E6B800" stroke-width="2.5" fill="none" stroke-linecap="round"/>
    <!-- cut site arrows (scissors metaphor) -->
    <path d="M 500 320 L 390 330" stroke="#CA1E08" stroke-width="2.5" stroke-linecap="round" stroke-dasharray="none"/>
    <polyline points="396,325 390,330 396,335" fill="none" stroke="#CA1E08" stroke-width="2.5" stroke-linecap="round" stroke-linejoin="round"/>
    <!-- second cut -->
    <path d="M 498 335 L 390 342" stroke="#CA1E08" stroke-width="2.5" stroke-linecap="round"/>
    <polyline points="396,337 390,342 396,347" fill="none" stroke="#CA1E08" stroke-width="2.5" stroke-linecap="round" stroke-linejoin="round"/>
  </g>

  <!-- Detail: Cas9 cut site — blunt ends diverging from helix -->
  <g id="detail-cut" data-label="Cas9 double-strand break at CCR5 locus">
    <!-- upper cut: strands end at y≈288, tips splay outward -->
    <path d="M 350 288 Q 334 292 326 290" fill="none" stroke="#CA1E08" stroke-width="2.5" stroke-linecap="round"/>
    <path d="M 350 288 Q 366 292 374 290" fill="none" stroke="#CA1E08" stroke-width="2.5" stroke-linecap="round"/>
    <!-- lower cut: strands resume at y≈372, tips splay inward -->
    <path d="M 326 372 Q 334 370 350 372" fill="none" stroke="#CA1E08" stroke-width="2.5" stroke-linecap="round"/>
    <path d="M 374 372 Q 366 370 350 372" fill="none" stroke="#CA1E08" stroke-width="2.5" stroke-linecap="round"/>
    <!-- gap label -->
    <line x1="338" y1="315" x2="362" y2="315" stroke="#CA1E08" stroke-width="1.5" stroke-dasharray="3 3" opacity="0.7"/>
    <text x="350" y="332" font-family="Inter, sans-serif" font-size="11" fill="#CA1E08" text-anchor="middle" opacity="0.85">Δ32 bp</text>
  </g>

  <!-- Label -->
  <g id="label" data-label="Gene target label">
    <text x="270" y="248" font-family="Barlow, system-ui, sans-serif" font-size="15" font-weight="700" fill="#1C1E35">CCR5-Δ32</text>
    <text x="460" y="420" font-family="Barlow, system-ui, sans-serif" font-size="14" font-weight="600" fill="#1A5C1E">Cas9</text>
  </g>

  <!-- Overlay: mosaic pattern in corner, warning emphasis -->
  <g id="overlay" data-label="Mosaic cell warning pattern and risk annotation">
    <!-- mosaic cell grid (some cells unedited) - warning that edit is incomplete -->
    <rect x="570" y="450" width="200" height="120" rx="6" fill="#E3F7E3" stroke="#8BA0D6" stroke-width="1.5" opacity="0.8"/>
    <!-- cell grid -->
    <rect x="578" y="458" width="26" height="26" rx="3" fill="#2FBF39" opacity="0.8"/>
    <rect x="608" y="458" width="26" height="26" rx="3" fill="#2FBF39" opacity="0.8"/>
    <rect x="638" y="458" width="26" height="26" rx="3" fill="#CA1E08" opacity="0.6"/>
    <rect x="668" y="458" width="26" height="26" rx="3" fill="#2FBF39" opacity="0.8"/>
    <rect x="698" y="458" width="26" height="26" rx="3" fill="#2FBF39" opacity="0.8"/>
    <rect x="578" y="488" width="26" height="26" rx="3" fill="#2FBF39" opacity="0.8"/>
    <rect x="608" y="488" width="26" height="26" rx="3" fill="#CA1E08" opacity="0.6"/>
    <rect x="638" y="488" width="26" height="26" rx="3" fill="#2FBF39" opacity="0.8"/>
    <rect x="668" y="488" width="26" height="26" rx="3" fill="#CA1E08" opacity="0.6"/>
    <rect x="698" y="488" width="26" height="26" rx="3" fill="#2FBF39" opacity="0.8"/>
    <rect x="578" y="518" width="26" height="26" rx="3" fill="#2FBF39" opacity="0.8"/>
    <rect x="608" y="518" width="26" height="26" rx="3" fill="#2FBF39" opacity="0.8"/>
    <rect x="638" y="518" width="26" height="26" rx="3" fill="#2FBF39" opacity="0.8"/>
    <rect x="668" y="518" width="26" height="26" rx="3" fill="#CA1E08" opacity="0.6"/>
    <rect x="698" y="518" width="26" height="26" rx="3" fill="#2FBF39" opacity="0.8"/>
    <text x="578" y="556" font-family="Barlow, system-ui, sans-serif" font-size="13" fill="#1C1E35" opacity="0.7">mosaic result</text>
  </g>
</svg>
