<svg xmlns="http://www.w3.org/2000/svg" viewBox="0 0 800 600" width="800" height="600">

  <!-- bg: scientific deep navy -->
  <g id="bg" data-label="dark scientific background">
    <rect x="0" y="0" width="800" height="600" fill="#1C1E35"/>
    <!-- subtle grid hint -->
    <line x1="0" y1="300" x2="800" y2="300" stroke="#2D3E6B" stroke-width="0.5" opacity="0.4"/>
    <line x1="400" y1="0" x2="400" y2="600" stroke="#2D3E6B" stroke-width="0.5" opacity="0.4"/>
  </g>

  <!-- context: chromosome/cell context -->
  <g id="context" data-label="abstract cell context with chromosome suggestion">
    <!-- cell boundary hint -->
    <ellipse cx="400" cy="300" rx="340" ry="270" fill="none" stroke="#2D3E6B" stroke-width="2" opacity="0.35"/>
    <!-- nucleus hint -->
    <ellipse cx="400" cy="300" rx="120" ry="260" fill="none" stroke="#2D3E6B" stroke-width="1.5" opacity="0.25"/>
  </g>

  <!-- subject: DNA double helix with CRISPR cut -->
  <g id="subject" data-label="B-DNA double helix centered, CRISPR cut gap at midpoint">

    <!-- RUNGS ABOVE CUT -->
    <g id="detail-rungs-top" data-label="base pair rungs above cut site">
            <line x1="381.19" y1="60" x2="400.00" y2="60" stroke="#8BA0D6" stroke-width="2" opacity="1.00"/>
      <line x1="369.57" y1="70" x2="418.81" y2="70" stroke="#8BA0D6" stroke-width="2" opacity="0.81"/>
      <line x1="369.57" y1="80" x2="430.43" y2="80" stroke="#8BA0D6" stroke-width="2" opacity="0.31"/>
      <line x1="381.19" y1="90" x2="430.43" y2="90" stroke="#8BA0D6" stroke-width="2" opacity="0.13"/>
      <line x1="400.00" y1="100" x2="418.81" y2="100" stroke="#8BA0D6" stroke-width="2" opacity="0.13"/>
      <line x1="400.00" y1="110" x2="418.81" y2="110" stroke="#8BA0D6" stroke-width="2" opacity="0.13"/>
      <line x1="381.19" y1="120" x2="430.43" y2="120" stroke="#8BA0D6" stroke-width="2" opacity="0.13"/>
      <line x1="369.57" y1="130" x2="430.43" y2="130" stroke="#8BA0D6" stroke-width="2" opacity="0.13"/>
      <line x1="369.57" y1="140" x2="418.81" y2="140" stroke="#8BA0D6" stroke-width="2" opacity="0.31"/>
      <line x1="381.19" y1="150" x2="400.00" y2="150" stroke="#8BA0D6" stroke-width="2" opacity="0.81"/>
      <line x1="381.19" y1="160" x2="400.00" y2="160" stroke="#8BA0D6" stroke-width="2" opacity="1.00"/>
      <line x1="369.57" y1="170" x2="418.81" y2="170" stroke="#8BA0D6" stroke-width="2" opacity="0.81"/>
      <line x1="369.57" y1="180" x2="430.43" y2="180" stroke="#8BA0D6" stroke-width="2" opacity="0.31"/>
      <line x1="381.19" y1="190" x2="430.43" y2="190" stroke="#8BA0D6" stroke-width="2" opacity="0.13"/>
      <line x1="400.00" y1="200" x2="418.81" y2="200" stroke="#8BA0D6" stroke-width="2" opacity="0.13"/>
      <line x1="400.00" y1="210" x2="418.81" y2="210" stroke="#8BA0D6" stroke-width="2" opacity="0.13"/>
      <line x1="381.19" y1="220" x2="430.43" y2="220" stroke="#8BA0D6" stroke-width="2" opacity="0.13"/>
      <line x1="369.57" y1="230" x2="430.43" y2="230" stroke="#8BA0D6" stroke-width="2" opacity="0.13"/>
      <line x1="369.57" y1="240" x2="418.81" y2="240" stroke="#8BA0D6" stroke-width="2" opacity="0.31"/>
      <line x1="381.19" y1="250" x2="400.00" y2="250" stroke="#8BA0D6" stroke-width="2" opacity="0.81"/>
      <line x1="381.19" y1="260" x2="400.00" y2="260" stroke="#8BA0D6" stroke-width="2" opacity="1.00"/>

    </g>

    <!-- STRAND B TOP (back strand — drawn first so A overlaps) -->
    <polyline points="381.19,60.0 376.67,63.0 372.98,66.0 370.25,69.0 368.57,72.0 368.00,75.0 368.57,78.0 370.25,81.0 372.98,84.0 376.67,87.0 381.19,90.0 386.38,93.0 392.04,96.0 397.99,99.0 404.01,102.0 409.89,105.0 415.42,108.0 420.40,111.0 424.66,114.0 428.04,117.0 430.43,120.0 431.75,123.0 431.94,126.0 430.99,129.0 428.95,132.0 425.89,135.0 421.91,138.0 417.15,141.0 411.78,144.0 406.00,147.0 400.00,150.0 394.00,153.0 388.22,156.0 382.85,159.0 378.09,162.0 374.11,165.0 371.05,168.0 369.01,171.0 368.06,174.0 368.25,177.0 369.57,180.0 371.96,183.0 375.34,186.0 379.60,189.0 384.58,192.0 390.11,195.0 395.99,198.0 402.01,201.0 407.96,204.0 413.62,207.0 418.81,210.0 423.33,213.0 427.02,216.0 429.75,219.0 431.43,222.0 432.00,225.0 431.43,228.0 429.75,231.0 427.02,234.0 423.33,237.0 418.81,240.0 413.62,243.0 407.96,246.0 402.01,249.0 395.99,252.0 390.11,255.0 384.58,258.0 379.60,261.0 375.34,264.0 371.96,267.0 371.05,268.0"
      fill="none" stroke="#5B6FA8" stroke-width="3" stroke-linecap="round" stroke-linejoin="round"/>

    <!-- STRAND A TOP (front strand) -->
    <polyline points="400.00,60.0 406.00,63.0 411.78,66.0 417.15,69.0 421.91,72.0 425.89,75.0 428.95,78.0 430.99,81.0 431.94,84.0 431.75,87.0 430.43,90.0 428.04,93.0 424.66,96.0 420.40,99.0 415.42,102.0 409.89,105.0 404.01,108.0 397.99,111.0 392.04,114.0 386.38,117.0 381.19,120.0 376.67,123.0 372.98,126.0 370.25,129.0 368.57,132.0 368.00,135.0 368.57,138.0 370.25,141.0 372.98,144.0 376.67,147.0 381.19,150.0 386.38,153.0 392.04,156.0 397.99,159.0 404.01,162.0 409.89,165.0 415.42,168.0 420.40,171.0 424.66,174.0 428.04,177.0 430.43,180.0 431.75,183.0 431.94,186.0 430.99,189.0 428.95,192.0 425.89,195.0 421.91,198.0 417.15,201.0 411.78,204.0 406.00,207.0 400.00,210.0 394.00,213.0 388.22,216.0 382.85,219.0 378.09,222.0 374.11,225.0 371.05,228.0 369.01,231.0 368.06,234.0 368.25,237.0 369.57,240.0 371.96,243.0 375.34,246.0 379.60,249.0 384.58,252.0 390.11,255.0 395.99,258.0 402.01,261.0 407.96,264.0 413.62,267.0 415.42,268.0"
      fill="none" stroke="#2D3E6B" stroke-width="3" stroke-linecap="round" stroke-linejoin="round"/>

    <!-- RUNGS BELOW CUT -->
    <g id="detail-rungs-bot" data-label="base pair rungs below cut site">
            <line x1="369.57" y1="340" x2="418.81" y2="340" stroke="#8BA0D6" stroke-width="2" opacity="0.31"/>
      <line x1="381.19" y1="350" x2="400.00" y2="350" stroke="#8BA0D6" stroke-width="2" opacity="0.81"/>
      <line x1="381.19" y1="360" x2="400.00" y2="360" stroke="#8BA0D6" stroke-width="2" opacity="1.00"/>
      <line x1="369.57" y1="370" x2="418.81" y2="370" stroke="#8BA0D6" stroke-width="2" opacity="0.81"/>
      <line x1="369.57" y1="380" x2="430.43" y2="380" stroke="#8BA0D6" stroke-width="2" opacity="0.31"/>
      <line x1="381.19" y1="390" x2="430.43" y2="390" stroke="#8BA0D6" stroke-width="2" opacity="0.13"/>
      <line x1="400.00" y1="400" x2="418.81" y2="400" stroke="#8BA0D6" stroke-width="2" opacity="0.13"/>
      <line x1="400.00" y1="410" x2="418.81" y2="410" stroke="#8BA0D6" stroke-width="2" opacity="0.13"/>
      <line x1="381.19" y1="420" x2="430.43" y2="420" stroke="#8BA0D6" stroke-width="2" opacity="0.13"/>
      <line x1="369.57" y1="430" x2="430.43" y2="430" stroke="#8BA0D6" stroke-width="2" opacity="0.13"/>
      <line x1="369.57" y1="440" x2="418.81" y2="440" stroke="#8BA0D6" stroke-width="2" opacity="0.31"/>
      <line x1="381.19" y1="450" x2="400.00" y2="450" stroke="#8BA0D6" stroke-width="2" opacity="0.81"/>
      <line x1="381.19" y1="460" x2="400.00" y2="460" stroke="#8BA0D6" stroke-width="2" opacity="1.00"/>
      <line x1="369.57" y1="470" x2="418.81" y2="470" stroke="#8BA0D6" stroke-width="2" opacity="0.81"/>
      <line x1="369.57" y1="480" x2="430.43" y2="480" stroke="#8BA0D6" stroke-width="2" opacity="0.31"/>
      <line x1="381.19" y1="490" x2="430.43" y2="490" stroke="#8BA0D6" stroke-width="2" opacity="0.13"/>
      <line x1="400.00" y1="500" x2="418.81" y2="500" stroke="#8BA0D6" stroke-width="2" opacity="0.13"/>
      <line x1="400.00" y1="510" x2="418.81" y2="510" stroke="#8BA0D6" stroke-width="2" opacity="0.13"/>
      <line x1="381.19" y1="520" x2="430.43" y2="520" stroke="#8BA0D6" stroke-width="2" opacity="0.13"/>
      <line x1="369.57" y1="530" x2="430.43" y2="530" stroke="#8BA0D6" stroke-width="2" opacity="0.13"/>
      <line x1="369.57" y1="540" x2="418.81" y2="540" stroke="#8BA0D6" stroke-width="2" opacity="0.31"/>

    </g>

    <!-- STRAND B BOT -->
    <polyline points="428.95,332.0 425.89,335.0 421.91,338.0 417.15,341.0 411.78,344.0 406.00,347.0 400.00,350.0 394.00,353.0 388.22,356.0 382.85,359.0 378.09,362.0 374.11,365.0 371.05,368.0 369.01,371.0 368.06,374.0 368.25,377.0 369.57,380.0 371.96,383.0 375.34,386.0 379.60,389.0 384.58,392.0 390.11,395.0 395.99,398.0 402.01,401.0 407.96,404.0 413.62,407.0 418.81,410.0 423.33,413.0 427.02,416.0 429.75,419.0 431.43,422.0 432.00,425.0 431.43,428.0 429.75,431.0 427.02,434.0 423.33,437.0 418.81,440.0 413.62,443.0 407.96,446.0 402.01,449.0 395.99,452.0 390.11,455.0 384.58,458.0 379.60,461.0 375.34,464.0 371.96,467.0 369.57,470.0 368.25,473.0 368.06,476.0 369.01,479.0 371.05,482.0 374.11,485.0 378.09,488.0 382.85,491.0 388.22,494.0 394.00,497.0 400.00,500.0 406.00,503.0 411.78,506.0 417.15,509.0 421.91,512.0 425.89,515.0 428.95,518.0 430.99,521.0 431.94,524.0 431.75,527.0 430.43,530.0 428.04,533.0 424.66,536.0 420.40,539.0 418.81,540.0"
      fill="none" stroke="#5B6FA8" stroke-width="3" stroke-linecap="round" stroke-linejoin="round"/>

    <!-- STRAND A BOT -->
    <polyline points="368.57,332.0 368.00,335.0 368.57,338.0 370.25,341.0 372.98,344.0 376.67,347.0 381.19,350.0 386.38,353.0 392.04,356.0 397.99,359.0 404.01,362.0 409.89,365.0 415.42,368.0 420.40,371.0 424.66,374.0 428.04,377.0 430.43,380.0 431.75,383.0 431.94,386.0 430.99,389.0 428.95,392.0 425.89,395.0 421.91,398.0 417.15,401.0 411.78,404.0 406.00,407.0 400.00,410.0 394.00,413.0 388.22,416.0 382.85,419.0 378.09,422.0 374.11,425.0 371.05,428.0 369.01,431.0 368.06,434.0 368.25,437.0 369.57,440.0 371.96,443.0 375.34,446.0 379.60,449.0 384.58,452.0 390.11,455.0 395.99,458.0 402.01,461.0 407.96,464.0 413.62,467.0 418.81,470.0 423.33,473.0 427.02,476.0 429.75,479.0 431.43,482.0 432.00,485.0 431.43,488.0 429.75,491.0 427.02,494.0 423.33,497.0 418.81,500.0 413.62,503.0 407.96,506.0 402.01,509.0 395.99,512.0 390.11,515.0 384.58,518.0 379.60,521.0 375.34,524.0 371.96,527.0 369.57,530.0 368.25,533.0 368.06,536.0 369.01,539.0 369.57,540.0"
      fill="none" stroke="#2D3E6B" stroke-width="3" stroke-linecap="round" stroke-linejoin="round"/>
  </g>

  <!-- detail-cut: CRISPR cut site with splayed blunt ends -->
  <g id="detail-cut" data-label="CRISPR-Cas9 blunt-end cut site showing gap in helix">
    <!-- Highlight region bracket -->
    <rect x="350" y="255" width="100" height="90" rx="3" fill="none" stroke="#E6B800" stroke-width="1.5" stroke-dasharray="6 3" opacity="0.7"/>
    <!-- Cut end A top - splay outward right -->
    <path d="M 418.81,270 L 436.81,258 L 428.81,268"
          fill="#CA1E08" stroke="#CA1E08" stroke-width="1.5"/>
    <!-- Cut end B top - splay outward left -->
    <path d="M 369.57,270 L 351.57,258 L 359.57,268"
          fill="#CA1E08" stroke="#CA1E08" stroke-width="1.5"/>
    <!-- Cut end A bot - splay outward -->
    <path d="M 369.57,330 L 351.57,342 L 359.57,332"
          fill="#CA1E08" stroke="#CA1E08" stroke-width="1.5"/>
    <!-- Cut end B bot -->
    <path d="M 430.43,330 L 448.43,342 L 440.43,332"
          fill="#CA1E08" stroke="#CA1E08" stroke-width="1.5"/>
    <!-- gap fill lines showing broken backbone -->
    <line x1="418.81" y1="270" x2="418.81" y2="274" stroke="#CA1E08" stroke-width="2.5"/>
    <line x1="369.57" y1="270" x2="369.57" y2="274" stroke="#CA1E08" stroke-width="2.5"/>
    <line x1="369.57" y1="326" x2="369.57" y2="330" stroke="#CA1E08" stroke-width="2.5"/>
    <line x1="430.43" y1="326" x2="430.43" y2="330" stroke="#CA1E08" stroke-width="2.5"/>
    <!-- delta label -->
    <text x="460" y="306" font-family="Barlow, sans-serif" font-size="18" font-weight="700"
          fill="#8BA0D6">CCR5-Δ32</text>
  </g>

  <!-- detail-cas9: Cas9 protein scissors shape -->
  <g id="detail-cas9" data-label="Cas9 nuclease protein shown as scissors/clamp at cut site">
    <!-- Cas9 body left lobe -->
    <path d="M 220 260 Q 200 275 198 300 Q 200 325 225 335 Q 255 342 275 325 Q 290 310 282 290 Q 272 268 250 260 Z"
          fill="#E85542" stroke="#CA1E08" stroke-width="2" opacity="0.85"/>
    <!-- Cas9 body right lobe -->
    <path d="M 580 260 Q 600 275 602 300 Q 600 325 575 335 Q 545 342 525 325 Q 510 310 518 290 Q 528 268 550 260 Z"
          fill="#E85542" stroke="#CA1E08" stroke-width="2" opacity="0.85"/>
    <!-- guide RNA thread going to cut site -->
    <path d="M 275 300 Q 320 300 369.57 290" fill="none" stroke="#E6B800" stroke-width="2" stroke-dasharray="5 3"/>
    <path d="M 525 300 Q 480 300 418.81 288" fill="none" stroke="#E6B800" stroke-width="2" stroke-dasharray="5 3"/>
    <!-- Cas9 hinge lines -->
    <path d="M 252 260 Q 310 240 368 270" fill="none" stroke="#CA1E08" stroke-width="1.5" opacity="0.5"/>
    <path d="M 548 260 Q 490 240 432 270" fill="none" stroke="#CA1E08" stroke-width="1.5" opacity="0.5"/>
  </g>

  <!-- label: gene name -->
  <g id="label" data-label="CCR5 gene label">
    <text x="58" y="75" font-family="Barlow, sans-serif" font-size="24" font-weight="900"
          fill="#FBFFF6">CCR5</text>
  </g>

  <!-- overlay: annotation nothing extra, cut annotation handled in detail-cut -->
  <g id="overlay" data-label="annotation elements">
    <!-- cut arrow pointing to gap -->
    <line x1="130" y1="90" x2="380" y2="278" stroke="#8BA0D6" stroke-width="1.5" stroke-dasharray="6 4"/>
    <circle cx="380" cy="278" r="3.5" fill="#8BA0D6"/>
  </g>
</svg>