<svg xmlns="http://www.w3.org/2000/svg" viewBox="0 0 800 600" width="800" height="600">

  <!-- Background: clean scientific white -->
  <g id="bg" data-label="Clean light laboratory background for molecular diagram">
    <rect width="800" height="600" fill="#FBFFF6"/>
    <!-- subtle grid suggestion -->
    <line x1="0" y1="300" x2="800" y2="300" stroke="#EFEFF3" stroke-width="1"/>
    <line x1="400" y1="0" x2="400" y2="600" stroke="#EFEFF3" stroke-width="1"/>
  </g>

  <!-- Context: double helix DNA strand as background element -->
    <!-- Context: background helix (faint) and main CCR5-labelled helix -->
  <g id="context" data-label="Background helix and main DNA helix with CCR5 target region">
<line x1="158.2" y1="60.0" x2="170.0" y2="60.0" stroke="#B8EDB9" stroke-width="1.5" stroke-linecap="round" opacity="0.35"/>
    <line x1="151.0" y1="70.0" x2="181.8" y2="70.0" stroke="#B8EDB9" stroke-width="1.5" stroke-linecap="round" opacity="0.28"/>
    <line x1="151.0" y1="80.0" x2="189.0" y2="80.0" stroke="#B8EDB9" stroke-width="1.5" stroke-linecap="round" opacity="0.11"/>
    <line x1="158.2" y1="90.0" x2="189.0" y2="90.0" stroke="#B8EDB9" stroke-width="1.5" stroke-linecap="round" opacity="0.04"/>
    <line x1="170.0" y1="100.0" x2="181.8" y2="100.0" stroke="#B8EDB9" stroke-width="1.5" stroke-linecap="round" opacity="0.04"/>
    <line x1="170.0" y1="110.0" x2="181.8" y2="110.0" stroke="#B8EDB9" stroke-width="1.5" stroke-linecap="round" opacity="0.04"/>
    <line x1="158.2" y1="120.0" x2="189.0" y2="120.0" stroke="#B8EDB9" stroke-width="1.5" stroke-linecap="round" opacity="0.04"/>
    <line x1="151.0" y1="130.0" x2="189.0" y2="130.0" stroke="#B8EDB9" stroke-width="1.5" stroke-linecap="round" opacity="0.04"/>
    <line x1="151.0" y1="140.0" x2="181.8" y2="140.0" stroke="#B8EDB9" stroke-width="1.5" stroke-linecap="round" opacity="0.11"/>
    <line x1="158.2" y1="150.0" x2="170.0" y2="150.0" stroke="#B8EDB9" stroke-width="1.5" stroke-linecap="round" opacity="0.28"/>
    <line x1="158.2" y1="160.0" x2="170.0" y2="160.0" stroke="#B8EDB9" stroke-width="1.5" stroke-linecap="round" opacity="0.35"/>
    <line x1="151.0" y1="170.0" x2="181.8" y2="170.0" stroke="#B8EDB9" stroke-width="1.5" stroke-linecap="round" opacity="0.28"/>
    <line x1="151.0" y1="180.0" x2="189.0" y2="180.0" stroke="#B8EDB9" stroke-width="1.5" stroke-linecap="round" opacity="0.11"/>
    <line x1="158.2" y1="190.0" x2="189.0" y2="190.0" stroke="#B8EDB9" stroke-width="1.5" stroke-linecap="round" opacity="0.04"/>
    <line x1="170.0" y1="200.0" x2="181.8" y2="200.0" stroke="#B8EDB9" stroke-width="1.5" stroke-linecap="round" opacity="0.04"/>
    <line x1="170.0" y1="210.0" x2="181.8" y2="210.0" stroke="#B8EDB9" stroke-width="1.5" stroke-linecap="round" opacity="0.04"/>
    <line x1="158.2" y1="220.0" x2="189.0" y2="220.0" stroke="#B8EDB9" stroke-width="1.5" stroke-linecap="round" opacity="0.04"/>
    <line x1="151.0" y1="230.0" x2="189.0" y2="230.0" stroke="#B8EDB9" stroke-width="1.5" stroke-linecap="round" opacity="0.04"/>
    <line x1="151.0" y1="240.0" x2="181.8" y2="240.0" stroke="#B8EDB9" stroke-width="1.5" stroke-linecap="round" opacity="0.11"/>
    <line x1="158.2" y1="250.0" x2="170.0" y2="250.0" stroke="#B8EDB9" stroke-width="1.5" stroke-linecap="round" opacity="0.28"/>
    <line x1="158.2" y1="260.0" x2="170.0" y2="260.0" stroke="#B8EDB9" stroke-width="1.5" stroke-linecap="round" opacity="0.35"/>
    <line x1="151.0" y1="270.0" x2="181.8" y2="270.0" stroke="#B8EDB9" stroke-width="1.5" stroke-linecap="round" opacity="0.28"/>
    <line x1="151.0" y1="280.0" x2="189.0" y2="280.0" stroke="#B8EDB9" stroke-width="1.5" stroke-linecap="round" opacity="0.11"/>
    <line x1="158.2" y1="290.0" x2="189.0" y2="290.0" stroke="#B8EDB9" stroke-width="1.5" stroke-linecap="round" opacity="0.04"/>
    <line x1="170.0" y1="300.0" x2="181.8" y2="300.0" stroke="#B8EDB9" stroke-width="1.5" stroke-linecap="round" opacity="0.04"/>
    <line x1="170.0" y1="310.0" x2="181.8" y2="310.0" stroke="#B8EDB9" stroke-width="1.5" stroke-linecap="round" opacity="0.04"/>
    <line x1="158.2" y1="320.0" x2="189.0" y2="320.0" stroke="#B8EDB9" stroke-width="1.5" stroke-linecap="round" opacity="0.04"/>
    <line x1="151.0" y1="330.0" x2="189.0" y2="330.0" stroke="#B8EDB9" stroke-width="1.5" stroke-linecap="round" opacity="0.04"/>
    <line x1="151.0" y1="340.0" x2="181.8" y2="340.0" stroke="#B8EDB9" stroke-width="1.5" stroke-linecap="round" opacity="0.11"/>
    <line x1="158.2" y1="350.0" x2="170.0" y2="350.0" stroke="#B8EDB9" stroke-width="1.5" stroke-linecap="round" opacity="0.28"/>
    <line x1="158.2" y1="360.0" x2="170.0" y2="360.0" stroke="#B8EDB9" stroke-width="1.5" stroke-linecap="round" opacity="0.35"/>
    <line x1="151.0" y1="370.0" x2="181.8" y2="370.0" stroke="#B8EDB9" stroke-width="1.5" stroke-linecap="round" opacity="0.28"/>
    <line x1="151.0" y1="380.0" x2="189.0" y2="380.0" stroke="#B8EDB9" stroke-width="1.5" stroke-linecap="round" opacity="0.11"/>
    <line x1="158.2" y1="390.0" x2="189.0" y2="390.0" stroke="#B8EDB9" stroke-width="1.5" stroke-linecap="round" opacity="0.04"/>
    <line x1="170.0" y1="400.0" x2="181.8" y2="400.0" stroke="#B8EDB9" stroke-width="1.5" stroke-linecap="round" opacity="0.04"/>
    <line x1="170.0" y1="410.0" x2="181.8" y2="410.0" stroke="#B8EDB9" stroke-width="1.5" stroke-linecap="round" opacity="0.04"/>
    <line x1="158.2" y1="420.0" x2="189.0" y2="420.0" stroke="#B8EDB9" stroke-width="1.5" stroke-linecap="round" opacity="0.04"/>
    <line x1="151.0" y1="430.0" x2="189.0" y2="430.0" stroke="#B8EDB9" stroke-width="1.5" stroke-linecap="round" opacity="0.04"/>
    <line x1="151.0" y1="440.0" x2="181.8" y2="440.0" stroke="#B8EDB9" stroke-width="1.5" stroke-linecap="round" opacity="0.11"/>
    <line x1="158.2" y1="450.0" x2="170.0" y2="450.0" stroke="#B8EDB9" stroke-width="1.5" stroke-linecap="round" opacity="0.28"/>
    <line x1="158.2" y1="460.0" x2="170.0" y2="460.0" stroke="#B8EDB9" stroke-width="1.5" stroke-linecap="round" opacity="0.35"/>
    <line x1="151.0" y1="470.0" x2="181.8" y2="470.0" stroke="#B8EDB9" stroke-width="1.5" stroke-linecap="round" opacity="0.28"/>
    <line x1="151.0" y1="480.0" x2="189.0" y2="480.0" stroke="#B8EDB9" stroke-width="1.5" stroke-linecap="round" opacity="0.11"/>
    <line x1="158.2" y1="490.0" x2="189.0" y2="490.0" stroke="#B8EDB9" stroke-width="1.5" stroke-linecap="round" opacity="0.04"/>
    <line x1="170.0" y1="500.0" x2="181.8" y2="500.0" stroke="#B8EDB9" stroke-width="1.5" stroke-linecap="round" opacity="0.04"/>
    <line x1="170.0" y1="510.0" x2="181.8" y2="510.0" stroke="#B8EDB9" stroke-width="1.5" stroke-linecap="round" opacity="0.04"/>
    <line x1="158.2" y1="520.0" x2="189.0" y2="520.0" stroke="#B8EDB9" stroke-width="1.5" stroke-linecap="round" opacity="0.04"/>
    <line x1="151.0" y1="530.0" x2="189.0" y2="530.0" stroke="#B8EDB9" stroke-width="1.5" stroke-linecap="round" opacity="0.04"/>
    <line x1="151.0" y1="540.0" x2="181.8" y2="540.0" stroke="#B8EDB9" stroke-width="1.5" stroke-linecap="round" opacity="0.11"/>
    <line x1="158.2" y1="550.0" x2="170.0" y2="550.0" stroke="#B8EDB9" stroke-width="1.5" stroke-linecap="round" opacity="0.28"/>
    <line x1="158.2" y1="560.0" x2="170.0" y2="560.0" stroke="#B8EDB9" stroke-width="1.5" stroke-linecap="round" opacity="0.35"/>
    <line x1="151.0" y1="570.0" x2="181.8" y2="570.0" stroke="#B8EDB9" stroke-width="1.5" stroke-linecap="round" opacity="0.28"/>
    <path d="M 158.2 60.0 Q 153.8 85.0 181.8 110.0"  fill="none" stroke="#D1DCFF" stroke-width="2.0" stroke-linecap="round" opacity="0.35"/>
    <path d="M 170.0 60.0 Q 190.0 85.0 170.0 110.0" fill="none" stroke="#D1DCFF" stroke-width="2.0" stroke-linecap="round" opacity="0.35"/>
    <path d="M 170.0 110.0 Q 150.0 135.0 170.0 160.0"  fill="none" stroke="#D1DCFF" stroke-width="2.0" stroke-linecap="round" opacity="0.35"/>
    <path d="M 181.8 110.0 Q 186.2 135.0 158.2 160.0" fill="none" stroke="#D1DCFF" stroke-width="2.0" stroke-linecap="round" opacity="0.35"/>
    <path d="M 158.2 160.0 Q 153.8 185.0 181.8 210.0"  fill="none" stroke="#D1DCFF" stroke-width="2.0" stroke-linecap="round" opacity="0.35"/>
    <path d="M 170.0 160.0 Q 190.0 185.0 170.0 210.0" fill="none" stroke="#D1DCFF" stroke-width="2.0" stroke-linecap="round" opacity="0.35"/>
    <path d="M 170.0 210.0 Q 150.0 235.0 170.0 260.0"  fill="none" stroke="#D1DCFF" stroke-width="2.0" stroke-linecap="round" opacity="0.35"/>
    <path d="M 181.8 210.0 Q 186.2 235.0 158.2 260.0" fill="none" stroke="#D1DCFF" stroke-width="2.0" stroke-linecap="round" opacity="0.35"/>
    <path d="M 158.2 260.0 Q 153.8 285.0 181.8 310.0"  fill="none" stroke="#D1DCFF" stroke-width="2.0" stroke-linecap="round" opacity="0.35"/>
    <path d="M 170.0 260.0 Q 190.0 285.0 170.0 310.0" fill="none" stroke="#D1DCFF" stroke-width="2.0" stroke-linecap="round" opacity="0.35"/>
    <path d="M 170.0 310.0 Q 150.0 335.0 170.0 360.0"  fill="none" stroke="#D1DCFF" stroke-width="2.0" stroke-linecap="round" opacity="0.35"/>
    <path d="M 181.8 310.0 Q 186.2 335.0 158.2 360.0" fill="none" stroke="#D1DCFF" stroke-width="2.0" stroke-linecap="round" opacity="0.35"/>
    <path d="M 158.2 360.0 Q 153.8 385.0 181.8 410.0"  fill="none" stroke="#D1DCFF" stroke-width="2.0" stroke-linecap="round" opacity="0.35"/>
    <path d="M 170.0 360.0 Q 190.0 385.0 170.0 410.0" fill="none" stroke="#D1DCFF" stroke-width="2.0" stroke-linecap="round" opacity="0.35"/>
    <path d="M 170.0 410.0 Q 150.0 435.0 170.0 460.0"  fill="none" stroke="#D1DCFF" stroke-width="2.0" stroke-linecap="round" opacity="0.35"/>
    <path d="M 181.8 410.0 Q 186.2 435.0 158.2 460.0" fill="none" stroke="#D1DCFF" stroke-width="2.0" stroke-linecap="round" opacity="0.35"/>
    <path d="M 158.2 460.0 Q 153.8 485.0 181.8 510.0"  fill="none" stroke="#D1DCFF" stroke-width="2.0" stroke-linecap="round" opacity="0.35"/>
    <path d="M 170.0 460.0 Q 190.0 485.0 170.0 510.0" fill="none" stroke="#D1DCFF" stroke-width="2.0" stroke-linecap="round" opacity="0.35"/>
    <path d="M 170.0 510.0 Q 150.0 535.0 170.0 560.0"  fill="none" stroke="#D1DCFF" stroke-width="2.0" stroke-linecap="round" opacity="0.35"/>
    <path d="M 181.8 510.0 Q 186.2 535.0 158.2 560.0" fill="none" stroke="#D1DCFF" stroke-width="2.0" stroke-linecap="round" opacity="0.35"/>
    <path d="M 158.2 560.0 Q 153.8 566.0 181.8 572.0"  fill="none" stroke="#D1DCFF" stroke-width="2.0" stroke-linecap="round" opacity="0.35"/>
    <path d="M 170.0 560.0 Q 190.0 566.0 170.0 572.0" fill="none" stroke="#D1DCFF" stroke-width="2.0" stroke-linecap="round" opacity="0.35"/>


    <!-- CCR5 highlighted rungs and strands -->
<line x1="332.4" y1="130.0" x2="350.0" y2="130.0" stroke="#8BA0D6" stroke-width="2.2" stroke-linecap="round" opacity="1.00"/>
    <line x1="321.5" y1="140.0" x2="367.6" y2="140.0" stroke="#8BA0D6" stroke-width="2.2" stroke-linecap="round" opacity="0.81"/>
    <line x1="321.5" y1="150.0" x2="378.5" y2="150.0" stroke="#8BA0D6" stroke-width="2.2" stroke-linecap="round" opacity="0.31"/>
    <line x1="332.4" y1="160.0" x2="378.5" y2="160.0" stroke="#8BA0D6" stroke-width="2.2" stroke-linecap="round" opacity="0.12"/>
    <line x1="350.0" y1="170.0" x2="367.6" y2="170.0" stroke="#8BA0D6" stroke-width="2.2" stroke-linecap="round" opacity="0.12"/>
    <line x1="350.0" y1="180.0" x2="367.6" y2="180.0" stroke="#8BA0D6" stroke-width="2.2" stroke-linecap="round" opacity="0.12"/>
    <line x1="332.4" y1="190.0" x2="378.5" y2="190.0" stroke="#8BA0D6" stroke-width="2.2" stroke-linecap="round" opacity="0.12"/>
    <line x1="321.5" y1="200.0" x2="378.5" y2="200.0" stroke="#8BA0D6" stroke-width="2.2" stroke-linecap="round" opacity="0.12"/>
    <line x1="321.5" y1="210.0" x2="367.6" y2="210.0" stroke="#8BA0D6" stroke-width="2.2" stroke-linecap="round" opacity="0.31"/>
    <line x1="332.4" y1="220.0" x2="350.0" y2="220.0" stroke="#8BA0D6" stroke-width="2.2" stroke-linecap="round" opacity="0.81"/>
    <line x1="332.4" y1="230.0" x2="350.0" y2="230.0" stroke="#8BA0D6" stroke-width="2.2" stroke-linecap="round" opacity="1.00"/>
    <line x1="321.5" y1="240.0" x2="367.6" y2="240.0" stroke="#8BA0D6" stroke-width="2.2" stroke-linecap="round" opacity="0.81"/>
    <line x1="321.5" y1="250.0" x2="378.5" y2="250.0" stroke="#8BA0D6" stroke-width="2.2" stroke-linecap="round" opacity="0.31"/>
    <line x1="332.4" y1="260.0" x2="378.5" y2="260.0" stroke="#8BA0D6" stroke-width="2.2" stroke-linecap="round" opacity="0.12"/>
    <line x1="350.0" y1="270.0" x2="367.6" y2="270.0" stroke="#E6B800" stroke-width="3.1" stroke-linecap="round" opacity="0.12"/>
    <line x1="350.0" y1="280.0" x2="367.6" y2="280.0" stroke="#E6B800" stroke-width="3.1" stroke-linecap="round" opacity="0.12"/>
    <line x1="332.4" y1="290.0" x2="378.5" y2="290.0" stroke="#E6B800" stroke-width="3.1" stroke-linecap="round" opacity="0.12"/>
    <line x1="350.0" y1="370.0" x2="367.6" y2="370.0" stroke="#E6B800" stroke-width="3.1" stroke-linecap="round" opacity="0.12"/>
    <line x1="350.0" y1="380.0" x2="367.6" y2="380.0" stroke="#E6B800" stroke-width="3.1" stroke-linecap="round" opacity="0.12"/>
    <line x1="332.4" y1="390.0" x2="378.5" y2="390.0" stroke="#E6B800" stroke-width="3.1" stroke-linecap="round" opacity="0.12"/>
    <line x1="321.5" y1="400.0" x2="378.5" y2="400.0" stroke="#E6B800" stroke-width="3.1" stroke-linecap="round" opacity="0.12"/>
    <line x1="321.5" y1="410.0" x2="367.6" y2="410.0" stroke="#8BA0D6" stroke-width="2.2" stroke-linecap="round" opacity="0.31"/>
    <line x1="332.4" y1="420.0" x2="350.0" y2="420.0" stroke="#8BA0D6" stroke-width="2.2" stroke-linecap="round" opacity="0.81"/>
    <line x1="332.4" y1="430.0" x2="350.0" y2="430.0" stroke="#8BA0D6" stroke-width="2.2" stroke-linecap="round" opacity="1.00"/>
    <line x1="321.5" y1="440.0" x2="367.6" y2="440.0" stroke="#8BA0D6" stroke-width="2.2" stroke-linecap="round" opacity="0.81"/>
    <line x1="321.5" y1="450.0" x2="378.5" y2="450.0" stroke="#8BA0D6" stroke-width="2.2" stroke-linecap="round" opacity="0.31"/>
    <line x1="332.4" y1="460.0" x2="378.5" y2="460.0" stroke="#8BA0D6" stroke-width="2.2" stroke-linecap="round" opacity="0.12"/>
    <line x1="350.0" y1="470.0" x2="367.6" y2="470.0" stroke="#8BA0D6" stroke-width="2.2" stroke-linecap="round" opacity="0.12"/>
    <line x1="350.0" y1="480.0" x2="367.6" y2="480.0" stroke="#8BA0D6" stroke-width="2.2" stroke-linecap="round" opacity="0.12"/>
    <line x1="332.4" y1="490.0" x2="378.5" y2="490.0" stroke="#8BA0D6" stroke-width="2.2" stroke-linecap="round" opacity="0.12"/>
    <line x1="321.5" y1="500.0" x2="378.5" y2="500.0" stroke="#8BA0D6" stroke-width="2.2" stroke-linecap="round" opacity="0.12"/>
    <line x1="321.5" y1="510.0" x2="367.6" y2="510.0" stroke="#8BA0D6" stroke-width="2.2" stroke-linecap="round" opacity="0.31"/>
    <line x1="332.4" y1="520.0" x2="350.0" y2="520.0" stroke="#8BA0D6" stroke-width="2.2" stroke-linecap="round" opacity="0.81"/>
    <line x1="332.4" y1="530.0" x2="350.0" y2="530.0" stroke="#8BA0D6" stroke-width="2.2" stroke-linecap="round" opacity="1.00"/>
    <line x1="321.5" y1="540.0" x2="367.6" y2="540.0" stroke="#8BA0D6" stroke-width="2.2" stroke-linecap="round" opacity="0.81"/>
    <line x1="321.5" y1="550.0" x2="378.5" y2="550.0" stroke="#8BA0D6" stroke-width="2.2" stroke-linecap="round" opacity="0.31"/>
    <line x1="332.4" y1="560.0" x2="378.5" y2="560.0" stroke="#8BA0D6" stroke-width="2.2" stroke-linecap="round" opacity="0.12"/>
    <line x1="350.0" y1="570.0" x2="367.6" y2="570.0" stroke="#8BA0D6" stroke-width="2.2" stroke-linecap="round" opacity="0.12"/>
    <path d="M 332.4 130.0 Q 325.7 155.0 367.6 180.0"  fill="none" stroke="#5B6FA8" stroke-width="3.5" stroke-linecap="round" opacity="1.0"/>
    <path d="M 350.0 130.0 Q 380.0 155.0 350.0 180.0" fill="none" stroke="#2D3E6B" stroke-width="3.5" stroke-linecap="round" opacity="1.0"/>
    <path d="M 350.0 180.0 Q 320.0 205.0 350.0 230.0"  fill="none" stroke="#2D3E6B" stroke-width="3.5" stroke-linecap="round" opacity="1.0"/>
    <path d="M 367.6 180.0 Q 374.3 205.0 332.4 230.0" fill="none" stroke="#5B6FA8" stroke-width="3.5" stroke-linecap="round" opacity="1.0"/>
    <path d="M 332.4 230.0 Q 325.7 255.0 367.6 280.0"  fill="none" stroke="#5B6FA8" stroke-width="3.5" stroke-linecap="round" opacity="1.0"/>
    <path d="M 350.0 230.0 Q 380.0 255.0 350.0 280.0" fill="none" stroke="#2D3E6B" stroke-width="3.5" stroke-linecap="round" opacity="1.0"/>
    <path d="M 350.0 280.0 Q 320.0 286.0 350.0 292.0"  fill="none" stroke="#B8860B" stroke-width="3.9" stroke-linecap="round" opacity="1.0"/>
    <path d="M 367.6 280.0 Q 374.3 286.0 332.4 292.0" fill="none" stroke="#E6B800" stroke-width="3.9" stroke-linecap="round" opacity="1.0"/>
    <path d="M 332.4 368.0 Q 325.7 374.0 367.6 380.0"  fill="none" stroke="#B8860B" stroke-width="3.9" stroke-linecap="round" opacity="1.0"/>
    <path d="M 350.0 368.0 Q 380.0 374.0 350.0 380.0" fill="none" stroke="#E6B800" stroke-width="3.9" stroke-linecap="round" opacity="1.0"/>
    <path d="M 350.0 380.0 Q 320.0 405.0 350.0 430.0"  fill="none" stroke="#2D3E6B" stroke-width="3.5" stroke-linecap="round" opacity="1.0"/>
    <path d="M 367.6 380.0 Q 374.3 405.0 332.4 430.0" fill="none" stroke="#5B6FA8" stroke-width="3.5" stroke-linecap="round" opacity="1.0"/>
    <path d="M 332.4 430.0 Q 325.7 455.0 367.6 480.0"  fill="none" stroke="#5B6FA8" stroke-width="3.5" stroke-linecap="round" opacity="1.0"/>
    <path d="M 350.0 430.0 Q 380.0 455.0 350.0 480.0" fill="none" stroke="#2D3E6B" stroke-width="3.5" stroke-linecap="round" opacity="1.0"/>
    <path d="M 350.0 480.0 Q 320.0 505.0 350.0 530.0"  fill="none" stroke="#2D3E6B" stroke-width="3.5" stroke-linecap="round" opacity="1.0"/>
    <path d="M 367.6 480.0 Q 374.3 505.0 332.4 530.0" fill="none" stroke="#5B6FA8" stroke-width="3.5" stroke-linecap="round" opacity="1.0"/>
    <path d="M 332.4 530.0 Q 325.7 551.0 367.6 572.0"  fill="none" stroke="#5B6FA8" stroke-width="3.5" stroke-linecap="round" opacity="1.0"/>
    <path d="M 350.0 530.0 Q 380.0 551.0 350.0 572.0" fill="none" stroke="#2D3E6B" stroke-width="3.5" stroke-linecap="round" opacity="1.0"/>


    <!-- CCR5 bracket -->
    <rect x="312" y="268" width="76" height="134" rx="4" fill="none" stroke="#E6B800" stroke-width="1.5" stroke-dasharray="5 3" opacity="0.7"/>
  </g>

    <!--
      Main helix (cx=350, hw=30, P=80) — foreground
      Rungs first, then strand segments with depth alternation
    -->
    <!-- Rungs above CCR5 region -->
    <line x1="320" y1="170" x2="380" y2="170" stroke="#8BA0D6" stroke-width="2.5" stroke-linecap="round"/>
    <line x1="320" y1="210" x2="380" y2="210" stroke="#8BA0D6" stroke-width="2.5" stroke-linecap="round"/>
    <line x1="320" y1="250" x2="380" y2="250" stroke="#8BA0D6" stroke-width="2.5" stroke-linecap="round"/>
    <!-- CCR5 highlighted rungs -->
    <line x1="320" y1="290" x2="380" y2="290" stroke="#E6B800" stroke-width="3.5" stroke-linecap="round"/>
    <line x1="320" y1="330" x2="380" y2="330" stroke="#E6B800" stroke-width="3.5" stroke-linecap="round"/>
    <line x1="320" y1="370" x2="380" y2="370" stroke="#E6B800" stroke-width="3.5" stroke-linecap="round"/>
    <!-- Rungs below CCR5 -->
    <line x1="320" y1="410" x2="380" y2="410" stroke="#8BA0D6" stroke-width="2.5" stroke-linecap="round"/>
    <line x1="320" y1="450" x2="380" y2="450" stroke="#8BA0D6" stroke-width="2.5" stroke-linecap="round"/>
    <line x1="320" y1="490" x2="380" y2="490" stroke="#8BA0D6" stroke-width="2.5" stroke-linecap="round"/>

    <!-- Strand segments with proper crossing depth (cx=350, hw=30, P=80) -->
    <!-- Seg1 y=130..210: A-front -->
    <path d="M 350 130 Q 320 170 350 210" fill="none" stroke="#5B6FA8" stroke-width="3.5" stroke-linecap="round"/>
    <path d="M 350 130 Q 380 170 350 210" fill="none" stroke="#2D3E6B" stroke-width="3.5" stroke-linecap="round"/>
    <!-- Seg2 y=210..290: B-front -->
    <path d="M 350 210 Q 380 250 350 290" fill="none" stroke="#2D3E6B" stroke-width="3.5" stroke-linecap="round"/>
    <path d="M 350 210 Q 320 250 350 290" fill="none" stroke="#5B6FA8" stroke-width="3.5" stroke-linecap="round"/>
    <!-- Seg3 y=290..370 CCR5 highlighted: A-front -->
    <path d="M 350 290 Q 320 330 350 370" fill="none" stroke="#B8860B" stroke-width="3.5" stroke-linecap="round"/>
    <path d="M 350 290 Q 380 330 350 370" fill="none" stroke="#E6B800" stroke-width="3.5" stroke-linecap="round"/>
    <!-- Seg4 y=370..450: B-front -->
    <path d="M 350 370 Q 380 410 350 450" fill="none" stroke="#2D3E6B" stroke-width="3.5" stroke-linecap="round"/>
    <path d="M 350 370 Q 320 410 350 450" fill="none" stroke="#5B6FA8" stroke-width="3.5" stroke-linecap="round"/>
    <!-- Seg5 y=450..530: A-front -->
    <path d="M 350 450 Q 320 490 350 530" fill="none" stroke="#5B6FA8" stroke-width="3.5" stroke-linecap="round"/>
    <path d="M 350 450 Q 380 490 350 530" fill="none" stroke="#2D3E6B" stroke-width="3.5" stroke-linecap="round"/>

    <!-- CCR5 bracket -->
    <rect x="305" y="278" width="90" height="104" rx="4" fill="none" stroke="#E6B800" stroke-width="1.5" stroke-dasharray="5 3" opacity="0.7"/>
  </g>

  <!-- Subject: Cas9 protein-guide RNA complex with scissors metaphor -->
  <g id="subject" data-label="Cas9 protein complex with guide RNA positioned at CCR5 cut site">
    <!-- Cas9 protein body - two lobe structure -->
    <path d="M 480 270 Q 530 250 580 265 Q 620 280 625 320 Q 628 358 600 378 Q 572 395 540 390 Q 508 385 488 365 Q 468 342 470 310 Q 472 285 480 270 Z" fill="#2FBF39" stroke="#1A5C1E" stroke-width="2.5" stroke-linecap="round" stroke-linejoin="round"/>
    <!-- lower lobe -->
    <path d="M 485 375 Q 510 395 545 400 Q 578 403 598 385 Q 615 368 612 345" fill="#1A5C1E" stroke="#248A28" stroke-width="2" stroke-linecap="round" stroke-linejoin="round" opacity="0.7"/>
    <!-- guide RNA channel -->
    <path d="M 500 300 Q 510 310 520 320 Q 532 330 545 325" stroke="#6FD877" stroke-width="3" fill="none" stroke-linecap="round"/>
    <!-- RuvC and HNH nuclease domains (small shapes) -->
    <ellipse cx="560" cy="285" rx="18" ry="12" fill="#248A28" stroke="#2FBF39" stroke-width="1.5"/>
    <ellipse cx="595" cy="340" rx="15" ry="12" fill="#248A28" stroke="#2FBF39" stroke-width="1.5"/>
    <!-- guide RNA strand -->
    <path d="M 455 295 Q 468 298 480 305 Q 490 310 500 310" stroke="#E6B800" stroke-width="2.5" fill="none" stroke-linecap="round"/>
    <!-- cut site arrows (scissors metaphor) -->
    <path d="M 500 320 L 390 330" stroke="#CA1E08" stroke-width="2.5" stroke-linecap="round" stroke-dasharray="none"/>
    <polyline points="396,325 390,330 396,335" fill="none" stroke="#CA1E08" stroke-width="2.5" stroke-linecap="round" stroke-linejoin="round"/>
    <!-- second cut -->
    <path d="M 498 335 L 390 342" stroke="#CA1E08" stroke-width="2.5" stroke-linecap="round"/>
    <polyline points="396,337 390,342 396,347" fill="none" stroke="#CA1E08" stroke-width="2.5" stroke-linecap="round" stroke-linejoin="round"/>
  </g>

  <!-- Detail: Cas9 cut site — blunt ends diverging from helix -->
  <g id="detail-cut" data-label="Cas9 double-strand break at CCR5 locus">
    <!-- upper cut: strands end at y≈288, tips splay outward -->
    <path d="M 350 288 Q 334 292 326 290" fill="none" stroke="#CA1E08" stroke-width="2.5" stroke-linecap="round"/>
    <path d="M 350 288 Q 366 292 374 290" fill="none" stroke="#CA1E08" stroke-width="2.5" stroke-linecap="round"/>
    <!-- lower cut: strands resume at y≈372, tips splay inward -->
    <path d="M 326 372 Q 334 370 350 372" fill="none" stroke="#CA1E08" stroke-width="2.5" stroke-linecap="round"/>
    <path d="M 374 372 Q 366 370 350 372" fill="none" stroke="#CA1E08" stroke-width="2.5" stroke-linecap="round"/>
    <!-- gap label -->
    <line x1="338" y1="315" x2="362" y2="315" stroke="#CA1E08" stroke-width="1.5" stroke-dasharray="3 3" opacity="0.7"/>
    <text x="350" y="332" font-family="Inter, sans-serif" font-size="11" fill="#CA1E08" text-anchor="middle" opacity="0.85">Δ32 bp</text>
  </g>

  <!-- Label -->
  <g id="label" data-label="Gene target label">
    <text x="270" y="248" font-family="Barlow, system-ui, sans-serif" font-size="15" font-weight="700" fill="#1C1E35">CCR5-Δ32</text>
    <text x="460" y="420" font-family="Barlow, system-ui, sans-serif" font-size="14" font-weight="600" fill="#1A5C1E">Cas9</text>
  </g>

  <!-- Overlay: mosaic pattern in corner, warning emphasis -->
  <g id="overlay" data-label="Mosaic cell warning pattern and risk annotation">
    <!-- mosaic cell grid (some cells unedited) - warning that edit is incomplete -->
    <rect x="570" y="450" width="200" height="120" rx="6" fill="#E3F7E3" stroke="#8BA0D6" stroke-width="1.5" opacity="0.8"/>
    <!-- cell grid -->
    <rect x="578" y="458" width="26" height="26" rx="3" fill="#2FBF39" opacity="0.8"/>
    <rect x="608" y="458" width="26" height="26" rx="3" fill="#2FBF39" opacity="0.8"/>
    <rect x="638" y="458" width="26" height="26" rx="3" fill="#CA1E08" opacity="0.6"/>
    <rect x="668" y="458" width="26" height="26" rx="3" fill="#2FBF39" opacity="0.8"/>
    <rect x="698" y="458" width="26" height="26" rx="3" fill="#2FBF39" opacity="0.8"/>
    <rect x="578" y="488" width="26" height="26" rx="3" fill="#2FBF39" opacity="0.8"/>
    <rect x="608" y="488" width="26" height="26" rx="3" fill="#CA1E08" opacity="0.6"/>
    <rect x="638" y="488" width="26" height="26" rx="3" fill="#2FBF39" opacity="0.8"/>
    <rect x="668" y="488" width="26" height="26" rx="3" fill="#CA1E08" opacity="0.6"/>
    <rect x="698" y="488" width="26" height="26" rx="3" fill="#2FBF39" opacity="0.8"/>
    <rect x="578" y="518" width="26" height="26" rx="3" fill="#2FBF39" opacity="0.8"/>
    <rect x="608" y="518" width="26" height="26" rx="3" fill="#2FBF39" opacity="0.8"/>
    <rect x="638" y="518" width="26" height="26" rx="3" fill="#2FBF39" opacity="0.8"/>
    <rect x="668" y="518" width="26" height="26" rx="3" fill="#CA1E08" opacity="0.6"/>
    <rect x="698" y="518" width="26" height="26" rx="3" fill="#2FBF39" opacity="0.8"/>
    <text x="578" y="556" font-family="Barlow, system-ui, sans-serif" font-size="13" fill="#1C1E35" opacity="0.7">mosaic result</text>
  </g>
</svg>
